{
  "header": {
    "keySignatures": [
      {
        "key": "A",
        "scale": "minor",
        "ticks": 0
      }
    ],
    "meta": [
      {
        "text": "Intro",
        "ticks": 1920,
        "type": "marker"
      },
      {
        "text": "Verse 1",
        "ticks": 11519,
        "type": "marker"
      },
      {
        "text": "Pre Chorus 1",
        "ticks": 26880,
        "type": "marker"
      },
      {
        "text": "Chorus 1",
        "ticks": 42240,
        "type": "marker"
      },
      {
        "text": "Verse 2",
        "ticks": 57600,
        "type": "marker"
      },
      {
        "text": "Pre Chorus 2",
        "ticks": 72960,
        "type": "marker"
      },
      {
        "text": "Chorus 2",
        "ticks": 88320,
        "type": "marker"
      },
      {
        "text": "Bridge",
        "ticks": 119040,
        "type": "marker"
      },
      {
        "text": "Chorus 3",
        "ticks": 134400,
        "type": "marker"
      }
    ],
    "name": "Dance Monkey",
    "ppq": 480,
    "tempos": [
      {
        "bpm": 150,
        "ticks": 0
      },
      {
        "bpm": 97.9999836666694,
        "ticks": 1800
      }
    ],
    "timeSignatures": [
      {
        "ticks": 0,
        "timeSignature": [
          4,
          4
        ],
        "measures": 0
      }
    ]
  },
  "tracks": [
    {
      "channel": 0,
      "controlChanges": {
        "0": [
          {
            "number": 0,
            "ticks": 481,
            "time": 0.4008333333333334,
            "value": 0
          },
          {
            "number": 0,
            "ticks": 1919,
            "time": 1.6517857395833333,
            "value": 0
          },
          {
            "number": 0,
            "ticks": 1920,
            "time": 1.65306125,
            "value": 0
          }
        ],
        "6": [
          {
            "number": 6,
            "ticks": 502,
            "time": 0.4183333333333334,
            "value": 0.015748031496062992
          },
          {
            "number": 6,
            "ticks": 1919,
            "time": 1.6517857395833333,
            "value": 0.015748031496062992
          },
          {
            "number": 6,
            "ticks": 1920,
            "time": 1.65306125,
            "value": 0.015748031496062992
          }
        ],
        "7": [
          {
            "number": 7,
            "ticks": 484,
            "time": 0.4033333333333333,
            "value": 0.7874015748031497
          },
          {
            "number": 7,
            "ticks": 1919,
            "time": 1.6517857395833333,
            "value": 0.7874015748031497
          },
          {
            "number": 7,
            "ticks": 1920,
            "time": 1.65306125,
            "value": 0.7874015748031497
          }
        ],
        "10": [
          {
            "number": 10,
            "ticks": 485,
            "time": 0.40416666666666673,
            "value": 0.5039370078740157
          },
          {
            "number": 10,
            "ticks": 1919,
            "time": 1.6517857395833333,
            "value": 0.5039370078740157
          },
          {
            "number": 10,
            "ticks": 1920,
            "time": 1.65306125,
            "value": 0.5039370078740157
          }
        ],
        "11": [
          {
            "number": 11,
            "ticks": 486,
            "time": 0.405,
            "value": 1
          },
          {
            "number": 11,
            "ticks": 1919,
            "time": 1.6517857395833333,
            "value": 1
          },
          {
            "number": 11,
            "ticks": 1920,
            "time": 1.65306125,
            "value": 1
          }
        ],
        "32": [
          {
            "number": 32,
            "ticks": 482,
            "time": 0.40166666666666667,
            "value": 0
          },
          {
            "number": 32,
            "ticks": 1919,
            "time": 1.6517857395833333,
            "value": 0
          },
          {
            "number": 32,
            "ticks": 1920,
            "time": 1.65306125,
            "value": 0
          }
        ],
        "91": [
          {
            "number": 91,
            "ticks": 487,
            "time": 0.4058333333333334,
            "value": 0.4330708661417323
          },
          {
            "number": 91,
            "ticks": 1919,
            "time": 1.6517857395833333,
            "value": 0.4330708661417323
          },
          {
            "number": 91,
            "ticks": 1920,
            "time": 1.65306125,
            "value": 0.4330708661417323
          }
        ],
        "93": [
          {
            "number": 93,
            "ticks": 488,
            "time": 0.4066666666666667,
            "value": 0.15748031496062992
          },
          {
            "number": 93,
            "ticks": 495,
            "time": 0.41250000000000003,
            "value": 0.15748031496062992
          },
          {
            "number": 93,
            "ticks": 1919,
            "time": 1.6517857395833333,
            "value": 0.15748031496062992
          },
          {
            "number": 93,
            "ticks": 1920,
            "time": 1.65306125,
            "value": 0.15748031496062992
          }
        ],
        "100": [
          {
            "number": 100,
            "ticks": 498,
            "time": 0.41500000000000004,
            "value": 0
          },
          {
            "number": 100,
            "ticks": 510,
            "time": 0.42500000000000004,
            "value": 1
          },
          {
            "number": 100,
            "ticks": 1919,
            "time": 1.6517857395833333,
            "value": 1
          },
          {
            "number": 100,
            "ticks": 1920,
            "time": 1.65306125,
            "value": 1
          }
        ],
        "101": [
          {
            "number": 101,
            "ticks": 494,
            "time": 0.4116666666666666,
            "value": 0
          },
          {
            "number": 101,
            "ticks": 506,
            "time": 0.4216666666666667,
            "value": 1
          },
          {
            "number": 101,
            "ticks": 1919,
            "time": 1.6517857395833333,
            "value": 1
          },
          {
            "number": 101,
            "ticks": 1920,
            "time": 1.65306125,
            "value": 1
          }
        ]
      },
      "pitchBends": [],
      "instrument": {
        "family": "piano",
        "name": "acoustic grand piano",
        "number": 0
      },
      "name": "Dance Monkey",
      "notes": [
        {
          "duration": 0.11862246874999993,
          "durationTicks": 93,
          "midi": 81,
          "name": "A5",
          "ticks": 3839,
          "time": 4.100765739583333,
          "velocity": 0.7322834645669292
        },
        {
          "duration": 0.11607144791666624,
          "durationTicks": 91,
          "midi": 85,
          "name": "C#6",
          "ticks": 3839,
          "time": 4.100765739583333,
          "velocity": 0.7322834645669292
        },
        {
          "duration": 0.11862246874999993,
          "durationTicks": 93,
          "midi": 78,
          "name": "F#5",
          "ticks": 3839,
          "time": 4.100765739583333,
          "velocity": 0.7322834645669292
        },
        {
          "duration": 0.11607144791666713,
          "durationTicks": 91,
          "midi": 78,
          "name": "F#5",
          "ticks": 4079,
          "time": 4.406888239583333,
          "velocity": 0.7480314960629921
        },
        {
          "duration": 0.11989797916666589,
          "durationTicks": 94,
          "midi": 85,
          "name": "C#6",
          "ticks": 4079,
          "time": 4.406888239583333,
          "velocity": 0.7244094488188977
        },
        {
          "duration": 0.11989797916666589,
          "durationTicks": 94,
          "midi": 81,
          "name": "A5",
          "ticks": 4081,
          "time": 4.409439260416667,
          "velocity": 0.7165354330708661
        },
        {
          "duration": 0.11479593749999939,
          "durationTicks": 90,
          "midi": 85,
          "name": "C#6",
          "ticks": 4320,
          "time": 4.71428625,
          "velocity": 0.7480314960629921
        },
        {
          "duration": 0.11989797916666678,
          "durationTicks": 94,
          "midi": 81,
          "name": "A5",
          "ticks": 4320,
          "time": 4.71428625,
          "velocity": 0.7165354330708661
        },
        {
          "duration": 0.12117348958333451,
          "durationTicks": 95,
          "midi": 78,
          "name": "F#5",
          "ticks": 4321,
          "time": 4.715561760416666,
          "velocity": 0.7401574803149606
        },
        {
          "duration": 0.11862246874999993,
          "durationTicks": 93,
          "midi": 78,
          "name": "F#5",
          "ticks": 4559,
          "time": 5.019133239583333,
          "velocity": 0.7244094488188977
        },
        {
          "duration": 0.12117348958333363,
          "durationTicks": 95,
          "midi": 81,
          "name": "A5",
          "ticks": 4559,
          "time": 5.019133239583333,
          "velocity": 0.7480314960629921
        },
        {
          "duration": 0.11734695833333397,
          "durationTicks": 92,
          "midi": 85,
          "name": "C#6",
          "ticks": 4559,
          "time": 5.019133239583333,
          "velocity": 0.7480314960629921
        },
        {
          "duration": 0.11862246874999993,
          "durationTicks": 93,
          "midi": 81,
          "name": "A5",
          "ticks": 4800,
          "time": 5.3265312499999995,
          "velocity": 0.7480314960629921
        },
        {
          "duration": 0.11734695833333308,
          "durationTicks": 92,
          "midi": 85,
          "name": "C#6",
          "ticks": 4800,
          "time": 5.3265312499999995,
          "velocity": 0.7244094488188977
        },
        {
          "duration": 0.11862246874999993,
          "durationTicks": 93,
          "midi": 78,
          "name": "F#5",
          "ticks": 4800,
          "time": 5.3265312499999995,
          "velocity": 0.7401574803149606
        },
        {
          "duration": 0.11607144791666713,
          "durationTicks": 91,
          "midi": 78,
          "name": "F#5",
          "ticks": 5039,
          "time": 5.6313782395833325,
          "velocity": 0.7244094488188977
        },
        {
          "duration": 0.11989797916666678,
          "durationTicks": 94,
          "midi": 85,
          "name": "C#6",
          "ticks": 5039,
          "time": 5.6313782395833325,
          "velocity": 0.7401574803149606
        },
        {
          "duration": 0.11734695833333308,
          "durationTicks": 92,
          "midi": 81,
          "name": "A5",
          "ticks": 5041,
          "time": 5.633929260416666,
          "velocity": 0.7165354330708661
        },
        {
          "duration": 0.11607144791666713,
          "durationTicks": 91,
          "midi": 85,
          "name": "C#6",
          "ticks": 5280,
          "time": 5.938776249999999,
          "velocity": 0.7401574803149606
        },
        {
          "duration": 0.12117348958333363,
          "durationTicks": 95,
          "midi": 81,
          "name": "A5",
          "ticks": 5280,
          "time": 5.938776249999999,
          "velocity": 0.7480314960629921
        },
        {
          "duration": 0.12117348958333363,
          "durationTicks": 95,
          "midi": 78,
          "name": "F#5",
          "ticks": 5280,
          "time": 5.938776249999999,
          "velocity": 0.7165354330708661
        },
        {
          "duration": 0.11734695833333308,
          "durationTicks": 92,
          "midi": 78,
          "name": "F#5",
          "ticks": 5519,
          "time": 6.243623239583333,
          "velocity": 0.7480314960629921
        },
        {
          "duration": 0.11607144791666624,
          "durationTicks": 91,
          "midi": 81,
          "name": "A5",
          "ticks": 5519,
          "time": 6.243623239583333,
          "velocity": 0.7322834645669292
        },
        {
          "duration": 0.12244899999999959,
          "durationTicks": 96,
          "midi": 85,
          "name": "C#6",
          "ticks": 5519,
          "time": 6.243623239583333,
          "velocity": 0.7244094488188977
        },
        {
          "duration": 0.11989797916666678,
          "durationTicks": 94,
          "midi": 74,
          "name": "D5",
          "ticks": 5680,
          "time": 6.448980416666666,
          "velocity": 0.7401574803149606
        },
        {
          "duration": 0.11734695833333308,
          "durationTicks": 92,
          "midi": 81,
          "name": "A5",
          "ticks": 5680,
          "time": 6.448980416666666,
          "velocity": 0.7480314960629921
        },
        {
          "duration": 0.11989797916666678,
          "durationTicks": 94,
          "midi": 78,
          "name": "F#5",
          "ticks": 5680,
          "time": 6.448980416666666,
          "velocity": 0.7480314960629921
        },
        {
          "duration": 0.11607144791666624,
          "durationTicks": 91,
          "midi": 81,
          "name": "A5",
          "ticks": 5999,
          "time": 6.855868239583333,
          "velocity": 0.7244094488188977
        },
        {
          "duration": 0.11862246874999993,
          "durationTicks": 93,
          "midi": 74,
          "name": "D5",
          "ticks": 6000,
          "time": 6.85714375,
          "velocity": 0.7322834645669292
        },
        {
          "duration": 0.12117348958333274,
          "durationTicks": 95,
          "midi": 78,
          "name": "F#5",
          "ticks": 6000,
          "time": 6.85714375,
          "velocity": 0.7322834645669292
        },
        {
          "duration": 0.11734695833333308,
          "durationTicks": 92,
          "midi": 74,
          "name": "D5",
          "ticks": 6239,
          "time": 7.161990739583333,
          "velocity": 0.7322834645669292
        },
        {
          "duration": 0.11607144791666624,
          "durationTicks": 91,
          "midi": 81,
          "name": "A5",
          "ticks": 6239,
          "time": 7.161990739583333,
          "velocity": 0.7322834645669292
        },
        {
          "duration": 0.12244899999999959,
          "durationTicks": 96,
          "midi": 78,
          "name": "F#5",
          "ticks": 6239,
          "time": 7.161990739583333,
          "velocity": 0.7480314960629921
        },
        {
          "duration": 0.11989797916666589,
          "durationTicks": 94,
          "midi": 78,
          "name": "F#5",
          "ticks": 6480,
          "time": 7.469388749999999,
          "velocity": 0.7480314960629921
        },
        {
          "duration": 0.11989797916666589,
          "durationTicks": 94,
          "midi": 81,
          "name": "A5",
          "ticks": 6480,
          "time": 7.469388749999999,
          "velocity": 0.7165354330708661
        },
        {
          "duration": 0.11734695833333308,
          "durationTicks": 92,
          "midi": 74,
          "name": "D5",
          "ticks": 6481,
          "time": 7.470664260416666,
          "velocity": 0.7322834645669292
        },
        {
          "duration": 0.11862246874999993,
          "durationTicks": 93,
          "midi": 78,
          "name": "F#5",
          "ticks": 6720,
          "time": 7.775511249999999,
          "velocity": 0.7480314960629921
        },
        {
          "duration": 0.11607144791666624,
          "durationTicks": 91,
          "midi": 81,
          "name": "A5",
          "ticks": 6720,
          "time": 7.775511249999999,
          "velocity": 0.7480314960629921
        },
        {
          "duration": 0.11607144791666624,
          "durationTicks": 91,
          "midi": 74,
          "name": "D5",
          "ticks": 6720,
          "time": 7.775511249999999,
          "velocity": 0.7401574803149606
        },
        {
          "duration": 0.12117348958333274,
          "durationTicks": 95,
          "midi": 74,
          "name": "D5",
          "ticks": 6959,
          "time": 8.080358239583333,
          "velocity": 0.7322834645669292
        },
        {
          "duration": 0.1173469583333322,
          "durationTicks": 92,
          "midi": 78,
          "name": "F#5",
          "ticks": 6959,
          "time": 8.080358239583333,
          "velocity": 0.7480314960629921
        },
        {
          "duration": 0.1173469583333322,
          "durationTicks": 92,
          "midi": 81,
          "name": "A5",
          "ticks": 6959,
          "time": 8.080358239583333,
          "velocity": 0.7480314960629921
        },
        {
          "duration": 0.1173469583333322,
          "durationTicks": 92,
          "midi": 78,
          "name": "F#5",
          "ticks": 7200,
          "time": 8.387756249999999,
          "velocity": 0.7322834645669292
        },
        {
          "duration": 0.11989797916666589,
          "durationTicks": 94,
          "midi": 74,
          "name": "D5",
          "ticks": 7200,
          "time": 8.387756249999999,
          "velocity": 0.7401574803149606
        },
        {
          "duration": 0.11989797916666589,
          "durationTicks": 94,
          "midi": 81,
          "name": "A5",
          "ticks": 7200,
          "time": 8.387756249999999,
          "velocity": 0.7322834645669292
        },
        {
          "duration": 0.11734695833333397,
          "durationTicks": 92,
          "midi": 74,
          "name": "D5",
          "ticks": 7439,
          "time": 8.692603239583333,
          "velocity": 0.7165354330708661
        },
        {
          "duration": 0.11989797916666589,
          "durationTicks": 94,
          "midi": 78,
          "name": "F#5",
          "ticks": 7440,
          "time": 8.69387875,
          "velocity": 0.7480314960629921
        },
        {
          "duration": 0.11607144791666713,
          "durationTicks": 91,
          "midi": 81,
          "name": "A5",
          "ticks": 7440,
          "time": 8.69387875,
          "velocity": 0.7480314960629921
        },
        {
          "duration": 0.11734695833333397,
          "durationTicks": 92,
          "midi": 76,
          "name": "E5",
          "ticks": 7599,
          "time": 8.89668490625,
          "velocity": 0.7165354330708661
        },
        {
          "duration": 0.11862246874999904,
          "durationTicks": 93,
          "midi": 80,
          "name": "G#5",
          "ticks": 7600,
          "time": 8.897960416666667,
          "velocity": 0.7401574803149606
        },
        {
          "duration": 0.11862246874999904,
          "durationTicks": 93,
          "midi": 83,
          "name": "B5",
          "ticks": 7600,
          "time": 8.897960416666667,
          "velocity": 0.7244094488188977
        },
        {
          "duration": 0.11734695833333397,
          "durationTicks": 92,
          "midi": 76,
          "name": "E5",
          "ticks": 7920,
          "time": 9.30612375,
          "velocity": 0.7322834645669292
        },
        {
          "duration": 0.12117348958333274,
          "durationTicks": 95,
          "midi": 80,
          "name": "G#5",
          "ticks": 7920,
          "time": 9.30612375,
          "velocity": 0.7165354330708661
        },
        {
          "duration": 0.11862246874999904,
          "durationTicks": 93,
          "midi": 83,
          "name": "B5",
          "ticks": 7920,
          "time": 9.30612375,
          "velocity": 0.7244094488188977
        },
        {
          "duration": 0.11734695833333397,
          "durationTicks": 92,
          "midi": 76,
          "name": "E5",
          "ticks": 8160,
          "time": 9.612246249999998,
          "velocity": 0.7322834645669292
        },
        {
          "duration": 0.11734695833333397,
          "durationTicks": 92,
          "midi": 80,
          "name": "G#5",
          "ticks": 8160,
          "time": 9.612246249999998,
          "velocity": 0.7165354330708661
        },
        {
          "duration": 0.11734695833333397,
          "durationTicks": 92,
          "midi": 83,
          "name": "B5",
          "ticks": 8160,
          "time": 9.612246249999998,
          "velocity": 0.7244094488188977
        },
        {
          "duration": 0.12117348958333274,
          "durationTicks": 95,
          "midi": 76,
          "name": "E5",
          "ticks": 8400,
          "time": 9.918368749999999,
          "velocity": 0.7401574803149606
        },
        {
          "duration": 0.12117348958333274,
          "durationTicks": 95,
          "midi": 80,
          "name": "G#5",
          "ticks": 8400,
          "time": 9.918368749999999,
          "velocity": 0.7165354330708661
        },
        {
          "duration": 0.11862246874999904,
          "durationTicks": 93,
          "midi": 83,
          "name": "B5",
          "ticks": 8400,
          "time": 9.918368749999999,
          "velocity": 0.7165354330708661
        },
        {
          "duration": 0.11989797916666589,
          "durationTicks": 94,
          "midi": 76,
          "name": "E5",
          "ticks": 8639,
          "time": 10.223215739583333,
          "velocity": 0.7165354330708661
        },
        {
          "duration": 0.11989797916666589,
          "durationTicks": 94,
          "midi": 83,
          "name": "B5",
          "ticks": 8639,
          "time": 10.223215739583333,
          "velocity": 0.7322834645669292
        },
        {
          "duration": 0.1173469583333322,
          "durationTicks": 92,
          "midi": 80,
          "name": "G#5",
          "ticks": 8639,
          "time": 10.223215739583333,
          "velocity": 0.7165354330708661
        },
        {
          "duration": 0.11607144791666713,
          "durationTicks": 91,
          "midi": 83,
          "name": "B5",
          "ticks": 8880,
          "time": 10.530613749999999,
          "velocity": 0.7244094488188977
        },
        {
          "duration": 0.11862246875000082,
          "durationTicks": 93,
          "midi": 76,
          "name": "E5",
          "ticks": 8880,
          "time": 10.530613749999999,
          "velocity": 0.7401574803149606
        },
        {
          "duration": 0.11862246875000082,
          "durationTicks": 93,
          "midi": 80,
          "name": "G#5",
          "ticks": 8880,
          "time": 10.530613749999999,
          "velocity": 0.7322834645669292
        },
        {
          "duration": 0.11989797916666589,
          "durationTicks": 94,
          "midi": 76,
          "name": "E5",
          "ticks": 9119,
          "time": 10.835460739583333,
          "velocity": 0.7322834645669292
        },
        {
          "duration": 0.11862246874999904,
          "durationTicks": 93,
          "midi": 80,
          "name": "G#5",
          "ticks": 9119,
          "time": 10.835460739583333,
          "velocity": 0.7322834645669292
        },
        {
          "duration": 0.1173469583333322,
          "durationTicks": 92,
          "midi": 83,
          "name": "B5",
          "ticks": 9119,
          "time": 10.835460739583333,
          "velocity": 0.7480314960629921
        },
        {
          "duration": 0.11862246875000082,
          "durationTicks": 93,
          "midi": 80,
          "name": "G#5",
          "ticks": 9359,
          "time": 11.141583239583332,
          "velocity": 0.7322834645669292
        },
        {
          "duration": 0.11862246875000082,
          "durationTicks": 93,
          "midi": 83,
          "name": "B5",
          "ticks": 9359,
          "time": 11.141583239583332,
          "velocity": 0.7401574803149606
        },
        {
          "duration": 0.11607144791666713,
          "durationTicks": 91,
          "midi": 76,
          "name": "E5",
          "ticks": 9361,
          "time": 11.144134260416665,
          "velocity": 0.7244094488188977
        },
        {
          "duration": 0.12117348958333274,
          "durationTicks": 95,
          "midi": 76,
          "name": "E5",
          "ticks": 9519,
          "time": 11.345664906249999,
          "velocity": 0.7401574803149606
        },
        {
          "duration": 0.11607144791666713,
          "durationTicks": 91,
          "midi": 80,
          "name": "G#5",
          "ticks": 9520,
          "time": 11.346940416666666,
          "velocity": 0.7165354330708661
        },
        {
          "duration": 0.11989797916666589,
          "durationTicks": 94,
          "midi": 73,
          "name": "C#5",
          "ticks": 9520,
          "time": 11.346940416666666,
          "velocity": 0.7401574803149606
        },
        {
          "duration": 0.11479593750000028,
          "durationTicks": 90,
          "midi": 76,
          "name": "E5",
          "ticks": 9840,
          "time": 11.755103749999998,
          "velocity": 0.7165354330708661
        },
        {
          "duration": 0.11862246875000082,
          "durationTicks": 93,
          "midi": 80,
          "name": "G#5",
          "ticks": 9840,
          "time": 11.755103749999998,
          "velocity": 0.7322834645669292
        },
        {
          "duration": 0.11607144791666535,
          "durationTicks": 91,
          "midi": 73,
          "name": "C#5",
          "ticks": 9841,
          "time": 11.756379260416667,
          "velocity": 0.7322834645669292
        },
        {
          "duration": 0.11862246875000082,
          "durationTicks": 93,
          "midi": 80,
          "name": "G#5",
          "ticks": 10080,
          "time": 12.061226249999999,
          "velocity": 0.7244094488188977
        },
        {
          "duration": 0.11607144791666713,
          "durationTicks": 91,
          "midi": 76,
          "name": "E5",
          "ticks": 10080,
          "time": 12.061226249999999,
          "velocity": 0.7401574803149606
        },
        {
          "duration": 0.11607144791666713,
          "durationTicks": 91,
          "midi": 73,
          "name": "C#5",
          "ticks": 10080,
          "time": 12.061226249999999,
          "velocity": 0.7165354330708661
        },
        {
          "duration": 0.11862246875000082,
          "durationTicks": 93,
          "midi": 76,
          "name": "E5",
          "ticks": 10319,
          "time": 12.366073239583331,
          "velocity": 0.7480314960629921
        },
        {
          "duration": 0.11607144791666713,
          "durationTicks": 91,
          "midi": 80,
          "name": "G#5",
          "ticks": 10319,
          "time": 12.366073239583331,
          "velocity": 0.7480314960629921
        },
        {
          "duration": 0.1160714479166689,
          "durationTicks": 91,
          "midi": 73,
          "name": "C#5",
          "ticks": 10320,
          "time": 12.367348749999998,
          "velocity": 0.7322834645669292
        },
        {
          "duration": 0.11607144791666713,
          "durationTicks": 91,
          "midi": 80,
          "name": "G#5",
          "ticks": 10560,
          "time": 12.673471249999999,
          "velocity": 0.7480314960629921
        },
        {
          "duration": 0.11607144791666713,
          "durationTicks": 91,
          "midi": 73,
          "name": "C#5",
          "ticks": 10560,
          "time": 12.673471249999999,
          "velocity": 0.7480314960629921
        },
        {
          "duration": 0.11989797916666589,
          "durationTicks": 94,
          "midi": 76,
          "name": "E5",
          "ticks": 10560,
          "time": 12.673471249999999,
          "velocity": 0.7480314960629921
        },
        {
          "duration": 0.11734695833333575,
          "durationTicks": 92,
          "midi": 80,
          "name": "G#5",
          "ticks": 10799,
          "time": 12.97831823958333,
          "velocity": 0.7480314960629921
        },
        {
          "duration": 0.12117348958333451,
          "durationTicks": 95,
          "midi": 76,
          "name": "E5",
          "ticks": 10799,
          "time": 12.97831823958333,
          "velocity": 0.7401574803149606
        },
        {
          "duration": 0.11734695833333575,
          "durationTicks": 92,
          "midi": 73,
          "name": "C#5",
          "ticks": 10799,
          "time": 12.97831823958333,
          "velocity": 0.7401574803149606
        },
        {
          "duration": 0.11989797916666767,
          "durationTicks": 94,
          "midi": 76,
          "name": "E5",
          "ticks": 11039,
          "time": 13.284440739583331,
          "velocity": 0.7480314960629921
        },
        {
          "duration": 0.11734695833333397,
          "durationTicks": 92,
          "midi": 73,
          "name": "C#5",
          "ticks": 11039,
          "time": 13.284440739583331,
          "velocity": 0.7480314960629921
        },
        {
          "duration": 0.11734695833333397,
          "durationTicks": 92,
          "midi": 80,
          "name": "G#5",
          "ticks": 11039,
          "time": 13.284440739583331,
          "velocity": 0.7480314960629921
        },
        {
          "duration": 0.11607144791666713,
          "durationTicks": 91,
          "midi": 73,
          "name": "C#5",
          "ticks": 11280,
          "time": 13.591838749999999,
          "velocity": 0.7401574803149606
        },
        {
          "duration": 0.12117348958333274,
          "durationTicks": 95,
          "midi": 76,
          "name": "E5",
          "ticks": 11280,
          "time": 13.591838749999999,
          "velocity": 0.7401574803149606
        },
        {
          "duration": 0.11989797916666589,
          "durationTicks": 94,
          "midi": 80,
          "name": "G#5",
          "ticks": 11280,
          "time": 13.591838749999999,
          "velocity": 0.7480314960629921
        },
        {
          "duration": 0.11734695833333575,
          "durationTicks": 92,
          "midi": 78,
          "name": "F#5",
          "ticks": 11519,
          "time": 13.896685739583331,
          "velocity": 0.7322834645669292
        },
        {
          "duration": 0.11607144791666713,
          "durationTicks": 91,
          "midi": 85,
          "name": "C#6",
          "ticks": 11519,
          "time": 13.896685739583331,
          "velocity": 0.7322834645669292
        },
        {
          "duration": 0.11989797916666767,
          "durationTicks": 94,
          "midi": 81,
          "name": "A5",
          "ticks": 11519,
          "time": 13.896685739583331,
          "velocity": 0.7322834645669292
        },
        {
          "duration": 0.11989797916666944,
          "durationTicks": 94,
          "midi": 81,
          "name": "A5",
          "ticks": 11759,
          "time": 14.20280823958333,
          "velocity": 0.7165354330708661
        },
        {
          "duration": 0.11734695833333575,
          "durationTicks": 92,
          "midi": 78,
          "name": "F#5",
          "ticks": 11759,
          "time": 14.20280823958333,
          "velocity": 0.7480314960629921
        },
        {
          "duration": 0.12117348958333451,
          "durationTicks": 95,
          "midi": 85,
          "name": "C#6",
          "ticks": 11759,
          "time": 14.20280823958333,
          "velocity": 0.7244094488188977
        },
        {
          "duration": 0.12117348958333451,
          "durationTicks": 95,
          "midi": 78,
          "name": "F#5",
          "ticks": 11999,
          "time": 14.508930739583331,
          "velocity": 0.7401574803149606
        },
        {
          "duration": 0.12117348958333451,
          "durationTicks": 95,
          "midi": 81,
          "name": "A5",
          "ticks": 11999,
          "time": 14.508930739583331,
          "velocity": 0.7165354330708661
        },
        {
          "duration": 0.11862246875000082,
          "durationTicks": 93,
          "midi": 85,
          "name": "C#6",
          "ticks": 11999,
          "time": 14.508930739583331,
          "velocity": 0.7480314960629921
        },
        {
          "duration": 0.1186224687500026,
          "durationTicks": 93,
          "midi": 78,
          "name": "F#5",
          "ticks": 12239,
          "time": 14.81505323958333,
          "velocity": 0.7244094488188977
        },
        {
          "duration": 0.12117348958333451,
          "durationTicks": 95,
          "midi": 81,
          "name": "A5",
          "ticks": 12239,
          "time": 14.81505323958333,
          "velocity": 0.7480314960629921
        },
        {
          "duration": 0.1186224687500026,
          "durationTicks": 93,
          "midi": 85,
          "name": "C#6",
          "ticks": 12239,
          "time": 14.81505323958333,
          "velocity": 0.7480314960629921
        },
        {
          "duration": 0.11862246875000082,
          "durationTicks": 93,
          "midi": 78,
          "name": "F#5",
          "ticks": 12479,
          "time": 15.12117573958333,
          "velocity": 0.7401574803149606
        },
        {
          "duration": 0.11862246875000082,
          "durationTicks": 93,
          "midi": 85,
          "name": "C#6",
          "ticks": 12479,
          "time": 15.12117573958333,
          "velocity": 0.7244094488188977
        },
        {
          "duration": 0.12117348958333451,
          "durationTicks": 95,
          "midi": 81,
          "name": "A5",
          "ticks": 12479,
          "time": 15.12117573958333,
          "velocity": 0.7480314960629921
        },
        {
          "duration": 0.11607144791666713,
          "durationTicks": 91,
          "midi": 78,
          "name": "F#5",
          "ticks": 12719,
          "time": 15.427298239583331,
          "velocity": 0.7244094488188977
        },
        {
          "duration": 0.11862246875000082,
          "durationTicks": 93,
          "midi": 85,
          "name": "C#6",
          "ticks": 12719,
          "time": 15.427298239583331,
          "velocity": 0.7401574803149606
        },
        {
          "duration": 0.11862246875000082,
          "durationTicks": 93,
          "midi": 81,
          "name": "A5",
          "ticks": 12719,
          "time": 15.427298239583331,
          "velocity": 0.7165354330708661
        },
        {
          "duration": 0.11989797916666589,
          "durationTicks": 94,
          "midi": 81,
          "name": "A5",
          "ticks": 12960,
          "time": 15.734696249999999,
          "velocity": 0.7480314960629921
        },
        {
          "duration": 0.11607144791666713,
          "durationTicks": 91,
          "midi": 85,
          "name": "C#6",
          "ticks": 12960,
          "time": 15.734696249999999,
          "velocity": 0.7401574803149606
        },
        {
          "duration": 0.12117348958333274,
          "durationTicks": 95,
          "midi": 78,
          "name": "F#5",
          "ticks": 12960,
          "time": 15.734696249999999,
          "velocity": 0.7165354330708661
        },
        {
          "duration": 0.1173469583333322,
          "durationTicks": 92,
          "midi": 78,
          "name": "F#5",
          "ticks": 13200,
          "time": 16.04081875,
          "velocity": 0.7480314960629921
        },
        {
          "duration": 0.11607144791666713,
          "durationTicks": 91,
          "midi": 81,
          "name": "A5",
          "ticks": 13200,
          "time": 16.04081875,
          "velocity": 0.7322834645669292
        },
        {
          "duration": 0.11989797916666589,
          "durationTicks": 94,
          "midi": 85,
          "name": "C#6",
          "ticks": 13200,
          "time": 16.04081875,
          "velocity": 0.7244094488188977
        },
        {
          "duration": 0.11862246874999727,
          "durationTicks": 93,
          "midi": 78,
          "name": "F#5",
          "ticks": 13360,
          "time": 16.244900416666667,
          "velocity": 0.7480314960629921
        },
        {
          "duration": 0.12117348958333451,
          "durationTicks": 95,
          "midi": 74,
          "name": "D5",
          "ticks": 13361,
          "time": 16.246175927083332,
          "velocity": 0.7401574803149606
        },
        {
          "duration": 0.1173469583333322,
          "durationTicks": 92,
          "midi": 81,
          "name": "A5",
          "ticks": 13361,
          "time": 16.246175927083332,
          "velocity": 0.7480314960629921
        },
        {
          "duration": 0.12117348958333451,
          "durationTicks": 95,
          "midi": 78,
          "name": "F#5",
          "ticks": 13679,
          "time": 16.651788239583333,
          "velocity": 0.7322834645669292
        },
        {
          "duration": 0.11862246874999727,
          "durationTicks": 93,
          "midi": 74,
          "name": "D5",
          "ticks": 13679,
          "time": 16.651788239583333,
          "velocity": 0.7322834645669292
        },
        {
          "duration": 0.11607144791666357,
          "durationTicks": 91,
          "midi": 81,
          "name": "A5",
          "ticks": 13681,
          "time": 16.654339260416666,
          "velocity": 0.7244094488188977
        },
        {
          "duration": 0.12117348958333451,
          "durationTicks": 95,
          "midi": 78,
          "name": "F#5",
          "ticks": 13920,
          "time": 16.95918625,
          "velocity": 0.7480314960629921
        },
        {
          "duration": 0.11734695833333575,
          "durationTicks": 92,
          "midi": 74,
          "name": "D5",
          "ticks": 13921,
          "time": 16.960461760416663,
          "velocity": 0.7322834645669292
        },
        {
          "duration": 0.11607144791666713,
          "durationTicks": 91,
          "midi": 81,
          "name": "A5",
          "ticks": 13921,
          "time": 16.960461760416663,
          "velocity": 0.7322834645669292
        },
        {
          "duration": 0.12117348958333451,
          "durationTicks": 95,
          "midi": 78,
          "name": "F#5",
          "ticks": 14159,
          "time": 17.26403323958333,
          "velocity": 0.7480314960629921
        },
        {
          "duration": 0.11734695833333575,
          "durationTicks": 92,
          "midi": 74,
          "name": "D5",
          "ticks": 14160,
          "time": 17.265308749999996,
          "velocity": 0.7322834645669292
        },
        {
          "duration": 0.11989797916666944,
          "durationTicks": 94,
          "midi": 81,
          "name": "A5",
          "ticks": 14160,
          "time": 17.265308749999996,
          "velocity": 0.7165354330708661
        },
        {
          "duration": 0.11607144791666713,
          "durationTicks": 91,
          "midi": 74,
          "name": "D5",
          "ticks": 14400,
          "time": 17.57143125,
          "velocity": 0.7401574803149606
        },
        {
          "duration": 0.11989797916666589,
          "durationTicks": 94,
          "midi": 78,
          "name": "F#5",
          "ticks": 14400,
          "time": 17.57143125,
          "velocity": 0.7480314960629921
        },
        {
          "duration": 0.11607144791666713,
          "durationTicks": 91,
          "midi": 81,
          "name": "A5",
          "ticks": 14400,
          "time": 17.57143125,
          "velocity": 0.7480314960629921
        },
        {
          "duration": 0.11607144791666713,
          "durationTicks": 91,
          "midi": 81,
          "name": "A5",
          "ticks": 14640,
          "time": 17.877553749999997,
          "velocity": 0.7480314960629921
        },
        {
          "duration": 0.11734695833333575,
          "durationTicks": 92,
          "midi": 78,
          "name": "F#5",
          "ticks": 14640,
          "time": 17.877553749999997,
          "velocity": 0.7480314960629921
        },
        {
          "duration": 0.12244899999999959,
          "durationTicks": 96,
          "midi": 74,
          "name": "D5",
          "ticks": 14640,
          "time": 17.877553749999997,
          "velocity": 0.7322834645669292
        },
        {
          "duration": 0.1173469583333322,
          "durationTicks": 92,
          "midi": 78,
          "name": "F#5",
          "ticks": 14880,
          "time": 18.183676249999998,
          "velocity": 0.7322834645669292
        },
        {
          "duration": 0.11989797916666589,
          "durationTicks": 94,
          "midi": 81,
          "name": "A5",
          "ticks": 14880,
          "time": 18.183676249999998,
          "velocity": 0.7322834645669292
        },
        {
          "duration": 0.11862246874999727,
          "durationTicks": 93,
          "midi": 74,
          "name": "D5",
          "ticks": 14881,
          "time": 18.184951760416666,
          "velocity": 0.7401574803149606
        },
        {
          "duration": 0.11989797916666944,
          "durationTicks": 94,
          "midi": 78,
          "name": "F#5",
          "ticks": 15119,
          "time": 18.48852323958333,
          "velocity": 0.7480314960629921
        },
        {
          "duration": 0.1173469583333322,
          "durationTicks": 92,
          "midi": 81,
          "name": "A5",
          "ticks": 15120,
          "time": 18.48979875,
          "velocity": 0.7480314960629921
        },
        {
          "duration": 0.11862246875000082,
          "durationTicks": 93,
          "midi": 74,
          "name": "D5",
          "ticks": 15120,
          "time": 18.48979875,
          "velocity": 0.7165354330708661
        },
        {
          "duration": 0.1173469583333322,
          "durationTicks": 92,
          "midi": 76,
          "name": "E5",
          "ticks": 15280,
          "time": 18.693880416666666,
          "velocity": 0.7165354330708661
        },
        {
          "duration": 0.11862246875000082,
          "durationTicks": 93,
          "midi": 83,
          "name": "B5",
          "ticks": 15280,
          "time": 18.693880416666666,
          "velocity": 0.7244094488188977
        },
        {
          "duration": 0.11989797916666589,
          "durationTicks": 94,
          "midi": 80,
          "name": "G#5",
          "ticks": 15281,
          "time": 18.69515592708333,
          "velocity": 0.7401574803149606
        },
        {
          "duration": 0.11734695833333575,
          "durationTicks": 92,
          "midi": 76,
          "name": "E5",
          "ticks": 15599,
          "time": 19.10076823958333,
          "velocity": 0.7322834645669292
        },
        {
          "duration": 0.12244899999999959,
          "durationTicks": 96,
          "midi": 80,
          "name": "G#5",
          "ticks": 15599,
          "time": 19.10076823958333,
          "velocity": 0.7165354330708661
        },
        {
          "duration": 0.12117348958333451,
          "durationTicks": 95,
          "midi": 83,
          "name": "B5",
          "ticks": 15599,
          "time": 19.10076823958333,
          "velocity": 0.7244094488188977
        },
        {
          "duration": 0.11862246875000082,
          "durationTicks": 93,
          "midi": 76,
          "name": "E5",
          "ticks": 15840,
          "time": 19.408166249999997,
          "velocity": 0.7322834645669292
        },
        {
          "duration": 0.11989797916666589,
          "durationTicks": 94,
          "midi": 80,
          "name": "G#5",
          "ticks": 15840,
          "time": 19.408166249999997,
          "velocity": 0.7165354330708661
        },
        {
          "duration": 0.11989797916666589,
          "durationTicks": 94,
          "midi": 83,
          "name": "B5",
          "ticks": 15840,
          "time": 19.408166249999997,
          "velocity": 0.7244094488188977
        },
        {
          "duration": 0.11989797916666589,
          "durationTicks": 94,
          "midi": 76,
          "name": "E5",
          "ticks": 16080,
          "time": 19.714288749999998,
          "velocity": 0.7401574803149606
        },
        {
          "duration": 0.11989797916666589,
          "durationTicks": 94,
          "midi": 80,
          "name": "G#5",
          "ticks": 16080,
          "time": 19.714288749999998,
          "velocity": 0.7165354330708661
        },
        {
          "duration": 0.11862246875000082,
          "durationTicks": 93,
          "midi": 83,
          "name": "B5",
          "ticks": 16080,
          "time": 19.714288749999998,
          "velocity": 0.7165354330708661
        },
        {
          "duration": 0.11862246875000082,
          "durationTicks": 93,
          "midi": 76,
          "name": "E5",
          "ticks": 16320,
          "time": 20.02041125,
          "velocity": 0.7165354330708661
        },
        {
          "duration": 0.11862246875000082,
          "durationTicks": 93,
          "midi": 83,
          "name": "B5",
          "ticks": 16320,
          "time": 20.02041125,
          "velocity": 0.7322834645669292
        },
        {
          "duration": 0.11607144791666713,
          "durationTicks": 91,
          "midi": 80,
          "name": "G#5",
          "ticks": 16320,
          "time": 20.02041125,
          "velocity": 0.7165354330708661
        },
        {
          "duration": 0.11862246875000082,
          "durationTicks": 93,
          "midi": 76,
          "name": "E5",
          "ticks": 16560,
          "time": 20.32653375,
          "velocity": 0.7401574803149606
        },
        {
          "duration": 0.1173469583333322,
          "durationTicks": 92,
          "midi": 83,
          "name": "B5",
          "ticks": 16560,
          "time": 20.32653375,
          "velocity": 0.7244094488188977
        },
        {
          "duration": 0.11989797916666589,
          "durationTicks": 94,
          "midi": 80,
          "name": "G#5",
          "ticks": 16560,
          "time": 20.32653375,
          "velocity": 0.7322834645669292
        },
        {
          "duration": 0.11862246875000082,
          "durationTicks": 93,
          "midi": 76,
          "name": "E5",
          "ticks": 16800,
          "time": 20.632656249999997,
          "velocity": 0.7322834645669292
        },
        {
          "duration": 0.11862246875000082,
          "durationTicks": 93,
          "midi": 80,
          "name": "G#5",
          "ticks": 16800,
          "time": 20.632656249999997,
          "velocity": 0.7322834645669292
        },
        {
          "duration": 0.11734695833333575,
          "durationTicks": 92,
          "midi": 83,
          "name": "B5",
          "ticks": 16800,
          "time": 20.632656249999997,
          "velocity": 0.7480314960629921
        },
        {
          "duration": 0.11734695833333575,
          "durationTicks": 92,
          "midi": 76,
          "name": "E5",
          "ticks": 17039,
          "time": 20.93750323958333,
          "velocity": 0.7244094488188977
        },
        {
          "duration": 0.11989797916666944,
          "durationTicks": 94,
          "midi": 80,
          "name": "G#5",
          "ticks": 17039,
          "time": 20.93750323958333,
          "velocity": 0.7322834645669292
        },
        {
          "duration": 0.11989797916666944,
          "durationTicks": 94,
          "midi": 83,
          "name": "B5",
          "ticks": 17039,
          "time": 20.93750323958333,
          "velocity": 0.7401574803149606
        },
        {
          "duration": 0.11862246874999727,
          "durationTicks": 93,
          "midi": 73,
          "name": "C#5",
          "ticks": 17200,
          "time": 21.142860416666664,
          "velocity": 0.7401574803149606
        },
        {
          "duration": 0.12117348958333451,
          "durationTicks": 95,
          "midi": 76,
          "name": "E5",
          "ticks": 17200,
          "time": 21.142860416666664,
          "velocity": 0.7401574803149606
        },
        {
          "duration": 0.11607144791666713,
          "durationTicks": 91,
          "midi": 80,
          "name": "G#5",
          "ticks": 17200,
          "time": 21.142860416666664,
          "velocity": 0.7165354330708661
        },
        {
          "duration": 0.11607144791666357,
          "durationTicks": 91,
          "midi": 73,
          "name": "C#5",
          "ticks": 17519,
          "time": 21.549748239583334,
          "velocity": 0.7322834645669292
        },
        {
          "duration": 0.11607144791666357,
          "durationTicks": 91,
          "midi": 76,
          "name": "E5",
          "ticks": 17519,
          "time": 21.549748239583334,
          "velocity": 0.7165354330708661
        },
        {
          "duration": 0.11989797916666589,
          "durationTicks": 94,
          "midi": 80,
          "name": "G#5",
          "ticks": 17519,
          "time": 21.549748239583334,
          "velocity": 0.7322834645669292
        },
        {
          "duration": 0.11607144791666713,
          "durationTicks": 91,
          "midi": 73,
          "name": "C#5",
          "ticks": 17759,
          "time": 21.85587073958333,
          "velocity": 0.7165354330708661
        },
        {
          "duration": 0.1173469583333322,
          "durationTicks": 92,
          "midi": 76,
          "name": "E5",
          "ticks": 17759,
          "time": 21.85587073958333,
          "velocity": 0.7401574803149606
        },
        {
          "duration": 0.11989797916666944,
          "durationTicks": 94,
          "midi": 80,
          "name": "G#5",
          "ticks": 17760,
          "time": 21.857146249999996,
          "velocity": 0.7244094488188977
        },
        {
          "duration": 0.11607144791666713,
          "durationTicks": 91,
          "midi": 73,
          "name": "C#5",
          "ticks": 17999,
          "time": 22.16199323958333,
          "velocity": 0.7322834645669292
        },
        {
          "duration": 0.11989797916666589,
          "durationTicks": 94,
          "midi": 76,
          "name": "E5",
          "ticks": 17999,
          "time": 22.16199323958333,
          "velocity": 0.7480314960629921
        },
        {
          "duration": 0.1173469583333322,
          "durationTicks": 92,
          "midi": 80,
          "name": "G#5",
          "ticks": 17999,
          "time": 22.16199323958333,
          "velocity": 0.7480314960629921
        },
        {
          "duration": 0.11862246875000082,
          "durationTicks": 93,
          "midi": 76,
          "name": "E5",
          "ticks": 18239,
          "time": 22.468115739583332,
          "velocity": 0.7480314960629921
        },
        {
          "duration": 0.11607144791667068,
          "durationTicks": 91,
          "midi": 73,
          "name": "C#5",
          "ticks": 18241,
          "time": 22.470666760416663,
          "velocity": 0.7480314960629921
        },
        {
          "duration": 0.11607144791667068,
          "durationTicks": 91,
          "midi": 80,
          "name": "G#5",
          "ticks": 18241,
          "time": 22.470666760416663,
          "velocity": 0.7480314960629921
        },
        {
          "duration": 0.12117348958333096,
          "durationTicks": 95,
          "midi": 76,
          "name": "E5",
          "ticks": 18479,
          "time": 22.774238239583333,
          "velocity": 0.7401574803149606
        },
        {
          "duration": 0.11607144791666357,
          "durationTicks": 91,
          "midi": 73,
          "name": "C#5",
          "ticks": 18480,
          "time": 22.77551375,
          "velocity": 0.7401574803149606
        },
        {
          "duration": 0.11989797916666589,
          "durationTicks": 94,
          "midi": 80,
          "name": "G#5",
          "ticks": 18480,
          "time": 22.77551375,
          "velocity": 0.7480314960629921
        },
        {
          "duration": 0.11989797916666944,
          "durationTicks": 94,
          "midi": 76,
          "name": "E5",
          "ticks": 18719,
          "time": 23.08036073958333,
          "velocity": 0.7480314960629921
        },
        {
          "duration": 0.1173469583333322,
          "durationTicks": 92,
          "midi": 80,
          "name": "G#5",
          "ticks": 18720,
          "time": 23.08163625,
          "velocity": 0.7480314960629921
        },
        {
          "duration": 0.1173469583333322,
          "durationTicks": 92,
          "midi": 73,
          "name": "C#5",
          "ticks": 18720,
          "time": 23.08163625,
          "velocity": 0.7480314960629921
        },
        {
          "duration": 0.11607144791666713,
          "durationTicks": 91,
          "midi": 73,
          "name": "C#5",
          "ticks": 18959,
          "time": 23.38648323958333,
          "velocity": 0.7401574803149606
        },
        {
          "duration": 0.12117348958333451,
          "durationTicks": 95,
          "midi": 76,
          "name": "E5",
          "ticks": 18960,
          "time": 23.387758749999996,
          "velocity": 0.7401574803149606
        },
        {
          "duration": 0.11989797916666589,
          "durationTicks": 94,
          "midi": 80,
          "name": "G#5",
          "ticks": 18960,
          "time": 23.387758749999996,
          "velocity": 0.7480314960629921
        },
        {
          "duration": 0.11607144791666713,
          "durationTicks": 91,
          "midi": 85,
          "name": "C#6",
          "ticks": 19199,
          "time": 23.692605739583332,
          "velocity": 0.7322834645669292
        },
        {
          "duration": 0.11989797916666589,
          "durationTicks": 94,
          "midi": 81,
          "name": "A5",
          "ticks": 19199,
          "time": 23.692605739583332,
          "velocity": 0.7322834645669292
        },
        {
          "duration": 0.11989797916666589,
          "durationTicks": 94,
          "midi": 78,
          "name": "F#5",
          "ticks": 19199,
          "time": 23.692605739583332,
          "velocity": 0.7322834645669292
        },
        {
          "duration": 0.11607144791666357,
          "durationTicks": 91,
          "midi": 78,
          "name": "F#5",
          "ticks": 19439,
          "time": 23.998728239583333,
          "velocity": 0.7480314960629921
        },
        {
          "duration": 0.11989797916666589,
          "durationTicks": 94,
          "midi": 81,
          "name": "A5",
          "ticks": 19440,
          "time": 24.000003749999998,
          "velocity": 0.7165354330708661
        },
        {
          "duration": 0.11989797916666589,
          "durationTicks": 94,
          "midi": 85,
          "name": "C#6",
          "ticks": 19440,
          "time": 24.000003749999998,
          "velocity": 0.7244094488188977
        },
        {
          "duration": 0.11989797916666589,
          "durationTicks": 94,
          "midi": 81,
          "name": "A5",
          "ticks": 19680,
          "time": 24.30612625,
          "velocity": 0.7165354330708661
        },
        {
          "duration": 0.11607144791666357,
          "durationTicks": 91,
          "midi": 85,
          "name": "C#6",
          "ticks": 19680,
          "time": 24.30612625,
          "velocity": 0.7480314960629921
        },
        {
          "duration": 0.12117348958333096,
          "durationTicks": 95,
          "midi": 78,
          "name": "F#5",
          "ticks": 19680,
          "time": 24.30612625,
          "velocity": 0.7401574803149606
        },
        {
          "duration": 0.1173469583333322,
          "durationTicks": 92,
          "midi": 85,
          "name": "C#6",
          "ticks": 19919,
          "time": 24.61097323958333,
          "velocity": 0.7480314960629921
        },
        {
          "duration": 0.11989797916666589,
          "durationTicks": 94,
          "midi": 78,
          "name": "F#5",
          "ticks": 19919,
          "time": 24.61097323958333,
          "velocity": 0.7244094488188977
        },
        {
          "duration": 0.12117348958333451,
          "durationTicks": 95,
          "midi": 81,
          "name": "A5",
          "ticks": 19919,
          "time": 24.61097323958333,
          "velocity": 0.7480314960629921
        },
        {
          "duration": 0.1173469583333322,
          "durationTicks": 92,
          "midi": 85,
          "name": "C#6",
          "ticks": 20159,
          "time": 24.91709573958333,
          "velocity": 0.7244094488188977
        },
        {
          "duration": 0.11989797916666589,
          "durationTicks": 94,
          "midi": 78,
          "name": "F#5",
          "ticks": 20159,
          "time": 24.91709573958333,
          "velocity": 0.7401574803149606
        },
        {
          "duration": 0.12117348958333096,
          "durationTicks": 95,
          "midi": 81,
          "name": "A5",
          "ticks": 20159,
          "time": 24.91709573958333,
          "velocity": 0.7480314960629921
        },
        {
          "duration": 0.11607144791666357,
          "durationTicks": 91,
          "midi": 78,
          "name": "F#5",
          "ticks": 20399,
          "time": 25.223218239583332,
          "velocity": 0.7244094488188977
        },
        {
          "duration": 0.1173469583333322,
          "durationTicks": 92,
          "midi": 81,
          "name": "A5",
          "ticks": 20399,
          "time": 25.223218239583332,
          "velocity": 0.7165354330708661
        },
        {
          "duration": 0.11862246875000082,
          "durationTicks": 93,
          "midi": 85,
          "name": "C#6",
          "ticks": 20399,
          "time": 25.223218239583332,
          "velocity": 0.7401574803149606
        },
        {
          "duration": 0.12117348958333096,
          "durationTicks": 95,
          "midi": 78,
          "name": "F#5",
          "ticks": 20639,
          "time": 25.529340739583333,
          "velocity": 0.7165354330708661
        },
        {
          "duration": 0.12244899999999603,
          "durationTicks": 96,
          "midi": 81,
          "name": "A5",
          "ticks": 20639,
          "time": 25.529340739583333,
          "velocity": 0.7480314960629921
        },
        {
          "duration": 0.11862246875000082,
          "durationTicks": 93,
          "midi": 85,
          "name": "C#6",
          "ticks": 20639,
          "time": 25.529340739583333,
          "velocity": 0.7401574803149606
        },
        {
          "duration": 0.1173469583333322,
          "durationTicks": 92,
          "midi": 78,
          "name": "F#5",
          "ticks": 20880,
          "time": 25.83673875,
          "velocity": 0.7480314960629921
        },
        {
          "duration": 0.11989797916666589,
          "durationTicks": 94,
          "midi": 85,
          "name": "C#6",
          "ticks": 20880,
          "time": 25.83673875,
          "velocity": 0.7244094488188977
        },
        {
          "duration": 0.1173469583333322,
          "durationTicks": 92,
          "midi": 81,
          "name": "A5",
          "ticks": 20880,
          "time": 25.83673875,
          "velocity": 0.7322834645669292
        },
        {
          "duration": 0.11989797916666589,
          "durationTicks": 94,
          "midi": 78,
          "name": "F#5",
          "ticks": 21039,
          "time": 26.039544906249997,
          "velocity": 0.7480314960629921
        },
        {
          "duration": 0.12244899999999959,
          "durationTicks": 96,
          "midi": 74,
          "name": "D5",
          "ticks": 21039,
          "time": 26.039544906249997,
          "velocity": 0.7401574803149606
        },
        {
          "duration": 0.11989797916666589,
          "durationTicks": 94,
          "midi": 81,
          "name": "A5",
          "ticks": 21039,
          "time": 26.039544906249997,
          "velocity": 0.7480314960629921
        },
        {
          "duration": 0.11607144791666713,
          "durationTicks": 91,
          "midi": 81,
          "name": "A5",
          "ticks": 21359,
          "time": 26.44770823958333,
          "velocity": 0.7244094488188977
        },
        {
          "duration": 0.12117348958333096,
          "durationTicks": 95,
          "midi": 78,
          "name": "F#5",
          "ticks": 21360,
          "time": 26.448983749999996,
          "velocity": 0.7322834645669292
        },
        {
          "duration": 0.11862246875000082,
          "durationTicks": 93,
          "midi": 74,
          "name": "D5",
          "ticks": 21360,
          "time": 26.448983749999996,
          "velocity": 0.7322834645669292
        },
        {
          "duration": 0.11734695833332864,
          "durationTicks": 92,
          "midi": 74,
          "name": "D5",
          "ticks": 21599,
          "time": 26.753830739583332,
          "velocity": 0.7322834645669292
        },
        {
          "duration": 0.12244900000000314,
          "durationTicks": 96,
          "midi": 78,
          "name": "F#5",
          "ticks": 21600,
          "time": 26.755106249999997,
          "velocity": 0.7480314960629921
        },
        {
          "duration": 0.11607144791666357,
          "durationTicks": 91,
          "midi": 81,
          "name": "A5",
          "ticks": 21600,
          "time": 26.755106249999997,
          "velocity": 0.7322834645669292
        },
        {
          "duration": 0.11989797916666589,
          "durationTicks": 94,
          "midi": 81,
          "name": "A5",
          "ticks": 21839,
          "time": 27.059953239583333,
          "velocity": 0.7165354330708661
        },
        {
          "duration": 0.11862246875000082,
          "durationTicks": 93,
          "midi": 74,
          "name": "D5",
          "ticks": 21839,
          "time": 27.059953239583333,
          "velocity": 0.7322834645669292
        },
        {
          "duration": 0.12244899999999603,
          "durationTicks": 96,
          "midi": 78,
          "name": "F#5",
          "ticks": 21839,
          "time": 27.059953239583333,
          "velocity": 0.7480314960629921
        },
        {
          "duration": 0.11607144791666713,
          "durationTicks": 91,
          "midi": 74,
          "name": "D5",
          "ticks": 22079,
          "time": 27.36607573958333,
          "velocity": 0.7401574803149606
        },
        {
          "duration": 0.12117348958333451,
          "durationTicks": 95,
          "midi": 78,
          "name": "F#5",
          "ticks": 22079,
          "time": 27.36607573958333,
          "velocity": 0.7480314960629921
        },
        {
          "duration": 0.1173469583333322,
          "durationTicks": 92,
          "midi": 81,
          "name": "A5",
          "ticks": 22079,
          "time": 27.36607573958333,
          "velocity": 0.7480314960629921
        },
        {
          "duration": 0.1173469583333322,
          "durationTicks": 92,
          "midi": 81,
          "name": "A5",
          "ticks": 22319,
          "time": 27.67219823958333,
          "velocity": 0.7480314960629921
        },
        {
          "duration": 0.12244899999999959,
          "durationTicks": 96,
          "midi": 74,
          "name": "D5",
          "ticks": 22319,
          "time": 27.67219823958333,
          "velocity": 0.7322834645669292
        },
        {
          "duration": 0.11734695833333575,
          "durationTicks": 92,
          "midi": 78,
          "name": "F#5",
          "ticks": 22321,
          "time": 27.67474926041666,
          "velocity": 0.7480314960629921
        },
        {
          "duration": 0.12117348958333096,
          "durationTicks": 95,
          "midi": 74,
          "name": "D5",
          "ticks": 22559,
          "time": 27.97832073958333,
          "velocity": 0.7401574803149606
        },
        {
          "duration": 0.12117348958333096,
          "durationTicks": 95,
          "midi": 81,
          "name": "A5",
          "ticks": 22559,
          "time": 27.97832073958333,
          "velocity": 0.7322834645669292
        },
        {
          "duration": 0.11862246875000082,
          "durationTicks": 93,
          "midi": 78,
          "name": "F#5",
          "ticks": 22561,
          "time": 27.98087176041666,
          "velocity": 0.7322834645669292
        },
        {
          "duration": 0.11989797916666589,
          "durationTicks": 94,
          "midi": 78,
          "name": "F#5",
          "ticks": 22800,
          "time": 28.285718749999997,
          "velocity": 0.7480314960629921
        },
        {
          "duration": 0.11734695833333575,
          "durationTicks": 92,
          "midi": 81,
          "name": "A5",
          "ticks": 22800,
          "time": 28.285718749999997,
          "velocity": 0.7480314960629921
        },
        {
          "duration": 0.11862246875000082,
          "durationTicks": 93,
          "midi": 74,
          "name": "D5",
          "ticks": 22800,
          "time": 28.285718749999997,
          "velocity": 0.7165354330708661
        },
        {
          "duration": 0.11862246875000082,
          "durationTicks": 93,
          "midi": 76,
          "name": "E5",
          "ticks": 22959,
          "time": 28.488524906249996,
          "velocity": 0.7165354330708661
        },
        {
          "duration": 0.11989797916666589,
          "durationTicks": 94,
          "midi": 83,
          "name": "B5",
          "ticks": 22959,
          "time": 28.488524906249996,
          "velocity": 0.7244094488188977
        },
        {
          "duration": 0.12117348958333451,
          "durationTicks": 95,
          "midi": 80,
          "name": "G#5",
          "ticks": 22959,
          "time": 28.488524906249996,
          "velocity": 0.7401574803149606
        },
        {
          "duration": 0.1173469583333322,
          "durationTicks": 92,
          "midi": 76,
          "name": "E5",
          "ticks": 23279,
          "time": 28.89668823958333,
          "velocity": 0.7322834645669292
        },
        {
          "duration": 0.12117348958333451,
          "durationTicks": 95,
          "midi": 80,
          "name": "G#5",
          "ticks": 23280,
          "time": 28.897963749999995,
          "velocity": 0.7165354330708661
        },
        {
          "duration": 0.11862246875000082,
          "durationTicks": 93,
          "midi": 83,
          "name": "B5",
          "ticks": 23280,
          "time": 28.897963749999995,
          "velocity": 0.7244094488188977
        },
        {
          "duration": 0.11862246875000082,
          "durationTicks": 93,
          "midi": 80,
          "name": "G#5",
          "ticks": 23519,
          "time": 29.20281073958333,
          "velocity": 0.7165354330708661
        },
        {
          "duration": 0.11862246875000082,
          "durationTicks": 93,
          "midi": 83,
          "name": "B5",
          "ticks": 23520,
          "time": 29.204086249999996,
          "velocity": 0.7244094488188977
        },
        {
          "duration": 0.11862246875000082,
          "durationTicks": 93,
          "midi": 76,
          "name": "E5",
          "ticks": 23520,
          "time": 29.204086249999996,
          "velocity": 0.7322834645669292
        },
        {
          "duration": 0.11989797916666589,
          "durationTicks": 94,
          "midi": 76,
          "name": "E5",
          "ticks": 23759,
          "time": 29.50893323958333,
          "velocity": 0.7401574803149606
        },
        {
          "duration": 0.11989797916666589,
          "durationTicks": 94,
          "midi": 80,
          "name": "G#5",
          "ticks": 23759,
          "time": 29.50893323958333,
          "velocity": 0.7165354330708661
        },
        {
          "duration": 0.11862246875000082,
          "durationTicks": 93,
          "midi": 83,
          "name": "B5",
          "ticks": 23759,
          "time": 29.50893323958333,
          "velocity": 0.7165354330708661
        },
        {
          "duration": 0.11607144791666357,
          "durationTicks": 91,
          "midi": 80,
          "name": "G#5",
          "ticks": 23999,
          "time": 29.815055739583332,
          "velocity": 0.7165354330708661
        },
        {
          "duration": 0.11989797916666589,
          "durationTicks": 94,
          "midi": 76,
          "name": "E5",
          "ticks": 24000,
          "time": 29.816331249999998,
          "velocity": 0.7165354330708661
        },
        {
          "duration": 0.11989797916666589,
          "durationTicks": 94,
          "midi": 83,
          "name": "B5",
          "ticks": 24000,
          "time": 29.816331249999998,
          "velocity": 0.7322834645669292
        },
        {
          "duration": 0.1173469583333322,
          "durationTicks": 92,
          "midi": 83,
          "name": "B5",
          "ticks": 24239,
          "time": 30.12117823958333,
          "velocity": 0.7244094488188977
        },
        {
          "duration": 0.11989797916666944,
          "durationTicks": 94,
          "midi": 76,
          "name": "E5",
          "ticks": 24239,
          "time": 30.12117823958333,
          "velocity": 0.7401574803149606
        },
        {
          "duration": 0.11989797916666944,
          "durationTicks": 94,
          "midi": 80,
          "name": "G#5",
          "ticks": 24239,
          "time": 30.12117823958333,
          "velocity": 0.7322834645669292
        },
        {
          "duration": 0.11989797916666589,
          "durationTicks": 94,
          "midi": 76,
          "name": "E5",
          "ticks": 24479,
          "time": 30.42730073958333,
          "velocity": 0.7322834645669292
        },
        {
          "duration": 0.1173469583333322,
          "durationTicks": 92,
          "midi": 83,
          "name": "B5",
          "ticks": 24479,
          "time": 30.42730073958333,
          "velocity": 0.7480314960629921
        },
        {
          "duration": 0.11989797916666589,
          "durationTicks": 94,
          "midi": 80,
          "name": "G#5",
          "ticks": 24479,
          "time": 30.42730073958333,
          "velocity": 0.7322834645669292
        },
        {
          "duration": 0.1173469583333322,
          "durationTicks": 92,
          "midi": 76,
          "name": "E5",
          "ticks": 24719,
          "time": 30.73342323958333,
          "velocity": 0.7244094488188977
        },
        {
          "duration": 0.11989797916666589,
          "durationTicks": 94,
          "midi": 80,
          "name": "G#5",
          "ticks": 24719,
          "time": 30.73342323958333,
          "velocity": 0.7322834645669292
        },
        {
          "duration": 0.11734695833333575,
          "durationTicks": 92,
          "midi": 83,
          "name": "B5",
          "ticks": 24721,
          "time": 30.73597426041666,
          "velocity": 0.7401574803149606
        },
        {
          "duration": 0.1173469583333322,
          "durationTicks": 92,
          "midi": 73,
          "name": "C#5",
          "ticks": 24880,
          "time": 30.938780416666663,
          "velocity": 0.7401574803149606
        },
        {
          "duration": 0.12117348958333451,
          "durationTicks": 95,
          "midi": 76,
          "name": "E5",
          "ticks": 24880,
          "time": 30.938780416666663,
          "velocity": 0.7401574803149606
        },
        {
          "duration": 0.1173469583333322,
          "durationTicks": 92,
          "midi": 80,
          "name": "G#5",
          "ticks": 24880,
          "time": 30.938780416666663,
          "velocity": 0.7165354330708661
        },
        {
          "duration": 0.11607144791666357,
          "durationTicks": 91,
          "midi": 76,
          "name": "E5",
          "ticks": 25199,
          "time": 31.345668239583333,
          "velocity": 0.7165354330708661
        },
        {
          "duration": 0.11607144791666357,
          "durationTicks": 91,
          "midi": 73,
          "name": "C#5",
          "ticks": 25200,
          "time": 31.346943749999998,
          "velocity": 0.7322834645669292
        },
        {
          "duration": 0.11862246875000082,
          "durationTicks": 93,
          "midi": 80,
          "name": "G#5",
          "ticks": 25200,
          "time": 31.346943749999998,
          "velocity": 0.7322834645669292
        },
        {
          "duration": 0.1173469583333322,
          "durationTicks": 92,
          "midi": 76,
          "name": "E5",
          "ticks": 25439,
          "time": 31.65179073958333,
          "velocity": 0.7401574803149606
        },
        {
          "duration": 0.12117348958333451,
          "durationTicks": 95,
          "midi": 80,
          "name": "G#5",
          "ticks": 25439,
          "time": 31.65179073958333,
          "velocity": 0.7244094488188977
        },
        {
          "duration": 0.1173469583333322,
          "durationTicks": 92,
          "midi": 73,
          "name": "C#5",
          "ticks": 25439,
          "time": 31.65179073958333,
          "velocity": 0.7165354330708661
        },
        {
          "duration": 0.11862246875000437,
          "durationTicks": 93,
          "midi": 76,
          "name": "E5",
          "ticks": 25680,
          "time": 31.959188749999996,
          "velocity": 0.7480314960629921
        },
        {
          "duration": 0.11607144791666713,
          "durationTicks": 91,
          "midi": 80,
          "name": "G#5",
          "ticks": 25680,
          "time": 31.959188749999996,
          "velocity": 0.7480314960629921
        },
        {
          "duration": 0.11734695833333575,
          "durationTicks": 92,
          "midi": 73,
          "name": "C#5",
          "ticks": 25680,
          "time": 31.959188749999996,
          "velocity": 0.7322834645669292
        },
        {
          "duration": 0.11862246874999727,
          "durationTicks": 93,
          "midi": 80,
          "name": "G#5",
          "ticks": 25919,
          "time": 32.264035739583335,
          "velocity": 0.7480314960629921
        },
        {
          "duration": 0.11862246874999727,
          "durationTicks": 93,
          "midi": 73,
          "name": "C#5",
          "ticks": 25919,
          "time": 32.264035739583335,
          "velocity": 0.7480314960629921
        },
        {
          "duration": 0.12244899999998893,
          "durationTicks": 96,
          "midi": 76,
          "name": "E5",
          "ticks": 25919,
          "time": 32.264035739583335,
          "velocity": 0.7480314960629921
        },
        {
          "duration": 0.12117348958332741,
          "durationTicks": 95,
          "midi": 76,
          "name": "E5",
          "ticks": 26159,
          "time": 32.570158239583336,
          "velocity": 0.7401574803149606
        },
        {
          "duration": 0.11734695833332864,
          "durationTicks": 92,
          "midi": 73,
          "name": "C#5",
          "ticks": 26159,
          "time": 32.570158239583336,
          "velocity": 0.7401574803149606
        },
        {
          "duration": 0.11862246875000437,
          "durationTicks": 93,
          "midi": 80,
          "name": "G#5",
          "ticks": 26161,
          "time": 32.57270926041666,
          "velocity": 0.7480314960629921
        },
        {
          "duration": 0.11607144791666713,
          "durationTicks": 91,
          "midi": 73,
          "name": "C#5",
          "ticks": 26399,
          "time": 32.87628073958333,
          "velocity": 0.7480314960629921
        },
        {
          "duration": 0.11862246874999727,
          "durationTicks": 93,
          "midi": 80,
          "name": "G#5",
          "ticks": 26399,
          "time": 32.87628073958333,
          "velocity": 0.7480314960629921
        },
        {
          "duration": 0.12244899999999603,
          "durationTicks": 96,
          "midi": 76,
          "name": "E5",
          "ticks": 26399,
          "time": 32.87628073958333,
          "velocity": 0.7480314960629921
        },
        {
          "duration": 0.12117348958332741,
          "durationTicks": 95,
          "midi": 76,
          "name": "E5",
          "ticks": 26640,
          "time": 33.18367875,
          "velocity": 0.7401574803149606
        },
        {
          "duration": 0.11734695833332864,
          "durationTicks": 92,
          "midi": 80,
          "name": "G#5",
          "ticks": 26640,
          "time": 33.18367875,
          "velocity": 0.7480314960629921
        },
        {
          "duration": 0.11607144791666713,
          "durationTicks": 91,
          "midi": 73,
          "name": "C#5",
          "ticks": 26641,
          "time": 33.18495426041666,
          "velocity": 0.7401574803149606
        },
        {
          "duration": 0.11734695833333575,
          "durationTicks": 92,
          "midi": 81,
          "name": "A5",
          "ticks": 26880,
          "time": 33.48980125,
          "velocity": 0.7322834645669292
        },
        {
          "duration": 0.11734695833333575,
          "durationTicks": 92,
          "midi": 78,
          "name": "F#5",
          "ticks": 26880,
          "time": 33.48980125,
          "velocity": 0.7322834645669292
        },
        {
          "duration": 0.11607144791666002,
          "durationTicks": 91,
          "midi": 85,
          "name": "C#6",
          "ticks": 26880,
          "time": 33.48980125,
          "velocity": 0.7322834645669292
        },
        {
          "duration": 0.119897979166673,
          "durationTicks": 94,
          "midi": 81,
          "name": "A5",
          "ticks": 27120,
          "time": 33.79592374999999,
          "velocity": 0.7165354330708661
        },
        {
          "duration": 0.11734695833333575,
          "durationTicks": 92,
          "midi": 78,
          "name": "F#5",
          "ticks": 27120,
          "time": 33.79592374999999,
          "velocity": 0.7480314960629921
        },
        {
          "duration": 0.119897979166673,
          "durationTicks": 94,
          "midi": 85,
          "name": "C#6",
          "ticks": 27120,
          "time": 33.79592374999999,
          "velocity": 0.7244094488188977
        },
        {
          "duration": 0.12117348958333451,
          "durationTicks": 95,
          "midi": 78,
          "name": "F#5",
          "ticks": 27360,
          "time": 34.102046249999994,
          "velocity": 0.7401574803149606
        },
        {
          "duration": 0.11607144791666713,
          "durationTicks": 91,
          "midi": 85,
          "name": "C#6",
          "ticks": 27360,
          "time": 34.102046249999994,
          "velocity": 0.7480314960629921
        },
        {
          "duration": 0.12117348958333451,
          "durationTicks": 95,
          "midi": 81,
          "name": "A5",
          "ticks": 27360,
          "time": 34.102046249999994,
          "velocity": 0.7165354330708661
        },
        {
          "duration": 0.11734695833332864,
          "durationTicks": 92,
          "midi": 85,
          "name": "C#6",
          "ticks": 27599,
          "time": 34.40689323958333,
          "velocity": 0.7480314960629921
        },
        {
          "duration": 0.11989797916666589,
          "durationTicks": 94,
          "midi": 78,
          "name": "F#5",
          "ticks": 27599,
          "time": 34.40689323958333,
          "velocity": 0.7244094488188977
        },
        {
          "duration": 0.12244899999999603,
          "durationTicks": 96,
          "midi": 81,
          "name": "A5",
          "ticks": 27599,
          "time": 34.40689323958333,
          "velocity": 0.7480314960629921
        },
        {
          "duration": 0.11989797916666589,
          "durationTicks": 94,
          "midi": 78,
          "name": "F#5",
          "ticks": 27839,
          "time": 34.713015739583334,
          "velocity": 0.7401574803149606
        },
        {
          "duration": 0.11989797916666589,
          "durationTicks": 94,
          "midi": 81,
          "name": "A5",
          "ticks": 27839,
          "time": 34.713015739583334,
          "velocity": 0.7480314960629921
        },
        {
          "duration": 0.11989797916666589,
          "durationTicks": 94,
          "midi": 85,
          "name": "C#6",
          "ticks": 27839,
          "time": 34.713015739583334,
          "velocity": 0.7244094488188977
        },
        {
          "duration": 0.11734695833333575,
          "durationTicks": 92,
          "midi": 81,
          "name": "A5",
          "ticks": 28079,
          "time": 35.01913823958333,
          "velocity": 0.7165354330708661
        },
        {
          "duration": 0.11607144791666713,
          "durationTicks": 91,
          "midi": 78,
          "name": "F#5",
          "ticks": 28079,
          "time": 35.01913823958333,
          "velocity": 0.7244094488188977
        },
        {
          "duration": 0.11862246875000437,
          "durationTicks": 93,
          "midi": 85,
          "name": "C#6",
          "ticks": 28079,
          "time": 35.01913823958333,
          "velocity": 0.7401574803149606
        },
        {
          "duration": 0.12117348958333451,
          "durationTicks": 95,
          "midi": 78,
          "name": "F#5",
          "ticks": 28319,
          "time": 35.32526073958333,
          "velocity": 0.7165354330708661
        },
        {
          "duration": 0.11734695833333575,
          "durationTicks": 92,
          "midi": 85,
          "name": "C#6",
          "ticks": 28319,
          "time": 35.32526073958333,
          "velocity": 0.7401574803149606
        },
        {
          "duration": 0.12244900000000314,
          "durationTicks": 96,
          "midi": 81,
          "name": "A5",
          "ticks": 28319,
          "time": 35.32526073958333,
          "velocity": 0.7480314960629921
        },
        {
          "duration": 0.11989797916666589,
          "durationTicks": 94,
          "midi": 85,
          "name": "C#6",
          "ticks": 28559,
          "time": 35.63138323958333,
          "velocity": 0.7244094488188977
        },
        {
          "duration": 0.11734695833333575,
          "durationTicks": 92,
          "midi": 78,
          "name": "F#5",
          "ticks": 28560,
          "time": 35.63265875,
          "velocity": 0.7480314960629921
        },
        {
          "duration": 0.11607144791666713,
          "durationTicks": 91,
          "midi": 81,
          "name": "A5",
          "ticks": 28560,
          "time": 35.63265875,
          "velocity": 0.7322834645669292
        },
        {
          "duration": 0.11989797916666589,
          "durationTicks": 94,
          "midi": 78,
          "name": "F#5",
          "ticks": 28720,
          "time": 35.836740416666665,
          "velocity": 0.7480314960629921
        },
        {
          "duration": 0.11734695833332864,
          "durationTicks": 92,
          "midi": 81,
          "name": "A5",
          "ticks": 28720,
          "time": 35.836740416666665,
          "velocity": 0.7480314960629921
        },
        {
          "duration": 0.12117348958333451,
          "durationTicks": 95,
          "midi": 74,
          "name": "D5",
          "ticks": 28721,
          "time": 35.838015927083326,
          "velocity": 0.7401574803149606
        },
        {
          "duration": 0.11607144791666713,
          "durationTicks": 91,
          "midi": 81,
          "name": "A5",
          "ticks": 29039,
          "time": 36.24362823958333,
          "velocity": 0.7244094488188977
        },
        {
          "duration": 0.12117348958332741,
          "durationTicks": 95,
          "midi": 78,
          "name": "F#5",
          "ticks": 29040,
          "time": 36.24490375,
          "velocity": 0.7322834645669292
        },
        {
          "duration": 0.11862246875000437,
          "durationTicks": 93,
          "midi": 74,
          "name": "D5",
          "ticks": 29041,
          "time": 36.24617926041666,
          "velocity": 0.7322834645669292
        },
        {
          "duration": 0.11479593750000561,
          "durationTicks": 90,
          "midi": 81,
          "name": "A5",
          "ticks": 29280,
          "time": 36.55102624999999,
          "velocity": 0.7322834645669292
        },
        {
          "duration": 0.11862246875000437,
          "durationTicks": 93,
          "midi": 74,
          "name": "D5",
          "ticks": 29280,
          "time": 36.55102624999999,
          "velocity": 0.7322834645669292
        },
        {
          "duration": 0.12117348958333451,
          "durationTicks": 95,
          "midi": 78,
          "name": "F#5",
          "ticks": 29280,
          "time": 36.55102624999999,
          "velocity": 0.7480314960629921
        },
        {
          "duration": 0.11989797916666589,
          "durationTicks": 94,
          "midi": 81,
          "name": "A5",
          "ticks": 29520,
          "time": 36.85714874999999,
          "velocity": 0.7165354330708661
        },
        {
          "duration": 0.11734695833333575,
          "durationTicks": 92,
          "midi": 74,
          "name": "D5",
          "ticks": 29521,
          "time": 36.85842426041666,
          "velocity": 0.7322834645669292
        },
        {
          "duration": 0.12117348958333451,
          "durationTicks": 95,
          "midi": 78,
          "name": "F#5",
          "ticks": 29521,
          "time": 36.85842426041666,
          "velocity": 0.7480314960629921
        },
        {
          "duration": 0.11607144791666002,
          "durationTicks": 91,
          "midi": 81,
          "name": "A5",
          "ticks": 29759,
          "time": 37.16199573958333,
          "velocity": 0.7480314960629921
        },
        {
          "duration": 0.11607144791666002,
          "durationTicks": 91,
          "midi": 74,
          "name": "D5",
          "ticks": 29759,
          "time": 37.16199573958333,
          "velocity": 0.7401574803149606
        },
        {
          "duration": 0.12117348958332741,
          "durationTicks": 95,
          "midi": 78,
          "name": "F#5",
          "ticks": 29759,
          "time": 37.16199573958333,
          "velocity": 0.7480314960629921
        },
        {
          "duration": 0.11734695833332864,
          "durationTicks": 92,
          "midi": 78,
          "name": "F#5",
          "ticks": 29999,
          "time": 37.46811823958333,
          "velocity": 0.7480314960629921
        },
        {
          "duration": 0.11734695833333575,
          "durationTicks": 92,
          "midi": 81,
          "name": "A5",
          "ticks": 30000,
          "time": 37.469393749999995,
          "velocity": 0.7480314960629921
        },
        {
          "duration": 0.12117348958333451,
          "durationTicks": 95,
          "midi": 74,
          "name": "D5",
          "ticks": 30001,
          "time": 37.47066926041666,
          "velocity": 0.7322834645669292
        },
        {
          "duration": 0.11862246875000437,
          "durationTicks": 93,
          "midi": 78,
          "name": "F#5",
          "ticks": 30239,
          "time": 37.77424073958333,
          "velocity": 0.7322834645669292
        },
        {
          "duration": 0.11989797916666589,
          "durationTicks": 94,
          "midi": 74,
          "name": "D5",
          "ticks": 30240,
          "time": 37.775516249999995,
          "velocity": 0.7401574803149606
        },
        {
          "duration": 0.12117348958333451,
          "durationTicks": 95,
          "midi": 81,
          "name": "A5",
          "ticks": 30240,
          "time": 37.775516249999995,
          "velocity": 0.7322834645669292
        },
        {
          "duration": 0.11989797916666589,
          "durationTicks": 94,
          "midi": 78,
          "name": "F#5",
          "ticks": 30479,
          "time": 38.08036323958333,
          "velocity": 0.7480314960629921
        },
        {
          "duration": 0.11734695833333575,
          "durationTicks": 92,
          "midi": 74,
          "name": "D5",
          "ticks": 30480,
          "time": 38.081638749999996,
          "velocity": 0.7165354330708661
        },
        {
          "duration": 0.11734695833333575,
          "durationTicks": 92,
          "midi": 81,
          "name": "A5",
          "ticks": 30480,
          "time": 38.081638749999996,
          "velocity": 0.7480314960629921
        },
        {
          "duration": 0.11989797916666589,
          "durationTicks": 94,
          "midi": 80,
          "name": "G#5",
          "ticks": 30639,
          "time": 38.284444906249995,
          "velocity": 0.7401574803149606
        },
        {
          "duration": 0.11862246874999727,
          "durationTicks": 93,
          "midi": 76,
          "name": "E5",
          "ticks": 30639,
          "time": 38.284444906249995,
          "velocity": 0.7165354330708661
        },
        {
          "duration": 0.11989797916666589,
          "durationTicks": 94,
          "midi": 83,
          "name": "B5",
          "ticks": 30639,
          "time": 38.284444906249995,
          "velocity": 0.7244094488188977
        },
        {
          "duration": 0.12117348958333451,
          "durationTicks": 95,
          "midi": 80,
          "name": "G#5",
          "ticks": 30959,
          "time": 38.69260823958333,
          "velocity": 0.7165354330708661
        },
        {
          "duration": 0.11734695833333575,
          "durationTicks": 92,
          "midi": 76,
          "name": "E5",
          "ticks": 30960,
          "time": 38.69388375,
          "velocity": 0.7322834645669292
        },
        {
          "duration": 0.11989797916666589,
          "durationTicks": 94,
          "midi": 83,
          "name": "B5",
          "ticks": 30960,
          "time": 38.69388375,
          "velocity": 0.7244094488188977
        },
        {
          "duration": 0.11862246874999727,
          "durationTicks": 93,
          "midi": 83,
          "name": "B5",
          "ticks": 31200,
          "time": 39.00000625,
          "velocity": 0.7244094488188977
        },
        {
          "duration": 0.11862246874999727,
          "durationTicks": 93,
          "midi": 76,
          "name": "E5",
          "ticks": 31200,
          "time": 39.00000625,
          "velocity": 0.7322834645669292
        },
        {
          "duration": 0.11989797916666589,
          "durationTicks": 94,
          "midi": 80,
          "name": "G#5",
          "ticks": 31200,
          "time": 39.00000625,
          "velocity": 0.7165354330708661
        },
        {
          "duration": 0.119897979166673,
          "durationTicks": 94,
          "midi": 76,
          "name": "E5",
          "ticks": 31440,
          "time": 39.30612874999999,
          "velocity": 0.7401574803149606
        },
        {
          "duration": 0.11734695833333575,
          "durationTicks": 92,
          "midi": 83,
          "name": "B5",
          "ticks": 31440,
          "time": 39.30612874999999,
          "velocity": 0.7165354330708661
        },
        {
          "duration": 0.11989797916666589,
          "durationTicks": 94,
          "midi": 80,
          "name": "G#5",
          "ticks": 31441,
          "time": 39.30740426041666,
          "velocity": 0.7165354330708661
        },
        {
          "duration": 0.11607144791666713,
          "durationTicks": 91,
          "midi": 80,
          "name": "G#5",
          "ticks": 31679,
          "time": 39.61097573958333,
          "velocity": 0.7165354330708661
        },
        {
          "duration": 0.11989797916666589,
          "durationTicks": 94,
          "midi": 76,
          "name": "E5",
          "ticks": 31680,
          "time": 39.61225124999999,
          "velocity": 0.7165354330708661
        },
        {
          "duration": 0.11989797916666589,
          "durationTicks": 94,
          "midi": 83,
          "name": "B5",
          "ticks": 31680,
          "time": 39.61225124999999,
          "velocity": 0.7322834645669292
        },
        {
          "duration": 0.11607144791666713,
          "durationTicks": 91,
          "midi": 83,
          "name": "B5",
          "ticks": 31920,
          "time": 39.91837374999999,
          "velocity": 0.7244094488188977
        },
        {
          "duration": 0.11862246875000437,
          "durationTicks": 93,
          "midi": 80,
          "name": "G#5",
          "ticks": 31920,
          "time": 39.91837374999999,
          "velocity": 0.7322834645669292
        },
        {
          "duration": 0.11862246874999727,
          "durationTicks": 93,
          "midi": 76,
          "name": "E5",
          "ticks": 31921,
          "time": 39.91964926041666,
          "velocity": 0.7401574803149606
        },
        {
          "duration": 0.11862246874999727,
          "durationTicks": 93,
          "midi": 80,
          "name": "G#5",
          "ticks": 32159,
          "time": 40.22322073958333,
          "velocity": 0.7322834645669292
        },
        {
          "duration": 0.11734695833332864,
          "durationTicks": 92,
          "midi": 83,
          "name": "B5",
          "ticks": 32159,
          "time": 40.22322073958333,
          "velocity": 0.7480314960629921
        },
        {
          "duration": 0.11989797916666589,
          "durationTicks": 94,
          "midi": 76,
          "name": "E5",
          "ticks": 32161,
          "time": 40.22577176041666,
          "velocity": 0.7322834645669292
        },
        {
          "duration": 0.11862246875000437,
          "durationTicks": 93,
          "midi": 80,
          "name": "G#5",
          "ticks": 32399,
          "time": 40.529343239583326,
          "velocity": 0.7322834645669292
        },
        {
          "duration": 0.11734695833333575,
          "durationTicks": 92,
          "midi": 83,
          "name": "B5",
          "ticks": 32400,
          "time": 40.530618749999995,
          "velocity": 0.7401574803149606
        },
        {
          "duration": 0.11607144791666713,
          "durationTicks": 91,
          "midi": 76,
          "name": "E5",
          "ticks": 32401,
          "time": 40.531894260416664,
          "velocity": 0.7244094488188977
        },
        {
          "duration": 0.11607144791666713,
          "durationTicks": 91,
          "midi": 80,
          "name": "G#5",
          "ticks": 32559,
          "time": 40.733424906249994,
          "velocity": 0.7165354330708661
        },
        {
          "duration": 0.11862246875000437,
          "durationTicks": 93,
          "midi": 73,
          "name": "C#5",
          "ticks": 32559,
          "time": 40.733424906249994,
          "velocity": 0.7401574803149606
        },
        {
          "duration": 0.12117348958333451,
          "durationTicks": 95,
          "midi": 76,
          "name": "E5",
          "ticks": 32561,
          "time": 40.735975927083324,
          "velocity": 0.7401574803149606
        },
        {
          "duration": 0.11607144791666713,
          "durationTicks": 91,
          "midi": 73,
          "name": "C#5",
          "ticks": 32880,
          "time": 41.14286375,
          "velocity": 0.7322834645669292
        },
        {
          "duration": 0.11607144791666713,
          "durationTicks": 91,
          "midi": 76,
          "name": "E5",
          "ticks": 32880,
          "time": 41.14286375,
          "velocity": 0.7165354330708661
        },
        {
          "duration": 0.11862246874999727,
          "durationTicks": 93,
          "midi": 80,
          "name": "G#5",
          "ticks": 32880,
          "time": 41.14286375,
          "velocity": 0.7322834645669292
        },
        {
          "duration": 0.11862246874999727,
          "durationTicks": 93,
          "midi": 80,
          "name": "G#5",
          "ticks": 33120,
          "time": 41.44898625,
          "velocity": 0.7244094488188977
        },
        {
          "duration": 0.11734695833332864,
          "durationTicks": 92,
          "midi": 76,
          "name": "E5",
          "ticks": 33120,
          "time": 41.44898625,
          "velocity": 0.7401574803149606
        },
        {
          "duration": 0.11734695833332864,
          "durationTicks": 92,
          "midi": 73,
          "name": "C#5",
          "ticks": 33120,
          "time": 41.44898625,
          "velocity": 0.7165354330708661
        },
        {
          "duration": 0.11607144791666002,
          "durationTicks": 91,
          "midi": 80,
          "name": "G#5",
          "ticks": 33360,
          "time": 41.75510875,
          "velocity": 0.7480314960629921
        },
        {
          "duration": 0.11989797916666589,
          "durationTicks": 94,
          "midi": 76,
          "name": "E5",
          "ticks": 33360,
          "time": 41.75510875,
          "velocity": 0.7480314960629921
        },
        {
          "duration": 0.11734695833332864,
          "durationTicks": 92,
          "midi": 73,
          "name": "C#5",
          "ticks": 33360,
          "time": 41.75510875,
          "velocity": 0.7322834645669292
        }
      ]
    },
    {
      "channel": 0,
      "controlChanges": {
        "0": [
          {
            "number": 0,
            "ticks": 489,
            "time": 0.40750000000000003,
            "value": 0
          }
        ],
        "32": [
          {
            "number": 32,
            "ticks": 490,
            "time": 0.4083333333333333,
            "value": 0
          }
        ]
      },
      "pitchBends": [],
      "instrument": {
        "family": "piano",
        "name": "acoustic grand piano",
        "number": 0
      },
      "name": "",
      "notes": []
    },
    {
      "channel": 1,
      "controlChanges": {
        "0": [
          {
            "number": 0,
            "ticks": 1919,
            "time": 1.6517857395833333,
            "value": 0
          },
          {
            "number": 0,
            "ticks": 1920,
            "time": 1.65306125,
            "value": 0
          }
        ],
        "6": [
          {
            "number": 6,
            "ticks": 510,
            "time": 0.42500000000000004,
            "value": 0.015748031496062992
          },
          {
            "number": 6,
            "ticks": 1919,
            "time": 1.6517857395833333,
            "value": 0.015748031496062992
          },
          {
            "number": 6,
            "ticks": 1920,
            "time": 1.65306125,
            "value": 0.015748031496062992
          }
        ],
        "7": [
          {
            "number": 7,
            "ticks": 492,
            "time": 0.41,
            "value": 0.9448818897637795
          },
          {
            "number": 7,
            "ticks": 1919,
            "time": 1.6517857395833333,
            "value": 0.9448818897637795
          },
          {
            "number": 7,
            "ticks": 1920,
            "time": 1.65306125,
            "value": 0.9448818897637795
          }
        ],
        "10": [
          {
            "number": 10,
            "ticks": 493,
            "time": 0.4108333333333334,
            "value": 0.5039370078740157
          },
          {
            "number": 10,
            "ticks": 1919,
            "time": 1.6517857395833333,
            "value": 0.5039370078740157
          },
          {
            "number": 10,
            "ticks": 1920,
            "time": 1.65306125,
            "value": 0.5039370078740157
          }
        ],
        "11": [
          {
            "number": 11,
            "ticks": 494,
            "time": 0.4116666666666666,
            "value": 1
          },
          {
            "number": 11,
            "ticks": 1919,
            "time": 1.6517857395833333,
            "value": 1
          },
          {
            "number": 11,
            "ticks": 1920,
            "time": 1.65306125,
            "value": 1
          }
        ],
        "32": [
          {
            "number": 32,
            "ticks": 1919,
            "time": 1.6517857395833333,
            "value": 0
          },
          {
            "number": 32,
            "ticks": 1920,
            "time": 1.65306125,
            "value": 0
          }
        ],
        "91": [
          {
            "number": 91,
            "ticks": 495,
            "time": 0.41250000000000003,
            "value": 0.4330708661417323
          },
          {
            "number": 91,
            "ticks": 1919,
            "time": 1.6517857395833333,
            "value": 0.4330708661417323
          },
          {
            "number": 91,
            "ticks": 1920,
            "time": 1.65306125,
            "value": 0.4330708661417323
          }
        ],
        "93": [
          {
            "number": 93,
            "ticks": 495,
            "time": 0.41250000000000003,
            "value": 0.07874015748031496
          },
          {
            "number": 93,
            "ticks": 503,
            "time": 0.4191666666666667,
            "value": 0.07874015748031496
          },
          {
            "number": 93,
            "ticks": 1919,
            "time": 1.6517857395833333,
            "value": 0.07874015748031496
          },
          {
            "number": 93,
            "ticks": 1920,
            "time": 1.65306125,
            "value": 0.07874015748031496
          }
        ],
        "100": [
          {
            "number": 100,
            "ticks": 506,
            "time": 0.4216666666666667,
            "value": 0
          },
          {
            "number": 100,
            "ticks": 518,
            "time": 0.43166666666666664,
            "value": 1
          },
          {
            "number": 100,
            "ticks": 628,
            "time": 0.5233333333333333,
            "value": 1
          },
          {
            "number": 100,
            "ticks": 1919,
            "time": 1.6517857395833333,
            "value": 1
          },
          {
            "number": 100,
            "ticks": 1920,
            "time": 1.65306125,
            "value": 1
          }
        ],
        "101": [
          {
            "number": 101,
            "ticks": 502,
            "time": 0.4183333333333334,
            "value": 0
          },
          {
            "number": 101,
            "ticks": 514,
            "time": 0.42833333333333334,
            "value": 1
          },
          {
            "number": 101,
            "ticks": 624,
            "time": 0.52,
            "value": 1
          },
          {
            "number": 101,
            "ticks": 1919,
            "time": 1.6517857395833333,
            "value": 1
          },
          {
            "number": 101,
            "ticks": 1920,
            "time": 1.65306125,
            "value": 1
          }
        ]
      },
      "pitchBends": [],
      "instrument": {
        "family": "bass",
        "name": "synth bass 2",
        "number": 39
      },
      "name": "",
      "notes": [
        {
          "duration": 0.284438822916667,
          "durationTicks": 223,
          "midi": 30,
          "name": "F#1",
          "ticks": 3839,
          "time": 4.100765739583333,
          "velocity": 0.49606299212598426
        },
        {
          "duration": 0.17729594791666692,
          "durationTicks": 139,
          "midi": 42,
          "name": "F#2",
          "ticks": 4081,
          "time": 4.409439260416667,
          "velocity": 0.47244094488188976
        },
        {
          "duration": 0.2818878020833333,
          "durationTicks": 221,
          "midi": 30,
          "name": "F#1",
          "ticks": 4239,
          "time": 4.610969906249999,
          "velocity": 0.4881889763779528
        },
        {
          "duration": 0.07908164583333388,
          "durationTicks": 62,
          "midi": 30,
          "name": "F#1",
          "ticks": 4479,
          "time": 4.917092406249999,
          "velocity": 0.48031496062992124
        },
        {
          "duration": 0.18112247916666746,
          "durationTicks": 142,
          "midi": 42,
          "name": "F#2",
          "ticks": 4559,
          "time": 5.019133239583333,
          "velocity": 0.48031496062992124
        },
        {
          "duration": 0.07780613541666614,
          "durationTicks": 61,
          "midi": 30,
          "name": "F#1",
          "ticks": 4720,
          "time": 5.224490416666666,
          "velocity": 0.4881889763779528
        },
        {
          "duration": 0.2818878020833333,
          "durationTicks": 221,
          "midi": 30,
          "name": "F#1",
          "ticks": 4800,
          "time": 5.3265312499999995,
          "velocity": 0.4881889763779528
        },
        {
          "duration": 0.18239798958333342,
          "durationTicks": 143,
          "midi": 42,
          "name": "F#2",
          "ticks": 5039,
          "time": 5.6313782395833325,
          "velocity": 0.49606299212598426
        },
        {
          "duration": 0.2818878020833333,
          "durationTicks": 221,
          "midi": 30,
          "name": "F#1",
          "ticks": 5201,
          "time": 5.8380109270833325,
          "velocity": 0.4881889763779528
        },
        {
          "duration": 0.07653062500000019,
          "durationTicks": 60,
          "midi": 30,
          "name": "F#1",
          "ticks": 5441,
          "time": 6.144133427083332,
          "velocity": 0.4881889763779528
        },
        {
          "duration": 0.18112247916666568,
          "durationTicks": 142,
          "midi": 42,
          "name": "F#2",
          "ticks": 5519,
          "time": 6.243623239583333,
          "velocity": 0.48031496062992124
        },
        {
          "duration": 0.07780613541666703,
          "durationTicks": 61,
          "midi": 30,
          "name": "F#1",
          "ticks": 5680,
          "time": 6.448980416666666,
          "velocity": 0.48031496062992124
        },
        {
          "duration": 0.28061229166666646,
          "durationTicks": 220,
          "midi": 26,
          "name": "D1",
          "ticks": 5760,
          "time": 6.55102125,
          "velocity": 0.4881889763779528
        },
        {
          "duration": 0.18112247916666568,
          "durationTicks": 142,
          "midi": 38,
          "name": "D2",
          "ticks": 5999,
          "time": 6.855868239583333,
          "velocity": 0.4881889763779528
        },
        {
          "duration": 0.2818878020833324,
          "durationTicks": 221,
          "midi": 26,
          "name": "D1",
          "ticks": 6160,
          "time": 7.061225416666667,
          "velocity": 0.5039370078740157
        },
        {
          "duration": 0.07780613541666614,
          "durationTicks": 61,
          "midi": 26,
          "name": "D1",
          "ticks": 6400,
          "time": 7.367347916666667,
          "velocity": 0.4881889763779528
        },
        {
          "duration": 0.18112247916666568,
          "durationTicks": 142,
          "midi": 38,
          "name": "D2",
          "ticks": 6480,
          "time": 7.469388749999999,
          "velocity": 0.4881889763779528
        },
        {
          "duration": 0.07780613541666703,
          "durationTicks": 61,
          "midi": 26,
          "name": "D1",
          "ticks": 6641,
          "time": 7.6747459270833325,
          "velocity": 0.47244094488188976
        },
        {
          "duration": 0.2818878020833342,
          "durationTicks": 221,
          "midi": 26,
          "name": "D1",
          "ticks": 6720,
          "time": 7.775511249999999,
          "velocity": 0.4881889763779528
        },
        {
          "duration": 0.17984696874999884,
          "durationTicks": 141,
          "midi": 38,
          "name": "D2",
          "ticks": 6959,
          "time": 8.080358239583333,
          "velocity": 0.47244094488188976
        },
        {
          "duration": 0.2831633124999975,
          "durationTicks": 222,
          "midi": 26,
          "name": "D1",
          "ticks": 7119,
          "time": 8.28443990625,
          "velocity": 0.5039370078740157
        },
        {
          "duration": 0.07780613541666703,
          "durationTicks": 61,
          "midi": 26,
          "name": "D1",
          "ticks": 7360,
          "time": 8.591837916666666,
          "velocity": 0.4881889763779528
        },
        {
          "duration": 0.18112247916666568,
          "durationTicks": 142,
          "midi": 38,
          "name": "D2",
          "ticks": 7440,
          "time": 8.69387875,
          "velocity": 0.5039370078740157
        },
        {
          "duration": 0.07780613541666703,
          "durationTicks": 61,
          "midi": 26,
          "name": "D1",
          "ticks": 7601,
          "time": 8.899235927083332,
          "velocity": 0.4881889763779528
        },
        {
          "duration": 0.28316331250000104,
          "durationTicks": 222,
          "midi": 28,
          "name": "E1",
          "ticks": 7679,
          "time": 8.998725739583332,
          "velocity": 0.4881889763779528
        },
        {
          "duration": 0.18112247916666568,
          "durationTicks": 142,
          "midi": 40,
          "name": "E2",
          "ticks": 7920,
          "time": 9.30612375,
          "velocity": 0.5039370078740157
        },
        {
          "duration": 0.28061229166666557,
          "durationTicks": 220,
          "midi": 28,
          "name": "E1",
          "ticks": 8081,
          "time": 9.511480927083333,
          "velocity": 0.49606299212598426
        },
        {
          "duration": 0.07908164583333388,
          "durationTicks": 62,
          "midi": 28,
          "name": "E1",
          "ticks": 8320,
          "time": 9.816327916666665,
          "velocity": 0.4881889763779528
        },
        {
          "duration": 0.18112247916666568,
          "durationTicks": 142,
          "midi": 40,
          "name": "E2",
          "ticks": 8400,
          "time": 9.918368749999999,
          "velocity": 0.5039370078740157
        },
        {
          "duration": 0.07525511458333334,
          "durationTicks": 59,
          "midi": 28,
          "name": "E1",
          "ticks": 8561,
          "time": 10.123725927083333,
          "velocity": 0.4881889763779528
        },
        {
          "duration": 0.2844388229166661,
          "durationTicks": 223,
          "midi": 28,
          "name": "E1",
          "ticks": 8639,
          "time": 10.223215739583333,
          "velocity": 0.48031496062992124
        },
        {
          "duration": 0.17984696874999884,
          "durationTicks": 141,
          "midi": 40,
          "name": "E2",
          "ticks": 8880,
          "time": 10.530613749999999,
          "velocity": 0.4881889763779528
        },
        {
          "duration": 0.28316331249999926,
          "durationTicks": 222,
          "midi": 28,
          "name": "E1",
          "ticks": 9040,
          "time": 10.734695416666666,
          "velocity": 0.48031496062992124
        },
        {
          "duration": 0.07525511458333334,
          "durationTicks": 59,
          "midi": 28,
          "name": "E1",
          "ticks": 9281,
          "time": 11.042093427083332,
          "velocity": 0.48031496062992124
        },
        {
          "duration": 0.1823979895833343,
          "durationTicks": 143,
          "midi": 40,
          "name": "E2",
          "ticks": 9359,
          "time": 11.141583239583332,
          "velocity": 0.48031496062992124
        },
        {
          "duration": 0.0790816458333321,
          "durationTicks": 62,
          "midi": 28,
          "name": "E1",
          "ticks": 9520,
          "time": 11.346940416666666,
          "velocity": 0.4881889763779528
        },
        {
          "duration": 0.2818878020833324,
          "durationTicks": 221,
          "midi": 25,
          "name": "C#1",
          "ticks": 9600,
          "time": 11.44898125,
          "velocity": 0.4881889763779528
        },
        {
          "duration": 0.17857145833333377,
          "durationTicks": 140,
          "midi": 37,
          "name": "C#2",
          "ticks": 9840,
          "time": 11.755103749999998,
          "velocity": 0.4881889763779528
        },
        {
          "duration": 0.28316331249999926,
          "durationTicks": 222,
          "midi": 25,
          "name": "C#1",
          "ticks": 9999,
          "time": 11.957909906249998,
          "velocity": 0.5039370078740157
        },
        {
          "duration": 0.07908164583333388,
          "durationTicks": 62,
          "midi": 25,
          "name": "C#1",
          "ticks": 10240,
          "time": 12.265307916666664,
          "velocity": 0.48031496062992124
        },
        {
          "duration": 0.18112247916666746,
          "durationTicks": 142,
          "midi": 37,
          "name": "C#2",
          "ticks": 10320,
          "time": 12.367348749999998,
          "velocity": 0.49606299212598426
        },
        {
          "duration": 0.07653062500000019,
          "durationTicks": 60,
          "midi": 25,
          "name": "C#1",
          "ticks": 10481,
          "time": 12.572705927083332,
          "velocity": 0.49606299212598426
        },
        {
          "duration": 0.28316331249999926,
          "durationTicks": 222,
          "midi": 25,
          "name": "C#1",
          "ticks": 10560,
          "time": 12.673471249999999,
          "velocity": 0.48031496062992124
        },
        {
          "duration": 0.2818878020833342,
          "durationTicks": 221,
          "midi": 37,
          "name": "C#2",
          "ticks": 10799,
          "time": 12.97831823958333,
          "velocity": 0.47244094488188976
        },
        {
          "duration": 0.28316331250000104,
          "durationTicks": 222,
          "midi": 25,
          "name": "C#1",
          "ticks": 11039,
          "time": 13.284440739583331,
          "velocity": 0.4881889763779528
        },
        {
          "duration": 0.2818878020833324,
          "durationTicks": 221,
          "midi": 37,
          "name": "C#2",
          "ticks": 11280,
          "time": 13.591838749999999,
          "velocity": 0.49606299212598426
        },
        {
          "duration": 0.2844388229166661,
          "durationTicks": 223,
          "midi": 30,
          "name": "F#1",
          "ticks": 11519,
          "time": 13.896685739583331,
          "velocity": 0.49606299212598426
        },
        {
          "duration": 0.17729594791666692,
          "durationTicks": 139,
          "midi": 42,
          "name": "F#2",
          "ticks": 11761,
          "time": 14.205359260416666,
          "velocity": 0.47244094488188976
        },
        {
          "duration": 0.2818878020833342,
          "durationTicks": 221,
          "midi": 30,
          "name": "F#1",
          "ticks": 11919,
          "time": 14.406889906249999,
          "velocity": 0.4881889763779528
        },
        {
          "duration": 0.07908164583333388,
          "durationTicks": 62,
          "midi": 30,
          "name": "F#1",
          "ticks": 12159,
          "time": 14.713012406249998,
          "velocity": 0.48031496062992124
        },
        {
          "duration": 0.18112247916666746,
          "durationTicks": 142,
          "midi": 42,
          "name": "F#2",
          "ticks": 12239,
          "time": 14.81505323958333,
          "velocity": 0.48031496062992124
        },
        {
          "duration": 0.07780613541666881,
          "durationTicks": 61,
          "midi": 30,
          "name": "F#1",
          "ticks": 12400,
          "time": 15.020410416666664,
          "velocity": 0.4881889763779528
        },
        {
          "duration": 0.28316331250000104,
          "durationTicks": 222,
          "midi": 30,
          "name": "F#1",
          "ticks": 12479,
          "time": 15.12117573958333,
          "velocity": 0.4881889763779528
        },
        {
          "duration": 0.1823979895833343,
          "durationTicks": 143,
          "midi": 42,
          "name": "F#2",
          "ticks": 12719,
          "time": 15.427298239583331,
          "velocity": 0.49606299212598426
        },
        {
          "duration": 0.2818878020833342,
          "durationTicks": 221,
          "midi": 30,
          "name": "F#1",
          "ticks": 12881,
          "time": 15.633930927083332,
          "velocity": 0.4881889763779528
        },
        {
          "duration": 0.07653062500000019,
          "durationTicks": 60,
          "midi": 30,
          "name": "F#1",
          "ticks": 13121,
          "time": 15.940053427083331,
          "velocity": 0.4881889763779528
        },
        {
          "duration": 0.17984696874999884,
          "durationTicks": 141,
          "midi": 42,
          "name": "F#2",
          "ticks": 13200,
          "time": 16.04081875,
          "velocity": 0.48031496062992124
        },
        {
          "duration": 0.07780613541666526,
          "durationTicks": 61,
          "midi": 30,
          "name": "F#1",
          "ticks": 13360,
          "time": 16.244900416666667,
          "velocity": 0.48031496062992124
        },
        {
          "duration": 0.2818878020833324,
          "durationTicks": 221,
          "midi": 26,
          "name": "D1",
          "ticks": 13439,
          "time": 16.345665739583332,
          "velocity": 0.4881889763779528
        },
        {
          "duration": 0.18112247916666746,
          "durationTicks": 142,
          "midi": 38,
          "name": "D2",
          "ticks": 13679,
          "time": 16.651788239583333,
          "velocity": 0.4881889763779528
        },
        {
          "duration": 0.2818878020833324,
          "durationTicks": 221,
          "midi": 26,
          "name": "D1",
          "ticks": 13840,
          "time": 16.857145416666665,
          "velocity": 0.5039370078740157
        },
        {
          "duration": 0.07780613541667236,
          "durationTicks": 61,
          "midi": 26,
          "name": "D1",
          "ticks": 14080,
          "time": 17.163267916666662,
          "velocity": 0.4881889763779528
        },
        {
          "duration": 0.18112247916666746,
          "durationTicks": 142,
          "midi": 38,
          "name": "D2",
          "ticks": 14160,
          "time": 17.265308749999996,
          "velocity": 0.4881889763779528
        },
        {
          "duration": 0.07780613541666526,
          "durationTicks": 61,
          "midi": 26,
          "name": "D1",
          "ticks": 14321,
          "time": 17.47066592708333,
          "velocity": 0.47244094488188976
        },
        {
          "duration": 0.2818878020833324,
          "durationTicks": 221,
          "midi": 26,
          "name": "D1",
          "ticks": 14400,
          "time": 17.57143125,
          "velocity": 0.4881889763779528
        },
        {
          "duration": 0.17857145833333377,
          "durationTicks": 140,
          "midi": 38,
          "name": "D2",
          "ticks": 14640,
          "time": 17.877553749999997,
          "velocity": 0.47244094488188976
        },
        {
          "duration": 0.2831633124999975,
          "durationTicks": 222,
          "midi": 26,
          "name": "D1",
          "ticks": 14799,
          "time": 18.08035990625,
          "velocity": 0.5039370078740157
        },
        {
          "duration": 0.07780613541666526,
          "durationTicks": 61,
          "midi": 26,
          "name": "D1",
          "ticks": 15040,
          "time": 18.387757916666665,
          "velocity": 0.4881889763779528
        },
        {
          "duration": 0.18112247916666746,
          "durationTicks": 142,
          "midi": 38,
          "name": "D2",
          "ticks": 15120,
          "time": 18.48979875,
          "velocity": 0.5039370078740157
        },
        {
          "duration": 0.07780613541666526,
          "durationTicks": 61,
          "midi": 26,
          "name": "D1",
          "ticks": 15281,
          "time": 18.69515592708333,
          "velocity": 0.4881889763779528
        },
        {
          "duration": 0.2818878020833324,
          "durationTicks": 221,
          "midi": 28,
          "name": "E1",
          "ticks": 15360,
          "time": 18.79592125,
          "velocity": 0.4881889763779528
        },
        {
          "duration": 0.18239798958333253,
          "durationTicks": 143,
          "midi": 40,
          "name": "E2",
          "ticks": 15599,
          "time": 19.10076823958333,
          "velocity": 0.5039370078740157
        },
        {
          "duration": 0.2806122916666638,
          "durationTicks": 220,
          "midi": 28,
          "name": "E1",
          "ticks": 15761,
          "time": 19.307400927083332,
          "velocity": 0.49606299212598426
        },
        {
          "duration": 0.07908164583333388,
          "durationTicks": 62,
          "midi": 28,
          "name": "E1",
          "ticks": 16000,
          "time": 19.612247916666664,
          "velocity": 0.4881889763779528
        },
        {
          "duration": 0.18112247916666746,
          "durationTicks": 142,
          "midi": 40,
          "name": "E2",
          "ticks": 16080,
          "time": 19.714288749999998,
          "velocity": 0.5039370078740157
        },
        {
          "duration": 0.07525511458333511,
          "durationTicks": 59,
          "midi": 28,
          "name": "E1",
          "ticks": 16241,
          "time": 19.91964592708333,
          "velocity": 0.4881889763779528
        },
        {
          "duration": 0.2844388229166661,
          "durationTicks": 223,
          "midi": 28,
          "name": "E1",
          "ticks": 16319,
          "time": 20.01913573958333,
          "velocity": 0.48031496062992124
        },
        {
          "duration": 0.17984696874999884,
          "durationTicks": 141,
          "midi": 40,
          "name": "E2",
          "ticks": 16560,
          "time": 20.32653375,
          "velocity": 0.4881889763779528
        },
        {
          "duration": 0.28316331250000104,
          "durationTicks": 222,
          "midi": 28,
          "name": "E1",
          "ticks": 16720,
          "time": 20.530615416666663,
          "velocity": 0.48031496062992124
        },
        {
          "duration": 0.07525511458333156,
          "durationTicks": 59,
          "midi": 28,
          "name": "E1",
          "ticks": 16961,
          "time": 20.838013427083332,
          "velocity": 0.48031496062992124
        },
        {
          "duration": 0.18239798958333608,
          "durationTicks": 143,
          "midi": 40,
          "name": "E2",
          "ticks": 17039,
          "time": 20.93750323958333,
          "velocity": 0.48031496062992124
        },
        {
          "duration": 0.07908164583333388,
          "durationTicks": 62,
          "midi": 28,
          "name": "E1",
          "ticks": 17200,
          "time": 21.142860416666664,
          "velocity": 0.4881889763779528
        },
        {
          "duration": 0.28061229166666735,
          "durationTicks": 220,
          "midi": 25,
          "name": "C#1",
          "ticks": 17281,
          "time": 21.246176760416663,
          "velocity": 0.4881889763779528
        },
        {
          "duration": 0.17984696874999528,
          "durationTicks": 141,
          "midi": 37,
          "name": "C#2",
          "ticks": 17519,
          "time": 21.549748239583334,
          "velocity": 0.4881889763779528
        },
        {
          "duration": 0.28316331250000104,
          "durationTicks": 222,
          "midi": 25,
          "name": "C#1",
          "ticks": 17679,
          "time": 21.753829906249997,
          "velocity": 0.5039370078740157
        },
        {
          "duration": 0.07908164583333033,
          "durationTicks": 62,
          "midi": 25,
          "name": "C#1",
          "ticks": 17920,
          "time": 22.061227916666667,
          "velocity": 0.48031496062992124
        },
        {
          "duration": 0.18239798958333253,
          "durationTicks": 143,
          "midi": 37,
          "name": "C#2",
          "ticks": 17999,
          "time": 22.16199323958333,
          "velocity": 0.49606299212598426
        },
        {
          "duration": 0.07653062500000019,
          "durationTicks": 60,
          "midi": 25,
          "name": "C#1",
          "ticks": 18161,
          "time": 22.368625927083333,
          "velocity": 0.49606299212598426
        },
        {
          "duration": 0.28443882291666256,
          "durationTicks": 223,
          "midi": 25,
          "name": "C#1",
          "ticks": 18239,
          "time": 22.468115739583332,
          "velocity": 0.48031496062992124
        },
        {
          "duration": 0.28061229166666735,
          "durationTicks": 220,
          "midi": 37,
          "name": "C#2",
          "ticks": 18480,
          "time": 22.77551375,
          "velocity": 0.47244094488188976
        },
        {
          "duration": 0.28316331250000104,
          "durationTicks": 222,
          "midi": 25,
          "name": "C#1",
          "ticks": 18719,
          "time": 23.08036073958333,
          "velocity": 0.4881889763779528
        },
        {
          "duration": 0.28188780208333597,
          "durationTicks": 221,
          "midi": 37,
          "name": "C#2",
          "ticks": 18960,
          "time": 23.387758749999996,
          "velocity": 0.49606299212598426
        },
        {
          "duration": 0.2844388229166661,
          "durationTicks": 223,
          "midi": 30,
          "name": "F#1",
          "ticks": 19199,
          "time": 23.692605739583332,
          "velocity": 0.49606299212598426
        },
        {
          "duration": 0.17729594791666514,
          "durationTicks": 139,
          "midi": 42,
          "name": "F#2",
          "ticks": 19441,
          "time": 24.001279260416663,
          "velocity": 0.47244094488188976
        },
        {
          "duration": 0.2818878020833324,
          "durationTicks": 221,
          "midi": 30,
          "name": "F#1",
          "ticks": 19599,
          "time": 24.202809906249996,
          "velocity": 0.4881889763779528
        },
        {
          "duration": 0.07908164583333388,
          "durationTicks": 62,
          "midi": 30,
          "name": "F#1",
          "ticks": 19839,
          "time": 24.508932406249997,
          "velocity": 0.48031496062992124
        },
        {
          "duration": 0.18112247916666746,
          "durationTicks": 142,
          "midi": 42,
          "name": "F#2",
          "ticks": 19919,
          "time": 24.61097323958333,
          "velocity": 0.48031496062992124
        },
        {
          "duration": 0.07780613541666526,
          "durationTicks": 61,
          "midi": 30,
          "name": "F#1",
          "ticks": 20080,
          "time": 24.816330416666666,
          "velocity": 0.4881889763779528
        },
        {
          "duration": 0.28316331250000104,
          "durationTicks": 222,
          "midi": 30,
          "name": "F#1",
          "ticks": 20159,
          "time": 24.91709573958333,
          "velocity": 0.4881889763779528
        },
        {
          "duration": 0.18239798958333253,
          "durationTicks": 143,
          "midi": 42,
          "name": "F#2",
          "ticks": 20399,
          "time": 25.223218239583332,
          "velocity": 0.49606299212598426
        },
        {
          "duration": 0.28188780208333597,
          "durationTicks": 221,
          "midi": 30,
          "name": "F#1",
          "ticks": 20561,
          "time": 25.42985092708333,
          "velocity": 0.4881889763779528
        },
        {
          "duration": 0.07653062500000019,
          "durationTicks": 60,
          "midi": 30,
          "name": "F#1",
          "ticks": 20801,
          "time": 25.73597342708333,
          "velocity": 0.4881889763779528
        },
        {
          "duration": 0.17984696874999884,
          "durationTicks": 141,
          "midi": 42,
          "name": "F#2",
          "ticks": 20880,
          "time": 25.83673875,
          "velocity": 0.48031496062992124
        },
        {
          "duration": 0.07908164583333388,
          "durationTicks": 62,
          "midi": 30,
          "name": "F#1",
          "ticks": 21039,
          "time": 26.039544906249997,
          "velocity": 0.48031496062992124
        },
        {
          "duration": 0.28188780208333597,
          "durationTicks": 221,
          "midi": 26,
          "name": "D1",
          "ticks": 21119,
          "time": 26.14158573958333,
          "velocity": 0.4881889763779528
        },
        {
          "duration": 0.18112247916666746,
          "durationTicks": 142,
          "midi": 38,
          "name": "D2",
          "ticks": 21359,
          "time": 26.44770823958333,
          "velocity": 0.4881889763779528
        },
        {
          "duration": 0.28188780208333597,
          "durationTicks": 221,
          "midi": 26,
          "name": "D1",
          "ticks": 21520,
          "time": 26.653065416666664,
          "velocity": 0.5039370078740157
        },
        {
          "duration": 0.07780613541666526,
          "durationTicks": 61,
          "midi": 26,
          "name": "D1",
          "ticks": 21760,
          "time": 26.959187916666664,
          "velocity": 0.4881889763779528
        },
        {
          "duration": 0.18239798958333253,
          "durationTicks": 143,
          "midi": 38,
          "name": "D2",
          "ticks": 21839,
          "time": 27.059953239583333,
          "velocity": 0.4881889763779528
        },
        {
          "duration": 0.07780613541666526,
          "durationTicks": 61,
          "midi": 26,
          "name": "D1",
          "ticks": 22001,
          "time": 27.26658592708333,
          "velocity": 0.47244094488188976
        },
        {
          "duration": 0.28316331250000104,
          "durationTicks": 222,
          "midi": 26,
          "name": "D1",
          "ticks": 22079,
          "time": 27.36607573958333,
          "velocity": 0.4881889763779528
        },
        {
          "duration": 0.17984696874999884,
          "durationTicks": 141,
          "midi": 38,
          "name": "D2",
          "ticks": 22319,
          "time": 27.67219823958333,
          "velocity": 0.47244094488188976
        },
        {
          "duration": 0.2831633125000046,
          "durationTicks": 222,
          "midi": 26,
          "name": "D1",
          "ticks": 22479,
          "time": 27.876279906249994,
          "velocity": 0.5039370078740157
        },
        {
          "duration": 0.07780613541666526,
          "durationTicks": 61,
          "midi": 26,
          "name": "D1",
          "ticks": 22720,
          "time": 28.183677916666664,
          "velocity": 0.4881889763779528
        },
        {
          "duration": 0.18112247916666746,
          "durationTicks": 142,
          "midi": 38,
          "name": "D2",
          "ticks": 22800,
          "time": 28.285718749999997,
          "velocity": 0.5039370078740157
        },
        {
          "duration": 0.08035715624999895,
          "durationTicks": 63,
          "midi": 26,
          "name": "D1",
          "ticks": 22959,
          "time": 28.488524906249996,
          "velocity": 0.4881889763779528
        },
        {
          "duration": 0.2831633124999975,
          "durationTicks": 222,
          "midi": 28,
          "name": "E1",
          "ticks": 23039,
          "time": 28.590565739583333,
          "velocity": 0.4881889763779528
        },
        {
          "duration": 0.18112247916666746,
          "durationTicks": 142,
          "midi": 40,
          "name": "E2",
          "ticks": 23280,
          "time": 28.897963749999995,
          "velocity": 0.5039370078740157
        },
        {
          "duration": 0.28061229166666735,
          "durationTicks": 220,
          "midi": 28,
          "name": "E1",
          "ticks": 23441,
          "time": 29.10332092708333,
          "velocity": 0.49606299212598426
        },
        {
          "duration": 0.07908164583333388,
          "durationTicks": 62,
          "midi": 28,
          "name": "E1",
          "ticks": 23680,
          "time": 29.408167916666663,
          "velocity": 0.4881889763779528
        },
        {
          "duration": 0.18239798958333253,
          "durationTicks": 143,
          "midi": 40,
          "name": "E2",
          "ticks": 23759,
          "time": 29.50893323958333,
          "velocity": 0.5039370078740157
        },
        {
          "duration": 0.07525511458333511,
          "durationTicks": 59,
          "midi": 28,
          "name": "E1",
          "ticks": 23921,
          "time": 29.71556592708333,
          "velocity": 0.4881889763779528
        },
        {
          "duration": 0.28443882291666256,
          "durationTicks": 223,
          "midi": 28,
          "name": "E1",
          "ticks": 23999,
          "time": 29.815055739583332,
          "velocity": 0.48031496062992124
        },
        {
          "duration": 0.18112247916666746,
          "durationTicks": 142,
          "midi": 40,
          "name": "E2",
          "ticks": 24239,
          "time": 30.12117823958333,
          "velocity": 0.4881889763779528
        },
        {
          "duration": 0.2831633124999975,
          "durationTicks": 222,
          "midi": 28,
          "name": "E1",
          "ticks": 24400,
          "time": 30.326535416666665,
          "velocity": 0.48031496062992124
        },
        {
          "duration": 0.07525511458333511,
          "durationTicks": 59,
          "midi": 28,
          "name": "E1",
          "ticks": 24641,
          "time": 30.63393342708333,
          "velocity": 0.48031496062992124
        },
        {
          "duration": 0.18239798958333253,
          "durationTicks": 143,
          "midi": 40,
          "name": "E2",
          "ticks": 24719,
          "time": 30.73342323958333,
          "velocity": 0.48031496062992124
        },
        {
          "duration": 0.07908164583333388,
          "durationTicks": 62,
          "midi": 28,
          "name": "E1",
          "ticks": 24880,
          "time": 30.938780416666663,
          "velocity": 0.4881889763779528
        },
        {
          "duration": 0.28061229166666735,
          "durationTicks": 220,
          "midi": 25,
          "name": "C#1",
          "ticks": 24961,
          "time": 31.042096760416662,
          "velocity": 0.4881889763779528
        },
        {
          "duration": 0.1785714583333302,
          "durationTicks": 140,
          "midi": 37,
          "name": "C#2",
          "ticks": 25200,
          "time": 31.346943749999998,
          "velocity": 0.4881889763779528
        },
        {
          "duration": 0.28316331250000104,
          "durationTicks": 222,
          "midi": 25,
          "name": "C#1",
          "ticks": 25359,
          "time": 31.549749906249996,
          "velocity": 0.5039370078740157
        },
        {
          "duration": 0.07908164583333033,
          "durationTicks": 62,
          "midi": 25,
          "name": "C#1",
          "ticks": 25600,
          "time": 31.857147916666666,
          "velocity": 0.48031496062992124
        },
        {
          "duration": 0.18112247916666746,
          "durationTicks": 142,
          "midi": 37,
          "name": "C#2",
          "ticks": 25680,
          "time": 31.959188749999996,
          "velocity": 0.49606299212598426
        },
        {
          "duration": 0.07653062499999663,
          "durationTicks": 60,
          "midi": 25,
          "name": "C#1",
          "ticks": 25841,
          "time": 32.16454592708333,
          "velocity": 0.49606299212598426
        },
        {
          "duration": 0.28443882291665545,
          "durationTicks": 223,
          "midi": 25,
          "name": "C#1",
          "ticks": 25919,
          "time": 32.264035739583335,
          "velocity": 0.48031496062992124
        },
        {
          "duration": 0.2793367812500094,
          "durationTicks": 219,
          "midi": 37,
          "name": "C#2",
          "ticks": 26161,
          "time": 32.57270926041666,
          "velocity": 0.47244094488188976
        },
        {
          "duration": 0.28316331250000104,
          "durationTicks": 222,
          "midi": 25,
          "name": "C#1",
          "ticks": 26399,
          "time": 32.87628073958333,
          "velocity": 0.4881889763779528
        },
        {
          "duration": 0.2818878020833324,
          "durationTicks": 221,
          "midi": 37,
          "name": "C#2",
          "ticks": 26640,
          "time": 33.18367875,
          "velocity": 0.49606299212598426
        },
        {
          "duration": 0.28316331249999394,
          "durationTicks": 222,
          "midi": 30,
          "name": "F#1",
          "ticks": 26880,
          "time": 33.48980125,
          "velocity": 0.49606299212598426
        },
        {
          "duration": 0.17857145833333732,
          "durationTicks": 140,
          "midi": 42,
          "name": "F#2",
          "ticks": 27120,
          "time": 33.79592374999999,
          "velocity": 0.47244094488188976
        },
        {
          "duration": 0.2818878020833395,
          "durationTicks": 221,
          "midi": 30,
          "name": "F#1",
          "ticks": 27279,
          "time": 33.99872990624999,
          "velocity": 0.4881889763779528
        },
        {
          "duration": 0.07908164583334099,
          "durationTicks": 62,
          "midi": 30,
          "name": "F#1",
          "ticks": 27519,
          "time": 34.30485240624999,
          "velocity": 0.48031496062992124
        },
        {
          "duration": 0.18112247916666746,
          "durationTicks": 142,
          "midi": 42,
          "name": "F#2",
          "ticks": 27599,
          "time": 34.40689323958333,
          "velocity": 0.48031496062992124
        },
        {
          "duration": 0.07780613541666526,
          "durationTicks": 61,
          "midi": 30,
          "name": "F#1",
          "ticks": 27760,
          "time": 34.61225041666666,
          "velocity": 0.4881889763779528
        },
        {
          "duration": 0.28316331249999394,
          "durationTicks": 222,
          "midi": 30,
          "name": "F#1",
          "ticks": 27839,
          "time": 34.713015739583334,
          "velocity": 0.4881889763779528
        },
        {
          "duration": 0.18239798958333608,
          "durationTicks": 143,
          "midi": 42,
          "name": "F#2",
          "ticks": 28079,
          "time": 35.01913823958333,
          "velocity": 0.49606299212598426
        },
        {
          "duration": 0.2818878020833324,
          "durationTicks": 221,
          "midi": 30,
          "name": "F#1",
          "ticks": 28241,
          "time": 35.22577092708333,
          "velocity": 0.4881889763779528
        },
        {
          "duration": 0.07653062499999663,
          "durationTicks": 60,
          "midi": 30,
          "name": "F#1",
          "ticks": 28481,
          "time": 35.53189342708333,
          "velocity": 0.4881889763779528
        },
        {
          "duration": 0.17984696874999884,
          "durationTicks": 141,
          "midi": 42,
          "name": "F#2",
          "ticks": 28560,
          "time": 35.63265875,
          "velocity": 0.48031496062992124
        },
        {
          "duration": 0.07780613541666526,
          "durationTicks": 61,
          "midi": 30,
          "name": "F#1",
          "ticks": 28720,
          "time": 35.836740416666665,
          "velocity": 0.48031496062992124
        },
        {
          "duration": 0.2818878020833324,
          "durationTicks": 221,
          "midi": 26,
          "name": "D1",
          "ticks": 28799,
          "time": 35.93750573958333,
          "velocity": 0.4881889763779528
        },
        {
          "duration": 0.18112247916666746,
          "durationTicks": 142,
          "midi": 38,
          "name": "D2",
          "ticks": 29039,
          "time": 36.24362823958333,
          "velocity": 0.4881889763779528
        },
        {
          "duration": 0.2818878020833324,
          "durationTicks": 221,
          "midi": 26,
          "name": "D1",
          "ticks": 29200,
          "time": 36.448985416666666,
          "velocity": 0.5039370078740157
        },
        {
          "duration": 0.07780613541666526,
          "durationTicks": 61,
          "midi": 26,
          "name": "D1",
          "ticks": 29440,
          "time": 36.75510791666667,
          "velocity": 0.4881889763779528
        },
        {
          "duration": 0.18112247916666746,
          "durationTicks": 142,
          "midi": 38,
          "name": "D2",
          "ticks": 29520,
          "time": 36.85714874999999,
          "velocity": 0.4881889763779528
        },
        {
          "duration": 0.07780613541666526,
          "durationTicks": 61,
          "midi": 26,
          "name": "D1",
          "ticks": 29681,
          "time": 37.06250592708333,
          "velocity": 0.47244094488188976
        },
        {
          "duration": 0.28316331249999394,
          "durationTicks": 222,
          "midi": 26,
          "name": "D1",
          "ticks": 29759,
          "time": 37.16199573958333,
          "velocity": 0.4881889763779528
        },
        {
          "duration": 0.1785714583333302,
          "durationTicks": 140,
          "midi": 38,
          "name": "D2",
          "ticks": 30000,
          "time": 37.469393749999995,
          "velocity": 0.47244094488188976
        },
        {
          "duration": 0.28316331250000104,
          "durationTicks": 222,
          "midi": 26,
          "name": "D1",
          "ticks": 30159,
          "time": 37.67219990624999,
          "velocity": 0.5039370078740157
        },
        {
          "duration": 0.07780613541666526,
          "durationTicks": 61,
          "midi": 26,
          "name": "D1",
          "ticks": 30400,
          "time": 37.97959791666666,
          "velocity": 0.4881889763779528
        },
        {
          "duration": 0.18112247916666746,
          "durationTicks": 142,
          "midi": 38,
          "name": "D2",
          "ticks": 30480,
          "time": 38.081638749999996,
          "velocity": 0.5039370078740157
        },
        {
          "duration": 0.0803571562500025,
          "durationTicks": 63,
          "midi": 28,
          "name": "E1",
          "ticks": 30639,
          "time": 38.284444906249995,
          "velocity": 0.4881889763779528
        }
      ]
    },
    {
      "channel": 0,
      "controlChanges": {
        "0": [
          {
            "number": 0,
            "ticks": 497,
            "time": 0.4141666666666667,
            "value": 0
          }
        ],
        "32": [
          {
            "number": 32,
            "ticks": 498,
            "time": 0.41500000000000004,
            "value": 0
          }
        ]
      },
      "pitchBends": [],
      "instrument": {
        "family": "piano",
        "name": "acoustic grand piano",
        "number": 0
      },
      "name": "",
      "notes": []
    },
    {
      "channel": 2,
      "controlChanges": {
        "0": [
          {
            "number": 0,
            "ticks": 1919,
            "time": 1.6517857395833333,
            "value": 0
          },
          {
            "number": 0,
            "ticks": 1920,
            "time": 1.65306125,
            "value": 0
          }
        ],
        "6": [
          {
            "number": 6,
            "ticks": 632,
            "time": 0.5266666666666667,
            "value": 0.015748031496062992
          },
          {
            "number": 6,
            "ticks": 1919,
            "time": 1.6517857395833333,
            "value": 0.015748031496062992
          },
          {
            "number": 6,
            "ticks": 1920,
            "time": 1.65306125,
            "value": 0.015748031496062992
          }
        ],
        "7": [
          {
            "number": 7,
            "ticks": 500,
            "time": 0.41666666666666674,
            "value": 0.7874015748031497
          },
          {
            "number": 7,
            "ticks": 1919,
            "time": 1.6517857395833333,
            "value": 0.7874015748031497
          },
          {
            "number": 7,
            "ticks": 1920,
            "time": 1.65306125,
            "value": 0.7874015748031497
          }
        ],
        "10": [
          {
            "number": 10,
            "ticks": 501,
            "time": 0.4175,
            "value": 0.5039370078740157
          },
          {
            "number": 10,
            "ticks": 1919,
            "time": 1.6517857395833333,
            "value": 0.5039370078740157
          },
          {
            "number": 10,
            "ticks": 1920,
            "time": 1.65306125,
            "value": 0.5039370078740157
          }
        ],
        "11": [
          {
            "number": 11,
            "ticks": 502,
            "time": 0.4183333333333334,
            "value": 1
          },
          {
            "number": 11,
            "ticks": 1919,
            "time": 1.6517857395833333,
            "value": 1
          },
          {
            "number": 11,
            "ticks": 1920,
            "time": 1.65306125,
            "value": 1
          }
        ],
        "32": [
          {
            "number": 32,
            "ticks": 1919,
            "time": 1.6517857395833333,
            "value": 0
          },
          {
            "number": 32,
            "ticks": 1920,
            "time": 1.65306125,
            "value": 0
          }
        ],
        "91": [
          {
            "number": 91,
            "ticks": 503,
            "time": 0.4191666666666667,
            "value": 0.4330708661417323
          },
          {
            "number": 91,
            "ticks": 510,
            "time": 0.42500000000000004,
            "value": 0.4330708661417323
          },
          {
            "number": 91,
            "ticks": 1919,
            "time": 1.6517857395833333,
            "value": 0.4330708661417323
          },
          {
            "number": 91,
            "ticks": 1920,
            "time": 1.65306125,
            "value": 0.4330708661417323
          }
        ],
        "93": [
          {
            "number": 93,
            "ticks": 503,
            "time": 0.4191666666666667,
            "value": 0.15748031496062992
          },
          {
            "number": 93,
            "ticks": 510,
            "time": 0.42500000000000004,
            "value": 0.15748031496062992
          },
          {
            "number": 93,
            "ticks": 1919,
            "time": 1.6517857395833333,
            "value": 0.15748031496062992
          },
          {
            "number": 93,
            "ticks": 1920,
            "time": 1.65306125,
            "value": 0.15748031496062992
          }
        ],
        "100": [
          {
            "number": 100,
            "ticks": 628,
            "time": 0.5233333333333333,
            "value": 0
          },
          {
            "number": 100,
            "ticks": 640,
            "time": 0.5333333333333333,
            "value": 1
          },
          {
            "number": 100,
            "ticks": 1919,
            "time": 1.6517857395833333,
            "value": 1
          },
          {
            "number": 100,
            "ticks": 1920,
            "time": 1.65306125,
            "value": 1
          }
        ],
        "101": [
          {
            "number": 101,
            "ticks": 624,
            "time": 0.52,
            "value": 0
          },
          {
            "number": 101,
            "ticks": 636,
            "time": 0.53,
            "value": 1
          },
          {
            "number": 101,
            "ticks": 1919,
            "time": 1.6517857395833333,
            "value": 1
          },
          {
            "number": 101,
            "ticks": 1920,
            "time": 1.65306125,
            "value": 1
          }
        ]
      },
      "pitchBends": [],
      "instrument": {
        "family": "bass",
        "name": "synth bass 1",
        "number": 38
      },
      "name": "",
      "notes": [
        {
          "duration": 0.284438822916667,
          "durationTicks": 223,
          "midi": 30,
          "name": "F#1",
          "ticks": 3839,
          "time": 4.100765739583333,
          "velocity": 0.49606299212598426
        },
        {
          "duration": 0.17729594791666692,
          "durationTicks": 139,
          "midi": 42,
          "name": "F#2",
          "ticks": 4081,
          "time": 4.409439260416667,
          "velocity": 0.47244094488188976
        },
        {
          "duration": 0.2818878020833333,
          "durationTicks": 221,
          "midi": 30,
          "name": "F#1",
          "ticks": 4239,
          "time": 4.610969906249999,
          "velocity": 0.4881889763779528
        },
        {
          "duration": 0.07908164583333388,
          "durationTicks": 62,
          "midi": 30,
          "name": "F#1",
          "ticks": 4479,
          "time": 4.917092406249999,
          "velocity": 0.48031496062992124
        },
        {
          "duration": 0.18112247916666746,
          "durationTicks": 142,
          "midi": 42,
          "name": "F#2",
          "ticks": 4559,
          "time": 5.019133239583333,
          "velocity": 0.48031496062992124
        },
        {
          "duration": 0.07780613541666614,
          "durationTicks": 61,
          "midi": 30,
          "name": "F#1",
          "ticks": 4720,
          "time": 5.224490416666666,
          "velocity": 0.4881889763779528
        },
        {
          "duration": 0.2818878020833333,
          "durationTicks": 221,
          "midi": 30,
          "name": "F#1",
          "ticks": 4800,
          "time": 5.3265312499999995,
          "velocity": 0.4881889763779528
        },
        {
          "duration": 0.18239798958333342,
          "durationTicks": 143,
          "midi": 42,
          "name": "F#2",
          "ticks": 5039,
          "time": 5.6313782395833325,
          "velocity": 0.49606299212598426
        },
        {
          "duration": 0.2818878020833333,
          "durationTicks": 221,
          "midi": 30,
          "name": "F#1",
          "ticks": 5201,
          "time": 5.8380109270833325,
          "velocity": 0.4881889763779528
        },
        {
          "duration": 0.07653062500000019,
          "durationTicks": 60,
          "midi": 30,
          "name": "F#1",
          "ticks": 5441,
          "time": 6.144133427083332,
          "velocity": 0.4881889763779528
        },
        {
          "duration": 0.18112247916666568,
          "durationTicks": 142,
          "midi": 42,
          "name": "F#2",
          "ticks": 5519,
          "time": 6.243623239583333,
          "velocity": 0.48031496062992124
        },
        {
          "duration": 0.07780613541666703,
          "durationTicks": 61,
          "midi": 30,
          "name": "F#1",
          "ticks": 5680,
          "time": 6.448980416666666,
          "velocity": 0.48031496062992124
        },
        {
          "duration": 0.28061229166666646,
          "durationTicks": 220,
          "midi": 26,
          "name": "D1",
          "ticks": 5760,
          "time": 6.55102125,
          "velocity": 0.4881889763779528
        },
        {
          "duration": 0.18112247916666568,
          "durationTicks": 142,
          "midi": 38,
          "name": "D2",
          "ticks": 5999,
          "time": 6.855868239583333,
          "velocity": 0.4881889763779528
        },
        {
          "duration": 0.2818878020833324,
          "durationTicks": 221,
          "midi": 26,
          "name": "D1",
          "ticks": 6160,
          "time": 7.061225416666667,
          "velocity": 0.5039370078740157
        },
        {
          "duration": 0.07780613541666614,
          "durationTicks": 61,
          "midi": 26,
          "name": "D1",
          "ticks": 6400,
          "time": 7.367347916666667,
          "velocity": 0.4881889763779528
        },
        {
          "duration": 0.18112247916666568,
          "durationTicks": 142,
          "midi": 38,
          "name": "D2",
          "ticks": 6480,
          "time": 7.469388749999999,
          "velocity": 0.4881889763779528
        },
        {
          "duration": 0.07780613541666703,
          "durationTicks": 61,
          "midi": 26,
          "name": "D1",
          "ticks": 6641,
          "time": 7.6747459270833325,
          "velocity": 0.47244094488188976
        },
        {
          "duration": 0.2818878020833342,
          "durationTicks": 221,
          "midi": 26,
          "name": "D1",
          "ticks": 6720,
          "time": 7.775511249999999,
          "velocity": 0.4881889763779528
        },
        {
          "duration": 0.17984696874999884,
          "durationTicks": 141,
          "midi": 38,
          "name": "D2",
          "ticks": 6959,
          "time": 8.080358239583333,
          "velocity": 0.47244094488188976
        },
        {
          "duration": 0.2831633124999975,
          "durationTicks": 222,
          "midi": 26,
          "name": "D1",
          "ticks": 7119,
          "time": 8.28443990625,
          "velocity": 0.5039370078740157
        },
        {
          "duration": 0.07780613541666703,
          "durationTicks": 61,
          "midi": 26,
          "name": "D1",
          "ticks": 7360,
          "time": 8.591837916666666,
          "velocity": 0.4881889763779528
        },
        {
          "duration": 0.18112247916666568,
          "durationTicks": 142,
          "midi": 38,
          "name": "D2",
          "ticks": 7440,
          "time": 8.69387875,
          "velocity": 0.5039370078740157
        },
        {
          "duration": 0.07780613541666703,
          "durationTicks": 61,
          "midi": 26,
          "name": "D1",
          "ticks": 7601,
          "time": 8.899235927083332,
          "velocity": 0.4881889763779528
        },
        {
          "duration": 0.28316331250000104,
          "durationTicks": 222,
          "midi": 28,
          "name": "E1",
          "ticks": 7679,
          "time": 8.998725739583332,
          "velocity": 0.4881889763779528
        },
        {
          "duration": 0.18112247916666568,
          "durationTicks": 142,
          "midi": 40,
          "name": "E2",
          "ticks": 7920,
          "time": 9.30612375,
          "velocity": 0.5039370078740157
        },
        {
          "duration": 0.28061229166666557,
          "durationTicks": 220,
          "midi": 28,
          "name": "E1",
          "ticks": 8081,
          "time": 9.511480927083333,
          "velocity": 0.49606299212598426
        },
        {
          "duration": 0.07908164583333388,
          "durationTicks": 62,
          "midi": 28,
          "name": "E1",
          "ticks": 8320,
          "time": 9.816327916666665,
          "velocity": 0.4881889763779528
        },
        {
          "duration": 0.18112247916666568,
          "durationTicks": 142,
          "midi": 40,
          "name": "E2",
          "ticks": 8400,
          "time": 9.918368749999999,
          "velocity": 0.5039370078740157
        },
        {
          "duration": 0.07525511458333334,
          "durationTicks": 59,
          "midi": 28,
          "name": "E1",
          "ticks": 8561,
          "time": 10.123725927083333,
          "velocity": 0.4881889763779528
        },
        {
          "duration": 0.2844388229166661,
          "durationTicks": 223,
          "midi": 28,
          "name": "E1",
          "ticks": 8639,
          "time": 10.223215739583333,
          "velocity": 0.48031496062992124
        },
        {
          "duration": 0.17984696874999884,
          "durationTicks": 141,
          "midi": 40,
          "name": "E2",
          "ticks": 8880,
          "time": 10.530613749999999,
          "velocity": 0.4881889763779528
        },
        {
          "duration": 0.28316331249999926,
          "durationTicks": 222,
          "midi": 28,
          "name": "E1",
          "ticks": 9040,
          "time": 10.734695416666666,
          "velocity": 0.48031496062992124
        },
        {
          "duration": 0.07525511458333334,
          "durationTicks": 59,
          "midi": 28,
          "name": "E1",
          "ticks": 9281,
          "time": 11.042093427083332,
          "velocity": 0.48031496062992124
        },
        {
          "duration": 0.1823979895833343,
          "durationTicks": 143,
          "midi": 40,
          "name": "E2",
          "ticks": 9359,
          "time": 11.141583239583332,
          "velocity": 0.48031496062992124
        },
        {
          "duration": 0.0790816458333321,
          "durationTicks": 62,
          "midi": 28,
          "name": "E1",
          "ticks": 9520,
          "time": 11.346940416666666,
          "velocity": 0.4881889763779528
        },
        {
          "duration": 0.2818878020833324,
          "durationTicks": 221,
          "midi": 25,
          "name": "C#1",
          "ticks": 9600,
          "time": 11.44898125,
          "velocity": 0.4881889763779528
        },
        {
          "duration": 0.17857145833333377,
          "durationTicks": 140,
          "midi": 37,
          "name": "C#2",
          "ticks": 9840,
          "time": 11.755103749999998,
          "velocity": 0.4881889763779528
        },
        {
          "duration": 0.28316331249999926,
          "durationTicks": 222,
          "midi": 25,
          "name": "C#1",
          "ticks": 9999,
          "time": 11.957909906249998,
          "velocity": 0.5039370078740157
        },
        {
          "duration": 0.07908164583333388,
          "durationTicks": 62,
          "midi": 25,
          "name": "C#1",
          "ticks": 10240,
          "time": 12.265307916666664,
          "velocity": 0.48031496062992124
        },
        {
          "duration": 0.18112247916666746,
          "durationTicks": 142,
          "midi": 37,
          "name": "C#2",
          "ticks": 10320,
          "time": 12.367348749999998,
          "velocity": 0.49606299212598426
        },
        {
          "duration": 0.07653062500000019,
          "durationTicks": 60,
          "midi": 25,
          "name": "C#1",
          "ticks": 10481,
          "time": 12.572705927083332,
          "velocity": 0.49606299212598426
        },
        {
          "duration": 0.28316331249999926,
          "durationTicks": 222,
          "midi": 25,
          "name": "C#1",
          "ticks": 10560,
          "time": 12.673471249999999,
          "velocity": 0.48031496062992124
        },
        {
          "duration": 0.2818878020833342,
          "durationTicks": 221,
          "midi": 37,
          "name": "C#2",
          "ticks": 10799,
          "time": 12.97831823958333,
          "velocity": 0.47244094488188976
        },
        {
          "duration": 0.28316331250000104,
          "durationTicks": 222,
          "midi": 25,
          "name": "C#1",
          "ticks": 11039,
          "time": 13.284440739583331,
          "velocity": 0.4881889763779528
        },
        {
          "duration": 0.2818878020833324,
          "durationTicks": 221,
          "midi": 37,
          "name": "C#2",
          "ticks": 11280,
          "time": 13.591838749999999,
          "velocity": 0.49606299212598426
        },
        {
          "duration": 0.2844388229166661,
          "durationTicks": 223,
          "midi": 30,
          "name": "F#1",
          "ticks": 11519,
          "time": 13.896685739583331,
          "velocity": 0.49606299212598426
        },
        {
          "duration": 0.17729594791666692,
          "durationTicks": 139,
          "midi": 42,
          "name": "F#2",
          "ticks": 11761,
          "time": 14.205359260416666,
          "velocity": 0.47244094488188976
        },
        {
          "duration": 0.2818878020833342,
          "durationTicks": 221,
          "midi": 30,
          "name": "F#1",
          "ticks": 11919,
          "time": 14.406889906249999,
          "velocity": 0.4881889763779528
        },
        {
          "duration": 0.07908164583333388,
          "durationTicks": 62,
          "midi": 30,
          "name": "F#1",
          "ticks": 12159,
          "time": 14.713012406249998,
          "velocity": 0.48031496062992124
        },
        {
          "duration": 0.18112247916666746,
          "durationTicks": 142,
          "midi": 42,
          "name": "F#2",
          "ticks": 12239,
          "time": 14.81505323958333,
          "velocity": 0.48031496062992124
        },
        {
          "duration": 0.07780613541666881,
          "durationTicks": 61,
          "midi": 30,
          "name": "F#1",
          "ticks": 12400,
          "time": 15.020410416666664,
          "velocity": 0.4881889763779528
        },
        {
          "duration": 0.28316331250000104,
          "durationTicks": 222,
          "midi": 30,
          "name": "F#1",
          "ticks": 12479,
          "time": 15.12117573958333,
          "velocity": 0.4881889763779528
        },
        {
          "duration": 0.1823979895833343,
          "durationTicks": 143,
          "midi": 42,
          "name": "F#2",
          "ticks": 12719,
          "time": 15.427298239583331,
          "velocity": 0.49606299212598426
        },
        {
          "duration": 0.2818878020833342,
          "durationTicks": 221,
          "midi": 30,
          "name": "F#1",
          "ticks": 12881,
          "time": 15.633930927083332,
          "velocity": 0.4881889763779528
        },
        {
          "duration": 0.07653062500000019,
          "durationTicks": 60,
          "midi": 30,
          "name": "F#1",
          "ticks": 13121,
          "time": 15.940053427083331,
          "velocity": 0.4881889763779528
        },
        {
          "duration": 0.17984696874999884,
          "durationTicks": 141,
          "midi": 42,
          "name": "F#2",
          "ticks": 13200,
          "time": 16.04081875,
          "velocity": 0.48031496062992124
        },
        {
          "duration": 0.07780613541666526,
          "durationTicks": 61,
          "midi": 30,
          "name": "F#1",
          "ticks": 13360,
          "time": 16.244900416666667,
          "velocity": 0.48031496062992124
        },
        {
          "duration": 0.2818878020833324,
          "durationTicks": 221,
          "midi": 26,
          "name": "D1",
          "ticks": 13439,
          "time": 16.345665739583332,
          "velocity": 0.4881889763779528
        },
        {
          "duration": 0.18112247916666746,
          "durationTicks": 142,
          "midi": 38,
          "name": "D2",
          "ticks": 13679,
          "time": 16.651788239583333,
          "velocity": 0.4881889763779528
        },
        {
          "duration": 0.2818878020833324,
          "durationTicks": 221,
          "midi": 26,
          "name": "D1",
          "ticks": 13840,
          "time": 16.857145416666665,
          "velocity": 0.5039370078740157
        },
        {
          "duration": 0.07780613541667236,
          "durationTicks": 61,
          "midi": 26,
          "name": "D1",
          "ticks": 14080,
          "time": 17.163267916666662,
          "velocity": 0.4881889763779528
        },
        {
          "duration": 0.18112247916666746,
          "durationTicks": 142,
          "midi": 38,
          "name": "D2",
          "ticks": 14160,
          "time": 17.265308749999996,
          "velocity": 0.4881889763779528
        },
        {
          "duration": 0.07780613541666526,
          "durationTicks": 61,
          "midi": 26,
          "name": "D1",
          "ticks": 14321,
          "time": 17.47066592708333,
          "velocity": 0.47244094488188976
        },
        {
          "duration": 0.2818878020833324,
          "durationTicks": 221,
          "midi": 26,
          "name": "D1",
          "ticks": 14400,
          "time": 17.57143125,
          "velocity": 0.4881889763779528
        },
        {
          "duration": 0.17857145833333377,
          "durationTicks": 140,
          "midi": 38,
          "name": "D2",
          "ticks": 14640,
          "time": 17.877553749999997,
          "velocity": 0.47244094488188976
        },
        {
          "duration": 0.2831633124999975,
          "durationTicks": 222,
          "midi": 26,
          "name": "D1",
          "ticks": 14799,
          "time": 18.08035990625,
          "velocity": 0.5039370078740157
        },
        {
          "duration": 0.07780613541666526,
          "durationTicks": 61,
          "midi": 26,
          "name": "D1",
          "ticks": 15040,
          "time": 18.387757916666665,
          "velocity": 0.4881889763779528
        },
        {
          "duration": 0.18112247916666746,
          "durationTicks": 142,
          "midi": 38,
          "name": "D2",
          "ticks": 15120,
          "time": 18.48979875,
          "velocity": 0.5039370078740157
        },
        {
          "duration": 0.07780613541666526,
          "durationTicks": 61,
          "midi": 26,
          "name": "D1",
          "ticks": 15281,
          "time": 18.69515592708333,
          "velocity": 0.4881889763779528
        },
        {
          "duration": 0.2818878020833324,
          "durationTicks": 221,
          "midi": 28,
          "name": "E1",
          "ticks": 15360,
          "time": 18.79592125,
          "velocity": 0.4881889763779528
        },
        {
          "duration": 0.18239798958333253,
          "durationTicks": 143,
          "midi": 40,
          "name": "E2",
          "ticks": 15599,
          "time": 19.10076823958333,
          "velocity": 0.5039370078740157
        },
        {
          "duration": 0.2806122916666638,
          "durationTicks": 220,
          "midi": 28,
          "name": "E1",
          "ticks": 15761,
          "time": 19.307400927083332,
          "velocity": 0.49606299212598426
        },
        {
          "duration": 0.07908164583333388,
          "durationTicks": 62,
          "midi": 28,
          "name": "E1",
          "ticks": 16000,
          "time": 19.612247916666664,
          "velocity": 0.4881889763779528
        },
        {
          "duration": 0.18112247916666746,
          "durationTicks": 142,
          "midi": 40,
          "name": "E2",
          "ticks": 16080,
          "time": 19.714288749999998,
          "velocity": 0.5039370078740157
        },
        {
          "duration": 0.07525511458333511,
          "durationTicks": 59,
          "midi": 28,
          "name": "E1",
          "ticks": 16241,
          "time": 19.91964592708333,
          "velocity": 0.4881889763779528
        },
        {
          "duration": 0.2844388229166661,
          "durationTicks": 223,
          "midi": 28,
          "name": "E1",
          "ticks": 16319,
          "time": 20.01913573958333,
          "velocity": 0.48031496062992124
        },
        {
          "duration": 0.17984696874999884,
          "durationTicks": 141,
          "midi": 40,
          "name": "E2",
          "ticks": 16560,
          "time": 20.32653375,
          "velocity": 0.4881889763779528
        },
        {
          "duration": 0.28316331250000104,
          "durationTicks": 222,
          "midi": 28,
          "name": "E1",
          "ticks": 16720,
          "time": 20.530615416666663,
          "velocity": 0.48031496062992124
        },
        {
          "duration": 0.07525511458333156,
          "durationTicks": 59,
          "midi": 28,
          "name": "E1",
          "ticks": 16961,
          "time": 20.838013427083332,
          "velocity": 0.48031496062992124
        },
        {
          "duration": 0.18239798958333608,
          "durationTicks": 143,
          "midi": 40,
          "name": "E2",
          "ticks": 17039,
          "time": 20.93750323958333,
          "velocity": 0.48031496062992124
        },
        {
          "duration": 0.07908164583333388,
          "durationTicks": 62,
          "midi": 28,
          "name": "E1",
          "ticks": 17200,
          "time": 21.142860416666664,
          "velocity": 0.4881889763779528
        },
        {
          "duration": 0.28061229166666735,
          "durationTicks": 220,
          "midi": 25,
          "name": "C#1",
          "ticks": 17281,
          "time": 21.246176760416663,
          "velocity": 0.4881889763779528
        },
        {
          "duration": 0.17984696874999528,
          "durationTicks": 141,
          "midi": 37,
          "name": "C#2",
          "ticks": 17519,
          "time": 21.549748239583334,
          "velocity": 0.4881889763779528
        },
        {
          "duration": 0.28316331250000104,
          "durationTicks": 222,
          "midi": 25,
          "name": "C#1",
          "ticks": 17679,
          "time": 21.753829906249997,
          "velocity": 0.5039370078740157
        },
        {
          "duration": 0.07908164583333033,
          "durationTicks": 62,
          "midi": 25,
          "name": "C#1",
          "ticks": 17920,
          "time": 22.061227916666667,
          "velocity": 0.48031496062992124
        },
        {
          "duration": 0.18239798958333253,
          "durationTicks": 143,
          "midi": 37,
          "name": "C#2",
          "ticks": 17999,
          "time": 22.16199323958333,
          "velocity": 0.49606299212598426
        },
        {
          "duration": 0.07653062500000019,
          "durationTicks": 60,
          "midi": 25,
          "name": "C#1",
          "ticks": 18161,
          "time": 22.368625927083333,
          "velocity": 0.49606299212598426
        },
        {
          "duration": 0.28443882291666256,
          "durationTicks": 223,
          "midi": 25,
          "name": "C#1",
          "ticks": 18239,
          "time": 22.468115739583332,
          "velocity": 0.48031496062992124
        },
        {
          "duration": 0.28061229166666735,
          "durationTicks": 220,
          "midi": 37,
          "name": "C#2",
          "ticks": 18480,
          "time": 22.77551375,
          "velocity": 0.47244094488188976
        },
        {
          "duration": 0.28316331250000104,
          "durationTicks": 222,
          "midi": 25,
          "name": "C#1",
          "ticks": 18719,
          "time": 23.08036073958333,
          "velocity": 0.4881889763779528
        },
        {
          "duration": 0.28188780208333597,
          "durationTicks": 221,
          "midi": 37,
          "name": "C#2",
          "ticks": 18960,
          "time": 23.387758749999996,
          "velocity": 0.49606299212598426
        },
        {
          "duration": 0.2844388229166661,
          "durationTicks": 223,
          "midi": 30,
          "name": "F#1",
          "ticks": 19199,
          "time": 23.692605739583332,
          "velocity": 0.49606299212598426
        },
        {
          "duration": 0.17729594791666514,
          "durationTicks": 139,
          "midi": 42,
          "name": "F#2",
          "ticks": 19441,
          "time": 24.001279260416663,
          "velocity": 0.47244094488188976
        },
        {
          "duration": 0.2818878020833324,
          "durationTicks": 221,
          "midi": 30,
          "name": "F#1",
          "ticks": 19599,
          "time": 24.202809906249996,
          "velocity": 0.4881889763779528
        },
        {
          "duration": 0.07908164583333388,
          "durationTicks": 62,
          "midi": 30,
          "name": "F#1",
          "ticks": 19839,
          "time": 24.508932406249997,
          "velocity": 0.48031496062992124
        },
        {
          "duration": 0.18112247916666746,
          "durationTicks": 142,
          "midi": 42,
          "name": "F#2",
          "ticks": 19919,
          "time": 24.61097323958333,
          "velocity": 0.48031496062992124
        },
        {
          "duration": 0.07780613541666526,
          "durationTicks": 61,
          "midi": 30,
          "name": "F#1",
          "ticks": 20080,
          "time": 24.816330416666666,
          "velocity": 0.4881889763779528
        },
        {
          "duration": 0.28316331250000104,
          "durationTicks": 222,
          "midi": 30,
          "name": "F#1",
          "ticks": 20159,
          "time": 24.91709573958333,
          "velocity": 0.4881889763779528
        },
        {
          "duration": 0.18239798958333253,
          "durationTicks": 143,
          "midi": 42,
          "name": "F#2",
          "ticks": 20399,
          "time": 25.223218239583332,
          "velocity": 0.49606299212598426
        },
        {
          "duration": 0.28188780208333597,
          "durationTicks": 221,
          "midi": 30,
          "name": "F#1",
          "ticks": 20561,
          "time": 25.42985092708333,
          "velocity": 0.4881889763779528
        },
        {
          "duration": 0.07653062500000019,
          "durationTicks": 60,
          "midi": 30,
          "name": "F#1",
          "ticks": 20801,
          "time": 25.73597342708333,
          "velocity": 0.4881889763779528
        },
        {
          "duration": 0.17984696874999884,
          "durationTicks": 141,
          "midi": 42,
          "name": "F#2",
          "ticks": 20880,
          "time": 25.83673875,
          "velocity": 0.48031496062992124
        },
        {
          "duration": 0.07908164583333388,
          "durationTicks": 62,
          "midi": 30,
          "name": "F#1",
          "ticks": 21039,
          "time": 26.039544906249997,
          "velocity": 0.48031496062992124
        },
        {
          "duration": 0.28188780208333597,
          "durationTicks": 221,
          "midi": 26,
          "name": "D1",
          "ticks": 21119,
          "time": 26.14158573958333,
          "velocity": 0.4881889763779528
        },
        {
          "duration": 0.18112247916666746,
          "durationTicks": 142,
          "midi": 38,
          "name": "D2",
          "ticks": 21359,
          "time": 26.44770823958333,
          "velocity": 0.4881889763779528
        },
        {
          "duration": 0.28188780208333597,
          "durationTicks": 221,
          "midi": 26,
          "name": "D1",
          "ticks": 21520,
          "time": 26.653065416666664,
          "velocity": 0.5039370078740157
        },
        {
          "duration": 0.07780613541666526,
          "durationTicks": 61,
          "midi": 26,
          "name": "D1",
          "ticks": 21760,
          "time": 26.959187916666664,
          "velocity": 0.4881889763779528
        },
        {
          "duration": 0.18239798958333253,
          "durationTicks": 143,
          "midi": 38,
          "name": "D2",
          "ticks": 21839,
          "time": 27.059953239583333,
          "velocity": 0.4881889763779528
        },
        {
          "duration": 0.07780613541666526,
          "durationTicks": 61,
          "midi": 26,
          "name": "D1",
          "ticks": 22001,
          "time": 27.26658592708333,
          "velocity": 0.47244094488188976
        },
        {
          "duration": 0.28316331250000104,
          "durationTicks": 222,
          "midi": 26,
          "name": "D1",
          "ticks": 22079,
          "time": 27.36607573958333,
          "velocity": 0.4881889763779528
        },
        {
          "duration": 0.17984696874999884,
          "durationTicks": 141,
          "midi": 38,
          "name": "D2",
          "ticks": 22319,
          "time": 27.67219823958333,
          "velocity": 0.47244094488188976
        },
        {
          "duration": 0.2831633125000046,
          "durationTicks": 222,
          "midi": 26,
          "name": "D1",
          "ticks": 22479,
          "time": 27.876279906249994,
          "velocity": 0.5039370078740157
        },
        {
          "duration": 0.07780613541666526,
          "durationTicks": 61,
          "midi": 26,
          "name": "D1",
          "ticks": 22720,
          "time": 28.183677916666664,
          "velocity": 0.4881889763779528
        },
        {
          "duration": 0.18112247916666746,
          "durationTicks": 142,
          "midi": 38,
          "name": "D2",
          "ticks": 22800,
          "time": 28.285718749999997,
          "velocity": 0.5039370078740157
        },
        {
          "duration": 0.08035715624999895,
          "durationTicks": 63,
          "midi": 26,
          "name": "D1",
          "ticks": 22959,
          "time": 28.488524906249996,
          "velocity": 0.4881889763779528
        },
        {
          "duration": 0.2831633124999975,
          "durationTicks": 222,
          "midi": 28,
          "name": "E1",
          "ticks": 23039,
          "time": 28.590565739583333,
          "velocity": 0.4881889763779528
        },
        {
          "duration": 0.18112247916666746,
          "durationTicks": 142,
          "midi": 40,
          "name": "E2",
          "ticks": 23280,
          "time": 28.897963749999995,
          "velocity": 0.5039370078740157
        },
        {
          "duration": 0.28061229166666735,
          "durationTicks": 220,
          "midi": 28,
          "name": "E1",
          "ticks": 23441,
          "time": 29.10332092708333,
          "velocity": 0.49606299212598426
        },
        {
          "duration": 0.07908164583333388,
          "durationTicks": 62,
          "midi": 28,
          "name": "E1",
          "ticks": 23680,
          "time": 29.408167916666663,
          "velocity": 0.4881889763779528
        },
        {
          "duration": 0.18239798958333253,
          "durationTicks": 143,
          "midi": 40,
          "name": "E2",
          "ticks": 23759,
          "time": 29.50893323958333,
          "velocity": 0.5039370078740157
        },
        {
          "duration": 0.07525511458333511,
          "durationTicks": 59,
          "midi": 28,
          "name": "E1",
          "ticks": 23921,
          "time": 29.71556592708333,
          "velocity": 0.4881889763779528
        },
        {
          "duration": 0.28443882291666256,
          "durationTicks": 223,
          "midi": 28,
          "name": "E1",
          "ticks": 23999,
          "time": 29.815055739583332,
          "velocity": 0.48031496062992124
        },
        {
          "duration": 0.18112247916666746,
          "durationTicks": 142,
          "midi": 40,
          "name": "E2",
          "ticks": 24239,
          "time": 30.12117823958333,
          "velocity": 0.4881889763779528
        },
        {
          "duration": 0.2831633124999975,
          "durationTicks": 222,
          "midi": 28,
          "name": "E1",
          "ticks": 24400,
          "time": 30.326535416666665,
          "velocity": 0.48031496062992124
        },
        {
          "duration": 0.07525511458333511,
          "durationTicks": 59,
          "midi": 28,
          "name": "E1",
          "ticks": 24641,
          "time": 30.63393342708333,
          "velocity": 0.48031496062992124
        },
        {
          "duration": 0.18239798958333253,
          "durationTicks": 143,
          "midi": 40,
          "name": "E2",
          "ticks": 24719,
          "time": 30.73342323958333,
          "velocity": 0.48031496062992124
        },
        {
          "duration": 0.07908164583333388,
          "durationTicks": 62,
          "midi": 28,
          "name": "E1",
          "ticks": 24880,
          "time": 30.938780416666663,
          "velocity": 0.4881889763779528
        },
        {
          "duration": 0.28061229166666735,
          "durationTicks": 220,
          "midi": 25,
          "name": "C#1",
          "ticks": 24961,
          "time": 31.042096760416662,
          "velocity": 0.4881889763779528
        },
        {
          "duration": 0.1785714583333302,
          "durationTicks": 140,
          "midi": 37,
          "name": "C#2",
          "ticks": 25200,
          "time": 31.346943749999998,
          "velocity": 0.4881889763779528
        },
        {
          "duration": 0.28316331250000104,
          "durationTicks": 222,
          "midi": 25,
          "name": "C#1",
          "ticks": 25359,
          "time": 31.549749906249996,
          "velocity": 0.5039370078740157
        },
        {
          "duration": 0.07908164583333033,
          "durationTicks": 62,
          "midi": 25,
          "name": "C#1",
          "ticks": 25600,
          "time": 31.857147916666666,
          "velocity": 0.48031496062992124
        },
        {
          "duration": 0.18112247916666746,
          "durationTicks": 142,
          "midi": 37,
          "name": "C#2",
          "ticks": 25680,
          "time": 31.959188749999996,
          "velocity": 0.49606299212598426
        },
        {
          "duration": 0.07653062499999663,
          "durationTicks": 60,
          "midi": 25,
          "name": "C#1",
          "ticks": 25841,
          "time": 32.16454592708333,
          "velocity": 0.49606299212598426
        },
        {
          "duration": 0.28443882291665545,
          "durationTicks": 223,
          "midi": 25,
          "name": "C#1",
          "ticks": 25919,
          "time": 32.264035739583335,
          "velocity": 0.48031496062992124
        },
        {
          "duration": 0.2793367812500094,
          "durationTicks": 219,
          "midi": 37,
          "name": "C#2",
          "ticks": 26161,
          "time": 32.57270926041666,
          "velocity": 0.47244094488188976
        },
        {
          "duration": 0.28316331250000104,
          "durationTicks": 222,
          "midi": 25,
          "name": "C#1",
          "ticks": 26399,
          "time": 32.87628073958333,
          "velocity": 0.4881889763779528
        },
        {
          "duration": 0.2818878020833324,
          "durationTicks": 221,
          "midi": 37,
          "name": "C#2",
          "ticks": 26640,
          "time": 33.18367875,
          "velocity": 0.49606299212598426
        },
        {
          "duration": 0.28316331249999394,
          "durationTicks": 222,
          "midi": 30,
          "name": "F#1",
          "ticks": 26880,
          "time": 33.48980125,
          "velocity": 0.49606299212598426
        },
        {
          "duration": 0.17857145833333732,
          "durationTicks": 140,
          "midi": 42,
          "name": "F#2",
          "ticks": 27120,
          "time": 33.79592374999999,
          "velocity": 0.47244094488188976
        },
        {
          "duration": 0.2818878020833395,
          "durationTicks": 221,
          "midi": 30,
          "name": "F#1",
          "ticks": 27279,
          "time": 33.99872990624999,
          "velocity": 0.4881889763779528
        },
        {
          "duration": 0.07908164583334099,
          "durationTicks": 62,
          "midi": 30,
          "name": "F#1",
          "ticks": 27519,
          "time": 34.30485240624999,
          "velocity": 0.48031496062992124
        },
        {
          "duration": 0.18112247916666746,
          "durationTicks": 142,
          "midi": 42,
          "name": "F#2",
          "ticks": 27599,
          "time": 34.40689323958333,
          "velocity": 0.48031496062992124
        },
        {
          "duration": 0.07780613541666526,
          "durationTicks": 61,
          "midi": 30,
          "name": "F#1",
          "ticks": 27760,
          "time": 34.61225041666666,
          "velocity": 0.4881889763779528
        },
        {
          "duration": 0.28316331249999394,
          "durationTicks": 222,
          "midi": 30,
          "name": "F#1",
          "ticks": 27839,
          "time": 34.713015739583334,
          "velocity": 0.4881889763779528
        },
        {
          "duration": 0.18239798958333608,
          "durationTicks": 143,
          "midi": 42,
          "name": "F#2",
          "ticks": 28079,
          "time": 35.01913823958333,
          "velocity": 0.49606299212598426
        },
        {
          "duration": 0.2818878020833324,
          "durationTicks": 221,
          "midi": 30,
          "name": "F#1",
          "ticks": 28241,
          "time": 35.22577092708333,
          "velocity": 0.4881889763779528
        },
        {
          "duration": 0.07653062499999663,
          "durationTicks": 60,
          "midi": 30,
          "name": "F#1",
          "ticks": 28481,
          "time": 35.53189342708333,
          "velocity": 0.4881889763779528
        },
        {
          "duration": 0.17984696874999884,
          "durationTicks": 141,
          "midi": 42,
          "name": "F#2",
          "ticks": 28560,
          "time": 35.63265875,
          "velocity": 0.48031496062992124
        },
        {
          "duration": 0.07780613541666526,
          "durationTicks": 61,
          "midi": 30,
          "name": "F#1",
          "ticks": 28720,
          "time": 35.836740416666665,
          "velocity": 0.48031496062992124
        },
        {
          "duration": 0.2818878020833324,
          "durationTicks": 221,
          "midi": 26,
          "name": "D1",
          "ticks": 28799,
          "time": 35.93750573958333,
          "velocity": 0.4881889763779528
        },
        {
          "duration": 0.18112247916666746,
          "durationTicks": 142,
          "midi": 38,
          "name": "D2",
          "ticks": 29039,
          "time": 36.24362823958333,
          "velocity": 0.4881889763779528
        },
        {
          "duration": 0.2818878020833324,
          "durationTicks": 221,
          "midi": 26,
          "name": "D1",
          "ticks": 29200,
          "time": 36.448985416666666,
          "velocity": 0.5039370078740157
        },
        {
          "duration": 0.07780613541666526,
          "durationTicks": 61,
          "midi": 26,
          "name": "D1",
          "ticks": 29440,
          "time": 36.75510791666667,
          "velocity": 0.4881889763779528
        },
        {
          "duration": 0.18112247916666746,
          "durationTicks": 142,
          "midi": 38,
          "name": "D2",
          "ticks": 29520,
          "time": 36.85714874999999,
          "velocity": 0.4881889763779528
        },
        {
          "duration": 0.07780613541666526,
          "durationTicks": 61,
          "midi": 26,
          "name": "D1",
          "ticks": 29681,
          "time": 37.06250592708333,
          "velocity": 0.47244094488188976
        },
        {
          "duration": 0.28316331249999394,
          "durationTicks": 222,
          "midi": 26,
          "name": "D1",
          "ticks": 29759,
          "time": 37.16199573958333,
          "velocity": 0.4881889763779528
        },
        {
          "duration": 0.1785714583333302,
          "durationTicks": 140,
          "midi": 38,
          "name": "D2",
          "ticks": 30000,
          "time": 37.469393749999995,
          "velocity": 0.47244094488188976
        },
        {
          "duration": 0.28316331250000104,
          "durationTicks": 222,
          "midi": 26,
          "name": "D1",
          "ticks": 30159,
          "time": 37.67219990624999,
          "velocity": 0.5039370078740157
        },
        {
          "duration": 0.07780613541666526,
          "durationTicks": 61,
          "midi": 26,
          "name": "D1",
          "ticks": 30400,
          "time": 37.97959791666666,
          "velocity": 0.4881889763779528
        },
        {
          "duration": 0.18112247916666746,
          "durationTicks": 142,
          "midi": 38,
          "name": "D2",
          "ticks": 30480,
          "time": 38.081638749999996,
          "velocity": 0.5039370078740157
        },
        {
          "duration": 0.0803571562500025,
          "durationTicks": 63,
          "midi": 28,
          "name": "E1",
          "ticks": 30639,
          "time": 38.284444906249995,
          "velocity": 0.4881889763779528
        }
      ]
    },
    {
      "channel": 0,
      "controlChanges": {
        "0": [
          {
            "number": 0,
            "ticks": 505,
            "time": 0.42083333333333334,
            "value": 0
          }
        ],
        "32": [
          {
            "number": 32,
            "ticks": 506,
            "time": 0.4216666666666667,
            "value": 0
          }
        ]
      },
      "pitchBends": [],
      "instrument": {
        "family": "piano",
        "name": "acoustic grand piano",
        "number": 0
      },
      "name": "",
      "notes": []
    },
    {
      "channel": 3,
      "controlChanges": {
        "0": [
          {
            "number": 0,
            "ticks": 1919,
            "time": 1.6517857395833333,
            "value": 0
          },
          {
            "number": 0,
            "ticks": 1920,
            "time": 1.65306125,
            "value": 0
          }
        ],
        "6": [
          {
            "number": 6,
            "ticks": 641,
            "time": 0.5341666666666667,
            "value": 0.015748031496062992
          },
          {
            "number": 6,
            "ticks": 1919,
            "time": 1.6517857395833333,
            "value": 0.015748031496062992
          },
          {
            "number": 6,
            "ticks": 1920,
            "time": 1.65306125,
            "value": 0.015748031496062992
          }
        ],
        "7": [
          {
            "number": 7,
            "ticks": 508,
            "time": 0.42333333333333334,
            "value": 0.9448818897637795
          },
          {
            "number": 7,
            "ticks": 1919,
            "time": 1.6517857395833333,
            "value": 0.9448818897637795
          },
          {
            "number": 7,
            "ticks": 1920,
            "time": 1.65306125,
            "value": 0.9448818897637795
          }
        ],
        "10": [
          {
            "number": 10,
            "ticks": 509,
            "time": 0.42416666666666664,
            "value": 0.5039370078740157
          },
          {
            "number": 10,
            "ticks": 1919,
            "time": 1.6517857395833333,
            "value": 0.5039370078740157
          },
          {
            "number": 10,
            "ticks": 1920,
            "time": 1.65306125,
            "value": 0.5039370078740157
          }
        ],
        "11": [
          {
            "number": 11,
            "ticks": 510,
            "time": 0.42500000000000004,
            "value": 1
          },
          {
            "number": 11,
            "ticks": 1919,
            "time": 1.6517857395833333,
            "value": 1
          },
          {
            "number": 11,
            "ticks": 1920,
            "time": 1.65306125,
            "value": 1
          }
        ],
        "32": [
          {
            "number": 32,
            "ticks": 1919,
            "time": 1.6517857395833333,
            "value": 0
          },
          {
            "number": 32,
            "ticks": 1920,
            "time": 1.65306125,
            "value": 0
          }
        ],
        "91": [
          {
            "number": 91,
            "ticks": 510,
            "time": 0.42500000000000004,
            "value": 0.7874015748031497
          },
          {
            "number": 91,
            "ticks": 518,
            "time": 0.43166666666666664,
            "value": 0.7874015748031497
          },
          {
            "number": 91,
            "ticks": 1919,
            "time": 1.6517857395833333,
            "value": 0.7874015748031497
          },
          {
            "number": 91,
            "ticks": 1920,
            "time": 1.65306125,
            "value": 0.7874015748031497
          }
        ],
        "93": [
          {
            "number": 93,
            "ticks": 510,
            "time": 0.42500000000000004,
            "value": 0.5039370078740157
          },
          {
            "number": 93,
            "ticks": 518,
            "time": 0.43166666666666664,
            "value": 0.5039370078740157
          },
          {
            "number": 93,
            "ticks": 1919,
            "time": 1.6517857395833333,
            "value": 0.5039370078740157
          },
          {
            "number": 93,
            "ticks": 1920,
            "time": 1.65306125,
            "value": 0.5039370078740157
          }
        ],
        "100": [
          {
            "number": 100,
            "ticks": 637,
            "time": 0.5308333333333334,
            "value": 0
          },
          {
            "number": 100,
            "ticks": 649,
            "time": 0.5408333333333334,
            "value": 1
          },
          {
            "number": 100,
            "ticks": 653,
            "time": 0.5441666666666667,
            "value": 1
          },
          {
            "number": 100,
            "ticks": 1919,
            "time": 1.6517857395833333,
            "value": 1
          },
          {
            "number": 100,
            "ticks": 1920,
            "time": 1.65306125,
            "value": 1
          }
        ],
        "101": [
          {
            "number": 101,
            "ticks": 633,
            "time": 0.5275000000000001,
            "value": 0
          },
          {
            "number": 101,
            "ticks": 645,
            "time": 0.5375,
            "value": 1
          },
          {
            "number": 101,
            "ticks": 649,
            "time": 0.5408333333333334,
            "value": 1
          },
          {
            "number": 101,
            "ticks": 1919,
            "time": 1.6517857395833333,
            "value": 1
          },
          {
            "number": 101,
            "ticks": 1920,
            "time": 1.65306125,
            "value": 1
          }
        ]
      },
      "pitchBends": [],
      "instrument": {
        "family": "reed",
        "name": "tenor sax",
        "number": 66
      },
      "name": "",
      "notes": [
        {
          "duration": 0.6071429583333332,
          "durationTicks": 476,
          "midi": 68,
          "name": "G#4",
          "ticks": 2880,
          "time": 2.87755125,
          "velocity": 0.8267716535433071
        },
        {
          "duration": 0.4489796666666668,
          "durationTicks": 352,
          "midi": 66,
          "name": "F#4",
          "ticks": 3360,
          "time": 3.4897962499999995,
          "velocity": 0.8031496062992126
        },
        {
          "duration": 0.3022959687499993,
          "durationTicks": 237,
          "midi": 69,
          "name": "A4",
          "ticks": 3839,
          "time": 4.100765739583333,
          "velocity": 0.8582677165354331
        },
        {
          "duration": 0.19897962499999977,
          "durationTicks": 156,
          "midi": 69,
          "name": "A4",
          "ticks": 4080,
          "time": 4.40816375,
          "velocity": 0.8582677165354331
        },
        {
          "duration": 0.09693879166666708,
          "durationTicks": 76,
          "midi": 69,
          "name": "A4",
          "ticks": 4240,
          "time": 4.612245416666666,
          "velocity": 0.8346456692913385
        },
        {
          "duration": 0.30102045833333246,
          "durationTicks": 236,
          "midi": 68,
          "name": "G#4",
          "ticks": 4320,
          "time": 4.71428625,
          "velocity": 0.8110236220472441
        },
        {
          "duration": 0.20025513541666662,
          "durationTicks": 157,
          "midi": 68,
          "name": "G#4",
          "ticks": 4559,
          "time": 5.019133239583333,
          "velocity": 0.8503937007874016
        },
        {
          "duration": 0.09693879166666708,
          "durationTicks": 76,
          "midi": 68,
          "name": "G#4",
          "ticks": 4720,
          "time": 5.224490416666666,
          "velocity": 0.8346456692913385
        },
        {
          "duration": 0.30102045833333335,
          "durationTicks": 236,
          "midi": 68,
          "name": "G#4",
          "ticks": 4800,
          "time": 5.3265312499999995,
          "velocity": 0.8346456692913385
        },
        {
          "duration": 0.2002551354166675,
          "durationTicks": 157,
          "midi": 66,
          "name": "F#4",
          "ticks": 5039,
          "time": 5.6313782395833325,
          "velocity": 0.84251968503937
        },
        {
          "duration": 0.09693879166666708,
          "durationTicks": 76,
          "midi": 66,
          "name": "F#4",
          "ticks": 5200,
          "time": 5.836735416666666,
          "velocity": 0.8110236220472441
        },
        {
          "duration": 0.19897962500000066,
          "durationTicks": 156,
          "midi": 69,
          "name": "A4",
          "ticks": 5280,
          "time": 5.938776249999999,
          "velocity": 0.8110236220472441
        },
        {
          "duration": 0.30102045833333246,
          "durationTicks": 236,
          "midi": 69,
          "name": "A4",
          "ticks": 5440,
          "time": 6.142857916666666,
          "velocity": 0.84251968503937
        },
        {
          "duration": 0.48469395833333273,
          "durationTicks": 380,
          "midi": 66,
          "name": "F#4",
          "ticks": 5680,
          "time": 6.448980416666666,
          "velocity": 0.8031496062992126
        },
        {
          "duration": 0.09693879166666619,
          "durationTicks": 76,
          "midi": 66,
          "name": "F#4",
          "ticks": 7120,
          "time": 8.285715416666665,
          "velocity": 0.84251968503937
        },
        {
          "duration": 0.19897962499999977,
          "durationTicks": 156,
          "midi": 69,
          "name": "A4",
          "ticks": 7200,
          "time": 8.387756249999999,
          "velocity": 0.8346456692913385
        },
        {
          "duration": 0.30102045833333335,
          "durationTicks": 236,
          "midi": 69,
          "name": "A4",
          "ticks": 7360,
          "time": 8.591837916666666,
          "velocity": 0.8582677165354331
        },
        {
          "duration": 0.13647961458333313,
          "durationTicks": 107,
          "midi": 68,
          "name": "G#4",
          "ticks": 7600,
          "time": 8.897960416666667,
          "velocity": 0.7952755905511811
        },
        {
          "duration": 0.19897962499999977,
          "durationTicks": 156,
          "midi": 68,
          "name": "G#4",
          "ticks": 7920,
          "time": 9.30612375,
          "velocity": 0.8267716535433071
        },
        {
          "duration": 0.09693879166666619,
          "durationTicks": 76,
          "midi": 66,
          "name": "F#4",
          "ticks": 8080,
          "time": 9.510205416666667,
          "velocity": 0.84251968503937
        },
        {
          "duration": 0.19897962499999977,
          "durationTicks": 156,
          "midi": 68,
          "name": "G#4",
          "ticks": 8160,
          "time": 9.612246249999998,
          "velocity": 0.8031496062992126
        },
        {
          "duration": 0.09693879166666797,
          "durationTicks": 76,
          "midi": 66,
          "name": "F#4",
          "ticks": 8320,
          "time": 9.816327916666665,
          "velocity": 0.8503937007874016
        },
        {
          "duration": 0.19897962499999977,
          "durationTicks": 156,
          "midi": 68,
          "name": "G#4",
          "ticks": 8400,
          "time": 9.918368749999999,
          "velocity": 0.8188976377952756
        },
        {
          "duration": 0.17602043750000007,
          "durationTicks": 138,
          "midi": 66,
          "name": "F#4",
          "ticks": 8560,
          "time": 10.122450416666666,
          "velocity": 0.8110236220472441
        },
        {
          "duration": 0.30102045833333335,
          "durationTicks": 236,
          "midi": 68,
          "name": "G#4",
          "ticks": 8800,
          "time": 10.428572916666665,
          "velocity": 0.8188976377952756
        },
        {
          "duration": 0.09693879166666619,
          "durationTicks": 76,
          "midi": 66,
          "name": "F#4",
          "ticks": 9040,
          "time": 10.734695416666666,
          "velocity": 0.7952755905511811
        },
        {
          "duration": 0.3022959687500002,
          "durationTicks": 237,
          "midi": 69,
          "name": "A4",
          "ticks": 9119,
          "time": 10.835460739583333,
          "velocity": 0.8110236220472441
        },
        {
          "duration": 0.30102045833333335,
          "durationTicks": 236,
          "midi": 68,
          "name": "G#4",
          "ticks": 9360,
          "time": 11.142858749999998,
          "velocity": 0.7952755905511811
        },
        {
          "duration": 0.30102045833333335,
          "durationTicks": 236,
          "midi": 66,
          "name": "F#4",
          "ticks": 9600,
          "time": 11.44898125,
          "velocity": 0.8267716535433071
        },
        {
          "duration": 0.26020412500000134,
          "durationTicks": 204,
          "midi": 69,
          "name": "A4",
          "ticks": 9840,
          "time": 11.755103749999998,
          "velocity": 0.8110236220472441
        },
        {
          "duration": 0.39540822916666585,
          "durationTicks": 310,
          "midi": 66,
          "name": "F#4",
          "ticks": 10560,
          "time": 12.673471249999999,
          "velocity": 0.8582677165354331
        },
        {
          "duration": 0.3303571979166673,
          "durationTicks": 259,
          "midi": 66,
          "name": "F#4",
          "ticks": 11039,
          "time": 13.284440739583331,
          "velocity": 0.7952755905511811
        },
        {
          "duration": 0.3022959687500002,
          "durationTicks": 237,
          "midi": 69,
          "name": "A4",
          "ticks": 11519,
          "time": 13.896685739583331,
          "velocity": 0.8110236220472441
        },
        {
          "duration": 0.2002551354166684,
          "durationTicks": 157,
          "midi": 69,
          "name": "A4",
          "ticks": 11759,
          "time": 14.20280823958333,
          "velocity": 0.8031496062992126
        },
        {
          "duration": 0.09693879166666797,
          "durationTicks": 76,
          "midi": 69,
          "name": "A4",
          "ticks": 11920,
          "time": 14.408165416666664,
          "velocity": 0.8503937007874016
        },
        {
          "duration": 0.302295968750002,
          "durationTicks": 237,
          "midi": 68,
          "name": "G#4",
          "ticks": 11999,
          "time": 14.508930739583331,
          "velocity": 0.8582677165354331
        },
        {
          "duration": 0.2002551354166684,
          "durationTicks": 157,
          "midi": 68,
          "name": "G#4",
          "ticks": 12239,
          "time": 14.81505323958333,
          "velocity": 0.84251968503937
        },
        {
          "duration": 0.09693879166666797,
          "durationTicks": 76,
          "midi": 68,
          "name": "G#4",
          "ticks": 12400,
          "time": 15.020410416666664,
          "velocity": 0.8031496062992126
        },
        {
          "duration": 0.302295968750002,
          "durationTicks": 237,
          "midi": 68,
          "name": "G#4",
          "ticks": 12479,
          "time": 15.12117573958333,
          "velocity": 0.8188976377952756
        },
        {
          "duration": 0.20025513541666662,
          "durationTicks": 157,
          "midi": 66,
          "name": "F#4",
          "ticks": 12719,
          "time": 15.427298239583331,
          "velocity": 0.8346456692913385
        },
        {
          "duration": 0.09693879166666797,
          "durationTicks": 76,
          "midi": 66,
          "name": "F#4",
          "ticks": 12880,
          "time": 15.632655416666664,
          "velocity": 0.8267716535433071
        },
        {
          "duration": 0.19897962499999977,
          "durationTicks": 156,
          "midi": 69,
          "name": "A4",
          "ticks": 12960,
          "time": 15.734696249999999,
          "velocity": 0.8110236220472441
        },
        {
          "duration": 0.30102045833333513,
          "durationTicks": 236,
          "midi": 69,
          "name": "A4",
          "ticks": 13120,
          "time": 15.938777916666664,
          "velocity": 0.8582677165354331
        },
        {
          "duration": 0.6173470416666618,
          "durationTicks": 484,
          "midi": 66,
          "name": "F#4",
          "ticks": 13360,
          "time": 16.244900416666667,
          "velocity": 0.7952755905511811
        },
        {
          "duration": 0.09821430208333126,
          "durationTicks": 77,
          "midi": 66,
          "name": "F#4",
          "ticks": 14799,
          "time": 18.08035990625,
          "velocity": 0.8346456692913385
        },
        {
          "duration": 0.19897962499999977,
          "durationTicks": 156,
          "midi": 69,
          "name": "A4",
          "ticks": 14880,
          "time": 18.183676249999998,
          "velocity": 0.8031496062992126
        },
        {
          "duration": 0.30102045833333335,
          "durationTicks": 236,
          "midi": 69,
          "name": "A4",
          "ticks": 15040,
          "time": 18.387757916666665,
          "velocity": 0.8503937007874016
        },
        {
          "duration": 0.23341840624999932,
          "durationTicks": 183,
          "midi": 68,
          "name": "G#4",
          "ticks": 15280,
          "time": 18.693880416666666,
          "velocity": 0.84251968503937
        },
        {
          "duration": 0.3022959687499984,
          "durationTicks": 237,
          "midi": 66,
          "name": "F#4",
          "ticks": 15599,
          "time": 19.10076823958333,
          "velocity": 0.8582677165354331
        },
        {
          "duration": 0.30102045833333335,
          "durationTicks": 236,
          "midi": 68,
          "name": "G#4",
          "ticks": 15840,
          "time": 19.408166249999997,
          "velocity": 0.8188976377952756
        },
        {
          "duration": 0.30102045833333335,
          "durationTicks": 236,
          "midi": 66,
          "name": "F#4",
          "ticks": 16080,
          "time": 19.714288749999998,
          "velocity": 0.8582677165354331
        },
        {
          "duration": 0.19897962499999977,
          "durationTicks": 156,
          "midi": 68,
          "name": "G#4",
          "ticks": 16320,
          "time": 20.02041125,
          "velocity": 0.8503937007874016
        },
        {
          "duration": 0.30102045833333335,
          "durationTicks": 236,
          "midi": 66,
          "name": "F#4",
          "ticks": 16480,
          "time": 20.224492916666662,
          "velocity": 0.8031496062992126
        },
        {
          "duration": 0.40306129166666693,
          "durationTicks": 316,
          "midi": 69,
          "name": "A4",
          "ticks": 16720,
          "time": 20.530615416666663,
          "velocity": 0.8582677165354331
        },
        {
          "duration": 0.302295968750002,
          "durationTicks": 237,
          "midi": 68,
          "name": "G#4",
          "ticks": 17039,
          "time": 20.93750323958333,
          "velocity": 0.7952755905511811
        },
        {
          "duration": 0.3022959687499984,
          "durationTicks": 237,
          "midi": 66,
          "name": "F#4",
          "ticks": 17279,
          "time": 21.243625739583333,
          "velocity": 0.7952755905511811
        },
        {
          "duration": 0.31250005208332965,
          "durationTicks": 245,
          "midi": 69,
          "name": "A4",
          "ticks": 17519,
          "time": 21.549748239583334,
          "velocity": 0.8267716535433071
        },
        {
          "duration": 0.39668373958333447,
          "durationTicks": 311,
          "midi": 66,
          "name": "F#4",
          "ticks": 18239,
          "time": 22.468115739583332,
          "velocity": 0.84251968503937
        },
        {
          "duration": 0.3303571979166655,
          "durationTicks": 259,
          "midi": 66,
          "name": "F#4",
          "ticks": 18720,
          "time": 23.08163625,
          "velocity": 0.8503937007874016
        },
        {
          "duration": 0.3022959687499984,
          "durationTicks": 237,
          "midi": 69,
          "name": "A4",
          "ticks": 19199,
          "time": 23.692605739583332,
          "velocity": 0.84251968503937
        },
        {
          "duration": 0.19897962499999977,
          "durationTicks": 156,
          "midi": 69,
          "name": "A4",
          "ticks": 19440,
          "time": 24.000003749999998,
          "velocity": 0.8582677165354331
        },
        {
          "duration": 0.09821430208333481,
          "durationTicks": 77,
          "midi": 69,
          "name": "A4",
          "ticks": 19599,
          "time": 24.202809906249996,
          "velocity": 0.8188976377952756
        },
        {
          "duration": 0.30102045833333335,
          "durationTicks": 236,
          "midi": 71,
          "name": "B4",
          "ticks": 19680,
          "time": 24.30612625,
          "velocity": 0.8503937007874016
        },
        {
          "duration": 0.2002551354166684,
          "durationTicks": 157,
          "midi": 69,
          "name": "A4",
          "ticks": 19919,
          "time": 24.61097323958333,
          "velocity": 0.8267716535433071
        },
        {
          "duration": 0.09693879166666619,
          "durationTicks": 76,
          "midi": 69,
          "name": "A4",
          "ticks": 20080,
          "time": 24.816330416666666,
          "velocity": 0.8582677165354331
        },
        {
          "duration": 0.3022959687499984,
          "durationTicks": 237,
          "midi": 68,
          "name": "G#4",
          "ticks": 20159,
          "time": 24.91709573958333,
          "velocity": 0.8110236220472441
        },
        {
          "duration": 0.2002551354166684,
          "durationTicks": 157,
          "midi": 66,
          "name": "F#4",
          "ticks": 20399,
          "time": 25.223218239583332,
          "velocity": 0.8267716535433071
        },
        {
          "duration": 0.09693879166666619,
          "durationTicks": 76,
          "midi": 66,
          "name": "F#4",
          "ticks": 20560,
          "time": 25.428575416666664,
          "velocity": 0.8346456692913385
        },
        {
          "duration": 0.20025513541666484,
          "durationTicks": 157,
          "midi": 69,
          "name": "A4",
          "ticks": 20639,
          "time": 25.529340739583333,
          "velocity": 0.8346456692913385
        },
        {
          "duration": 0.30102045833333335,
          "durationTicks": 236,
          "midi": 69,
          "name": "A4",
          "ticks": 20800,
          "time": 25.734697916666665,
          "velocity": 0.8188976377952756
        },
        {
          "duration": 0.3341837291666643,
          "durationTicks": 262,
          "midi": 66,
          "name": "F#4",
          "ticks": 21039,
          "time": 26.039544906249997,
          "velocity": 0.8503937007874016
        },
        {
          "duration": 0.30102045833333335,
          "durationTicks": 236,
          "midi": 69,
          "name": "A4",
          "ticks": 21360,
          "time": 26.448983749999996,
          "velocity": 0.7952755905511811
        },
        {
          "duration": 0.30102045833333335,
          "durationTicks": 236,
          "midi": 66,
          "name": "F#4",
          "ticks": 21600,
          "time": 26.755106249999997,
          "velocity": 0.84251968503937
        },
        {
          "duration": 0.3022959687499984,
          "durationTicks": 237,
          "midi": 69,
          "name": "A4",
          "ticks": 21839,
          "time": 27.059953239583333,
          "velocity": 0.8031496062992126
        },
        {
          "duration": 0.302295968750002,
          "durationTicks": 237,
          "midi": 66,
          "name": "F#4",
          "ticks": 22079,
          "time": 27.36607573958333,
          "velocity": 0.8503937007874016
        },
        {
          "duration": 0.09693879166666264,
          "durationTicks": 76,
          "midi": 66,
          "name": "F#4",
          "ticks": 22480,
          "time": 27.877555416666667,
          "velocity": 0.7952755905511811
        },
        {
          "duration": 0.2002551354166684,
          "durationTicks": 157,
          "midi": 69,
          "name": "A4",
          "ticks": 22559,
          "time": 27.97832073958333,
          "velocity": 0.7952755905511811
        },
        {
          "duration": 0.30102045833333335,
          "durationTicks": 236,
          "midi": 69,
          "name": "A4",
          "ticks": 22720,
          "time": 28.183677916666664,
          "velocity": 0.8582677165354331
        },
        {
          "duration": 0.13775512500000175,
          "durationTicks": 108,
          "midi": 68,
          "name": "G#4",
          "ticks": 22959,
          "time": 28.488524906249996,
          "velocity": 0.8267716535433071
        },
        {
          "duration": 0.19897962500000332,
          "durationTicks": 156,
          "midi": 68,
          "name": "G#4",
          "ticks": 23280,
          "time": 28.897963749999995,
          "velocity": 0.8346456692913385
        },
        {
          "duration": 0.09693879166666264,
          "durationTicks": 76,
          "midi": 66,
          "name": "F#4",
          "ticks": 23440,
          "time": 29.102045416666666,
          "velocity": 0.8267716535433071
        },
        {
          "duration": 0.19897962500000332,
          "durationTicks": 156,
          "midi": 68,
          "name": "G#4",
          "ticks": 23520,
          "time": 29.204086249999996,
          "velocity": 0.8267716535433071
        },
        {
          "duration": 0.09693879166666619,
          "durationTicks": 76,
          "midi": 66,
          "name": "F#4",
          "ticks": 23680,
          "time": 29.408167916666663,
          "velocity": 0.8346456692913385
        },
        {
          "duration": 0.2002551354166684,
          "durationTicks": 157,
          "midi": 68,
          "name": "G#4",
          "ticks": 23759,
          "time": 29.50893323958333,
          "velocity": 0.8031496062992126
        },
        {
          "duration": 0.17602043749999652,
          "durationTicks": 138,
          "midi": 66,
          "name": "F#4",
          "ticks": 23920,
          "time": 29.714290416666664,
          "velocity": 0.8031496062992126
        },
        {
          "duration": 0.30102045833333335,
          "durationTicks": 236,
          "midi": 68,
          "name": "G#4",
          "ticks": 24160,
          "time": 30.020412916666665,
          "velocity": 0.8582677165354331
        },
        {
          "duration": 0.09693879166666619,
          "durationTicks": 76,
          "midi": 66,
          "name": "F#4",
          "ticks": 24400,
          "time": 30.326535416666665,
          "velocity": 0.8267716535433071
        },
        {
          "duration": 0.3022959687499984,
          "durationTicks": 237,
          "midi": 69,
          "name": "A4",
          "ticks": 24479,
          "time": 30.42730073958333,
          "velocity": 0.8267716535433071
        },
        {
          "duration": 0.3022959687499984,
          "durationTicks": 237,
          "midi": 68,
          "name": "G#4",
          "ticks": 24719,
          "time": 30.73342323958333,
          "velocity": 0.8031496062992126
        },
        {
          "duration": 0.3022959687499984,
          "durationTicks": 237,
          "midi": 66,
          "name": "F#4",
          "ticks": 24959,
          "time": 31.039545739583332,
          "velocity": 0.8582677165354331
        },
        {
          "duration": 0.2602041249999978,
          "durationTicks": 204,
          "midi": 69,
          "name": "A4",
          "ticks": 25200,
          "time": 31.346943749999998,
          "velocity": 0.8503937007874016
        },
        {
          "duration": 0.3966837395833309,
          "durationTicks": 311,
          "midi": 66,
          "name": "F#4",
          "ticks": 25919,
          "time": 32.264035739583335,
          "velocity": 0.7952755905511811
        },
        {
          "duration": 0.3316327083333377,
          "durationTicks": 260,
          "midi": 66,
          "name": "F#4",
          "ticks": 26399,
          "time": 32.87628073958333,
          "velocity": 0.8031496062992126
        },
        {
          "duration": 0.30102045833333335,
          "durationTicks": 236,
          "midi": 69,
          "name": "A4",
          "ticks": 26880,
          "time": 33.48980125,
          "velocity": 0.8267716535433071
        },
        {
          "duration": 0.19897962500000688,
          "durationTicks": 156,
          "midi": 69,
          "name": "A4",
          "ticks": 27120,
          "time": 33.79592374999999,
          "velocity": 0.8503937007874016
        },
        {
          "duration": 0.09693879166665909,
          "durationTicks": 76,
          "midi": 69,
          "name": "A4",
          "ticks": 27280,
          "time": 34.00000541666667,
          "velocity": 0.8267716535433071
        },
        {
          "duration": 0.30102045833333335,
          "durationTicks": 236,
          "midi": 68,
          "name": "G#4",
          "ticks": 27360,
          "time": 34.102046249999994,
          "velocity": 0.8110236220472441
        },
        {
          "duration": 0.2002551354166684,
          "durationTicks": 157,
          "midi": 68,
          "name": "G#4",
          "ticks": 27599,
          "time": 34.40689323958333,
          "velocity": 0.8346456692913385
        },
        {
          "duration": 0.09693879166666619,
          "durationTicks": 76,
          "midi": 68,
          "name": "G#4",
          "ticks": 27760,
          "time": 34.61225041666666,
          "velocity": 0.7952755905511811
        },
        {
          "duration": 0.30229596874999487,
          "durationTicks": 237,
          "midi": 68,
          "name": "G#4",
          "ticks": 27839,
          "time": 34.713015739583334,
          "velocity": 0.7952755905511811
        },
        {
          "duration": 0.2002551354166684,
          "durationTicks": 157,
          "midi": 66,
          "name": "F#4",
          "ticks": 28079,
          "time": 35.01913823958333,
          "velocity": 0.8188976377952756
        },
        {
          "duration": 0.09693879166666619,
          "durationTicks": 76,
          "midi": 66,
          "name": "F#4",
          "ticks": 28240,
          "time": 35.22449541666666,
          "velocity": 0.7952755905511811
        },
        {
          "duration": 0.2002551354166684,
          "durationTicks": 157,
          "midi": 69,
          "name": "A4",
          "ticks": 28319,
          "time": 35.32526073958333,
          "velocity": 0.84251968503937
        },
        {
          "duration": 0.30102045833333335,
          "durationTicks": 236,
          "midi": 69,
          "name": "A4",
          "ticks": 28480,
          "time": 35.530617916666664,
          "velocity": 0.8110236220472441
        },
        {
          "duration": 0.6173470416666689,
          "durationTicks": 484,
          "midi": 66,
          "name": "F#4",
          "ticks": 28720,
          "time": 35.836740416666665,
          "velocity": 0.8267716535433071
        },
        {
          "duration": 0.09693879166666619,
          "durationTicks": 76,
          "midi": 66,
          "name": "F#4",
          "ticks": 30160,
          "time": 37.67347541666666,
          "velocity": 0.8267716535433071
        },
        {
          "duration": 0.19897962499999977,
          "durationTicks": 156,
          "midi": 69,
          "name": "A4",
          "ticks": 30240,
          "time": 37.775516249999995,
          "velocity": 0.8503937007874016
        },
        {
          "duration": 0.30102045833333335,
          "durationTicks": 236,
          "midi": 69,
          "name": "A4",
          "ticks": 30400,
          "time": 37.97959791666666,
          "velocity": 0.8110236220472441
        },
        {
          "duration": 0.23596942708333302,
          "durationTicks": 185,
          "midi": 68,
          "name": "G#4",
          "ticks": 30639,
          "time": 38.284444906249995,
          "velocity": 0.8346456692913385
        },
        {
          "duration": 0.30102045833333335,
          "durationTicks": 236,
          "midi": 66,
          "name": "F#4",
          "ticks": 30960,
          "time": 38.69388375,
          "velocity": 0.8503937007874016
        },
        {
          "duration": 0.30102045833333335,
          "durationTicks": 236,
          "midi": 68,
          "name": "G#4",
          "ticks": 31200,
          "time": 39.00000625,
          "velocity": 0.8503937007874016
        },
        {
          "duration": 0.30102045833334046,
          "durationTicks": 236,
          "midi": 66,
          "name": "F#4",
          "ticks": 31440,
          "time": 39.30612874999999,
          "velocity": 0.8031496062992126
        },
        {
          "duration": 0.19897962500000688,
          "durationTicks": 156,
          "midi": 68,
          "name": "G#4",
          "ticks": 31680,
          "time": 39.61225124999999,
          "velocity": 0.8503937007874016
        },
        {
          "duration": 0.30102045833333335,
          "durationTicks": 236,
          "midi": 66,
          "name": "F#4",
          "ticks": 31840,
          "time": 39.81633291666667,
          "velocity": 0.8188976377952756
        },
        {
          "duration": 0.40306129166666693,
          "durationTicks": 316,
          "midi": 69,
          "name": "A4",
          "ticks": 32080,
          "time": 40.12245541666666,
          "velocity": 0.8267716535433071
        },
        {
          "duration": 0.30102045833332625,
          "durationTicks": 236,
          "midi": 68,
          "name": "G#4",
          "ticks": 32400,
          "time": 40.530618749999995,
          "velocity": 0.8267716535433071
        },
        {
          "duration": 0.30102045833332625,
          "durationTicks": 236,
          "midi": 66,
          "name": "F#4",
          "ticks": 32640,
          "time": 40.836741249999996,
          "velocity": 0.8267716535433071
        },
        {
          "duration": 0.31122454166666813,
          "durationTicks": 244,
          "midi": 69,
          "name": "A4",
          "ticks": 32880,
          "time": 41.14286375,
          "velocity": 0.8503937007874016
        },
        {
          "duration": 0.30102045833332625,
          "durationTicks": 236,
          "midi": 69,
          "name": "A4",
          "ticks": 33600,
          "time": 42.06123125,
          "velocity": 0.8346456692913385
        },
        {
          "duration": 0.31122454166667524,
          "durationTicks": 244,
          "midi": 68,
          "name": "G#4",
          "ticks": 33840,
          "time": 42.36735374999999,
          "velocity": 0.8267716535433071
        },
        {
          "duration": 0.5969388749999993,
          "durationTicks": 468,
          "midi": 68,
          "name": "G#4",
          "ticks": 34080,
          "time": 42.67347624999999,
          "velocity": 0.8188976377952756
        },
        {
          "duration": 0.6058674479166655,
          "durationTicks": 475,
          "midi": 66,
          "name": "F#4",
          "ticks": 34560,
          "time": 43.285721249999995,
          "velocity": 0.8267716535433071
        }
      ]
    },
    {
      "channel": 0,
      "controlChanges": {
        "0": [
          {
            "number": 0,
            "ticks": 513,
            "time": 0.42750000000000005,
            "value": 0
          }
        ],
        "32": [
          {
            "number": 32,
            "ticks": 514,
            "time": 0.42833333333333334,
            "value": 0
          }
        ]
      },
      "pitchBends": [],
      "instrument": {
        "family": "piano",
        "name": "acoustic grand piano",
        "number": 0
      },
      "name": "",
      "notes": []
    },
    {
      "channel": 4,
      "controlChanges": {
        "0": [
          {
            "number": 0,
            "ticks": 1919,
            "time": 1.6517857395833333,
            "value": 0
          },
          {
            "number": 0,
            "ticks": 1920,
            "time": 1.65306125,
            "value": 0
          }
        ],
        "6": [
          {
            "number": 6,
            "ticks": 658,
            "time": 0.5483333333333333,
            "value": 0.015748031496062992
          },
          {
            "number": 6,
            "ticks": 1919,
            "time": 1.6517857395833333,
            "value": 0.015748031496062992
          },
          {
            "number": 6,
            "ticks": 1920,
            "time": 1.65306125,
            "value": 0.015748031496062992
          }
        ],
        "7": [
          {
            "number": 7,
            "ticks": 516,
            "time": 0.43,
            "value": 0.7874015748031497
          },
          {
            "number": 7,
            "ticks": 1919,
            "time": 1.6517857395833333,
            "value": 0.7874015748031497
          },
          {
            "number": 7,
            "ticks": 1920,
            "time": 1.65306125,
            "value": 0.7874015748031497
          }
        ],
        "10": [
          {
            "number": 10,
            "ticks": 517,
            "time": 0.4308333333333334,
            "value": 0.5039370078740157
          },
          {
            "number": 10,
            "ticks": 1919,
            "time": 1.6517857395833333,
            "value": 0.5039370078740157
          },
          {
            "number": 10,
            "ticks": 1920,
            "time": 1.65306125,
            "value": 0.5039370078740157
          }
        ],
        "11": [
          {
            "number": 11,
            "ticks": 518,
            "time": 0.43166666666666664,
            "value": 1
          },
          {
            "number": 11,
            "ticks": 1919,
            "time": 1.6517857395833333,
            "value": 1
          },
          {
            "number": 11,
            "ticks": 1920,
            "time": 1.65306125,
            "value": 1
          }
        ],
        "32": [
          {
            "number": 32,
            "ticks": 1919,
            "time": 1.6517857395833333,
            "value": 0
          },
          {
            "number": 32,
            "ticks": 1920,
            "time": 1.65306125,
            "value": 0
          }
        ],
        "91": [
          {
            "number": 91,
            "ticks": 518,
            "time": 0.43166666666666664,
            "value": 0.6299212598425197
          },
          {
            "number": 91,
            "ticks": 526,
            "time": 0.4383333333333334,
            "value": 0.6299212598425197
          },
          {
            "number": 91,
            "ticks": 1919,
            "time": 1.6517857395833333,
            "value": 0.6299212598425197
          },
          {
            "number": 91,
            "ticks": 1920,
            "time": 1.65306125,
            "value": 0.6299212598425197
          }
        ],
        "93": [
          {
            "number": 93,
            "ticks": 518,
            "time": 0.43166666666666664,
            "value": 0.31496062992125984
          },
          {
            "number": 93,
            "ticks": 526,
            "time": 0.4383333333333334,
            "value": 0.31496062992125984
          },
          {
            "number": 93,
            "ticks": 1919,
            "time": 1.6517857395833333,
            "value": 0.31496062992125984
          },
          {
            "number": 93,
            "ticks": 1920,
            "time": 1.65306125,
            "value": 0.31496062992125984
          }
        ],
        "100": [
          {
            "number": 100,
            "ticks": 653,
            "time": 0.5441666666666667,
            "value": 0
          },
          {
            "number": 100,
            "ticks": 666,
            "time": 0.555,
            "value": 1
          },
          {
            "number": 100,
            "ticks": 1919,
            "time": 1.6517857395833333,
            "value": 1
          },
          {
            "number": 100,
            "ticks": 1920,
            "time": 1.65306125,
            "value": 1
          }
        ],
        "101": [
          {
            "number": 101,
            "ticks": 649,
            "time": 0.5408333333333334,
            "value": 0
          },
          {
            "number": 101,
            "ticks": 662,
            "time": 0.5516666666666666,
            "value": 1
          },
          {
            "number": 101,
            "ticks": 1919,
            "time": 1.6517857395833333,
            "value": 1
          },
          {
            "number": 101,
            "ticks": 1920,
            "time": 1.65306125,
            "value": 1
          }
        ]
      },
      "pitchBends": [],
      "instrument": {
        "family": "ensemble",
        "name": "synth voice",
        "number": 54
      },
      "name": "",
      "notes": [
        {
          "duration": 0.3022959687499993,
          "durationTicks": 237,
          "midi": 57,
          "name": "A3",
          "ticks": 3839,
          "time": 4.100765739583333,
          "velocity": 0.7165354330708661
        },
        {
          "duration": 0.19897962499999977,
          "durationTicks": 156,
          "midi": 57,
          "name": "A3",
          "ticks": 4080,
          "time": 4.40816375,
          "velocity": 0.7480314960629921
        },
        {
          "duration": 0.09693879166666708,
          "durationTicks": 76,
          "midi": 57,
          "name": "A3",
          "ticks": 4240,
          "time": 4.612245416666666,
          "velocity": 0.7244094488188977
        },
        {
          "duration": 0.30102045833333246,
          "durationTicks": 236,
          "midi": 56,
          "name": "G#3",
          "ticks": 4320,
          "time": 4.71428625,
          "velocity": 0.7322834645669292
        },
        {
          "duration": 0.20025513541666662,
          "durationTicks": 157,
          "midi": 56,
          "name": "G#3",
          "ticks": 4559,
          "time": 5.019133239583333,
          "velocity": 0.7480314960629921
        },
        {
          "duration": 0.09693879166666708,
          "durationTicks": 76,
          "midi": 56,
          "name": "G#3",
          "ticks": 4720,
          "time": 5.224490416666666,
          "velocity": 0.7322834645669292
        },
        {
          "duration": 0.30102045833333335,
          "durationTicks": 236,
          "midi": 56,
          "name": "G#3",
          "ticks": 4800,
          "time": 5.3265312499999995,
          "velocity": 0.7480314960629921
        },
        {
          "duration": 0.2002551354166675,
          "durationTicks": 157,
          "midi": 54,
          "name": "F#3",
          "ticks": 5039,
          "time": 5.6313782395833325,
          "velocity": 0.7322834645669292
        },
        {
          "duration": 0.09693879166666708,
          "durationTicks": 76,
          "midi": 54,
          "name": "F#3",
          "ticks": 5200,
          "time": 5.836735416666666,
          "velocity": 0.7244094488188977
        },
        {
          "duration": 0.19897962500000066,
          "durationTicks": 156,
          "midi": 57,
          "name": "A3",
          "ticks": 5280,
          "time": 5.938776249999999,
          "velocity": 0.7401574803149606
        },
        {
          "duration": 0.30102045833333246,
          "durationTicks": 236,
          "midi": 57,
          "name": "A3",
          "ticks": 5440,
          "time": 6.142857916666666,
          "velocity": 0.7322834645669292
        },
        {
          "duration": 0.48469395833333273,
          "durationTicks": 380,
          "midi": 54,
          "name": "F#3",
          "ticks": 5680,
          "time": 6.448980416666666,
          "velocity": 0.7322834645669292
        },
        {
          "duration": 0.09693879166666619,
          "durationTicks": 76,
          "midi": 54,
          "name": "F#3",
          "ticks": 7120,
          "time": 8.285715416666665,
          "velocity": 0.7244094488188977
        },
        {
          "duration": 0.19897962499999977,
          "durationTicks": 156,
          "midi": 57,
          "name": "A3",
          "ticks": 7200,
          "time": 8.387756249999999,
          "velocity": 0.7244094488188977
        },
        {
          "duration": 0.30102045833333335,
          "durationTicks": 236,
          "midi": 57,
          "name": "A3",
          "ticks": 7360,
          "time": 8.591837916666666,
          "velocity": 0.7244094488188977
        },
        {
          "duration": 0.13647961458333313,
          "durationTicks": 107,
          "midi": 56,
          "name": "G#3",
          "ticks": 7600,
          "time": 8.897960416666667,
          "velocity": 0.7244094488188977
        },
        {
          "duration": 0.19897962499999977,
          "durationTicks": 156,
          "midi": 56,
          "name": "G#3",
          "ticks": 7920,
          "time": 9.30612375,
          "velocity": 0.7401574803149606
        },
        {
          "duration": 0.09693879166666619,
          "durationTicks": 76,
          "midi": 54,
          "name": "F#3",
          "ticks": 8080,
          "time": 9.510205416666667,
          "velocity": 0.7322834645669292
        },
        {
          "duration": 0.19897962499999977,
          "durationTicks": 156,
          "midi": 56,
          "name": "G#3",
          "ticks": 8160,
          "time": 9.612246249999998,
          "velocity": 0.7401574803149606
        },
        {
          "duration": 0.09693879166666797,
          "durationTicks": 76,
          "midi": 54,
          "name": "F#3",
          "ticks": 8320,
          "time": 9.816327916666665,
          "velocity": 0.7401574803149606
        },
        {
          "duration": 0.19897962499999977,
          "durationTicks": 156,
          "midi": 56,
          "name": "G#3",
          "ticks": 8400,
          "time": 9.918368749999999,
          "velocity": 0.7480314960629921
        },
        {
          "duration": 0.17602043750000007,
          "durationTicks": 138,
          "midi": 54,
          "name": "F#3",
          "ticks": 8560,
          "time": 10.122450416666666,
          "velocity": 0.7401574803149606
        },
        {
          "duration": 0.30102045833333335,
          "durationTicks": 236,
          "midi": 56,
          "name": "G#3",
          "ticks": 8800,
          "time": 10.428572916666665,
          "velocity": 0.7322834645669292
        },
        {
          "duration": 0.09693879166666619,
          "durationTicks": 76,
          "midi": 54,
          "name": "F#3",
          "ticks": 9040,
          "time": 10.734695416666666,
          "velocity": 0.7244094488188977
        },
        {
          "duration": 0.3022959687500002,
          "durationTicks": 237,
          "midi": 57,
          "name": "A3",
          "ticks": 9119,
          "time": 10.835460739583333,
          "velocity": 0.7480314960629921
        },
        {
          "duration": 0.30102045833333335,
          "durationTicks": 236,
          "midi": 56,
          "name": "G#3",
          "ticks": 9360,
          "time": 11.142858749999998,
          "velocity": 0.7480314960629921
        },
        {
          "duration": 0.30102045833333335,
          "durationTicks": 236,
          "midi": 54,
          "name": "F#3",
          "ticks": 9600,
          "time": 11.44898125,
          "velocity": 0.7244094488188977
        },
        {
          "duration": 0.26020412500000134,
          "durationTicks": 204,
          "midi": 57,
          "name": "A3",
          "ticks": 9840,
          "time": 11.755103749999998,
          "velocity": 0.7480314960629921
        },
        {
          "duration": 0.39540822916666585,
          "durationTicks": 310,
          "midi": 54,
          "name": "F#3",
          "ticks": 10560,
          "time": 12.673471249999999,
          "velocity": 0.7165354330708661
        },
        {
          "duration": 0.3303571979166673,
          "durationTicks": 259,
          "midi": 54,
          "name": "F#3",
          "ticks": 11039,
          "time": 13.284440739583331,
          "velocity": 0.7480314960629921
        },
        {
          "duration": 0.3022959687500002,
          "durationTicks": 237,
          "midi": 57,
          "name": "A3",
          "ticks": 11519,
          "time": 13.896685739583331,
          "velocity": 0.7165354330708661
        },
        {
          "duration": 0.2002551354166684,
          "durationTicks": 157,
          "midi": 57,
          "name": "A3",
          "ticks": 11759,
          "time": 14.20280823958333,
          "velocity": 0.7322834645669292
        },
        {
          "duration": 0.09693879166666797,
          "durationTicks": 76,
          "midi": 57,
          "name": "A3",
          "ticks": 11920,
          "time": 14.408165416666664,
          "velocity": 0.7401574803149606
        },
        {
          "duration": 0.302295968750002,
          "durationTicks": 237,
          "midi": 56,
          "name": "G#3",
          "ticks": 11999,
          "time": 14.508930739583331,
          "velocity": 0.7244094488188977
        },
        {
          "duration": 0.2002551354166684,
          "durationTicks": 157,
          "midi": 56,
          "name": "G#3",
          "ticks": 12239,
          "time": 14.81505323958333,
          "velocity": 0.7401574803149606
        },
        {
          "duration": 0.09693879166666797,
          "durationTicks": 76,
          "midi": 56,
          "name": "G#3",
          "ticks": 12400,
          "time": 15.020410416666664,
          "velocity": 0.7401574803149606
        },
        {
          "duration": 0.302295968750002,
          "durationTicks": 237,
          "midi": 56,
          "name": "G#3",
          "ticks": 12479,
          "time": 15.12117573958333,
          "velocity": 0.7244094488188977
        },
        {
          "duration": 0.20025513541666662,
          "durationTicks": 157,
          "midi": 54,
          "name": "F#3",
          "ticks": 12719,
          "time": 15.427298239583331,
          "velocity": 0.7480314960629921
        },
        {
          "duration": 0.09693879166666797,
          "durationTicks": 76,
          "midi": 54,
          "name": "F#3",
          "ticks": 12880,
          "time": 15.632655416666664,
          "velocity": 0.7244094488188977
        },
        {
          "duration": 0.19897962499999977,
          "durationTicks": 156,
          "midi": 57,
          "name": "A3",
          "ticks": 12960,
          "time": 15.734696249999999,
          "velocity": 0.7480314960629921
        },
        {
          "duration": 0.30102045833333513,
          "durationTicks": 236,
          "midi": 57,
          "name": "A3",
          "ticks": 13120,
          "time": 15.938777916666664,
          "velocity": 0.7401574803149606
        },
        {
          "duration": 0.6173470416666618,
          "durationTicks": 484,
          "midi": 54,
          "name": "F#3",
          "ticks": 13360,
          "time": 16.244900416666667,
          "velocity": 0.7165354330708661
        },
        {
          "duration": 0.09821430208333126,
          "durationTicks": 77,
          "midi": 54,
          "name": "F#3",
          "ticks": 14799,
          "time": 18.08035990625,
          "velocity": 0.7401574803149606
        },
        {
          "duration": 0.19897962499999977,
          "durationTicks": 156,
          "midi": 57,
          "name": "A3",
          "ticks": 14880,
          "time": 18.183676249999998,
          "velocity": 0.7165354330708661
        },
        {
          "duration": 0.30102045833333335,
          "durationTicks": 236,
          "midi": 57,
          "name": "A3",
          "ticks": 15040,
          "time": 18.387757916666665,
          "velocity": 0.7322834645669292
        },
        {
          "duration": 0.23341840624999932,
          "durationTicks": 183,
          "midi": 56,
          "name": "G#3",
          "ticks": 15280,
          "time": 18.693880416666666,
          "velocity": 0.7244094488188977
        },
        {
          "duration": 0.3022959687499984,
          "durationTicks": 237,
          "midi": 54,
          "name": "F#3",
          "ticks": 15599,
          "time": 19.10076823958333,
          "velocity": 0.7401574803149606
        },
        {
          "duration": 0.30102045833333335,
          "durationTicks": 236,
          "midi": 56,
          "name": "G#3",
          "ticks": 15840,
          "time": 19.408166249999997,
          "velocity": 0.7401574803149606
        },
        {
          "duration": 0.30102045833333335,
          "durationTicks": 236,
          "midi": 54,
          "name": "F#3",
          "ticks": 16080,
          "time": 19.714288749999998,
          "velocity": 0.7165354330708661
        },
        {
          "duration": 0.19897962499999977,
          "durationTicks": 156,
          "midi": 56,
          "name": "G#3",
          "ticks": 16320,
          "time": 20.02041125,
          "velocity": 0.7401574803149606
        },
        {
          "duration": 0.30102045833333335,
          "durationTicks": 236,
          "midi": 54,
          "name": "F#3",
          "ticks": 16480,
          "time": 20.224492916666662,
          "velocity": 0.7165354330708661
        },
        {
          "duration": 0.40306129166666693,
          "durationTicks": 316,
          "midi": 57,
          "name": "A3",
          "ticks": 16720,
          "time": 20.530615416666663,
          "velocity": 0.7244094488188977
        },
        {
          "duration": 0.302295968750002,
          "durationTicks": 237,
          "midi": 56,
          "name": "G#3",
          "ticks": 17039,
          "time": 20.93750323958333,
          "velocity": 0.7401574803149606
        },
        {
          "duration": 0.3022959687499984,
          "durationTicks": 237,
          "midi": 54,
          "name": "F#3",
          "ticks": 17279,
          "time": 21.243625739583333,
          "velocity": 0.7480314960629921
        },
        {
          "duration": 0.31250005208332965,
          "durationTicks": 245,
          "midi": 57,
          "name": "A3",
          "ticks": 17519,
          "time": 21.549748239583334,
          "velocity": 0.7165354330708661
        },
        {
          "duration": 0.39668373958333447,
          "durationTicks": 311,
          "midi": 54,
          "name": "F#3",
          "ticks": 18239,
          "time": 22.468115739583332,
          "velocity": 0.7401574803149606
        },
        {
          "duration": 0.3303571979166655,
          "durationTicks": 259,
          "midi": 54,
          "name": "F#3",
          "ticks": 18720,
          "time": 23.08163625,
          "velocity": 0.7401574803149606
        },
        {
          "duration": 0.3022959687499984,
          "durationTicks": 237,
          "midi": 57,
          "name": "A3",
          "ticks": 19199,
          "time": 23.692605739583332,
          "velocity": 1
        },
        {
          "duration": 0.19897962499999977,
          "durationTicks": 156,
          "midi": 57,
          "name": "A3",
          "ticks": 19440,
          "time": 24.000003749999998,
          "velocity": 0.7401574803149606
        },
        {
          "duration": 0.09821430208333481,
          "durationTicks": 77,
          "midi": 57,
          "name": "A3",
          "ticks": 19599,
          "time": 24.202809906249996,
          "velocity": 0.7874015748031497
        },
        {
          "duration": 0.30102045833333335,
          "durationTicks": 236,
          "midi": 59,
          "name": "B3",
          "ticks": 19680,
          "time": 24.30612625,
          "velocity": 0.937007874015748
        },
        {
          "duration": 0.2002551354166684,
          "durationTicks": 157,
          "midi": 57,
          "name": "A3",
          "ticks": 19919,
          "time": 24.61097323958333,
          "velocity": 0.7165354330708661
        },
        {
          "duration": 0.09693879166666619,
          "durationTicks": 76,
          "midi": 57,
          "name": "A3",
          "ticks": 20080,
          "time": 24.816330416666666,
          "velocity": 0.8740157480314961
        },
        {
          "duration": 0.3022959687499984,
          "durationTicks": 237,
          "midi": 56,
          "name": "G#3",
          "ticks": 20159,
          "time": 24.91709573958333,
          "velocity": 0.9448818897637795
        },
        {
          "duration": 0.2002551354166684,
          "durationTicks": 157,
          "midi": 54,
          "name": "F#3",
          "ticks": 20399,
          "time": 25.223218239583332,
          "velocity": 0.905511811023622
        },
        {
          "duration": 0.09693879166666619,
          "durationTicks": 76,
          "midi": 54,
          "name": "F#3",
          "ticks": 20560,
          "time": 25.428575416666664,
          "velocity": 0.8503937007874016
        },
        {
          "duration": 0.20025513541666484,
          "durationTicks": 157,
          "midi": 57,
          "name": "A3",
          "ticks": 20639,
          "time": 25.529340739583333,
          "velocity": 1
        },
        {
          "duration": 0.30102045833333335,
          "durationTicks": 236,
          "midi": 57,
          "name": "A3",
          "ticks": 20800,
          "time": 25.734697916666665,
          "velocity": 1
        },
        {
          "duration": 0.3341837291666643,
          "durationTicks": 262,
          "midi": 54,
          "name": "F#3",
          "ticks": 21039,
          "time": 26.039544906249997,
          "velocity": 0.937007874015748
        },
        {
          "duration": 0.30102045833333335,
          "durationTicks": 236,
          "midi": 57,
          "name": "A3",
          "ticks": 21360,
          "time": 26.448983749999996,
          "velocity": 0.9448818897637795
        },
        {
          "duration": 0.30102045833333335,
          "durationTicks": 236,
          "midi": 54,
          "name": "F#3",
          "ticks": 21600,
          "time": 26.755106249999997,
          "velocity": 0.9448818897637795
        },
        {
          "duration": 0.3022959687499984,
          "durationTicks": 237,
          "midi": 57,
          "name": "A3",
          "ticks": 21839,
          "time": 27.059953239583333,
          "velocity": 0.9448818897637795
        },
        {
          "duration": 0.302295968750002,
          "durationTicks": 237,
          "midi": 54,
          "name": "F#3",
          "ticks": 22079,
          "time": 27.36607573958333,
          "velocity": 0.9448818897637795
        },
        {
          "duration": 0.09693879166666264,
          "durationTicks": 76,
          "midi": 54,
          "name": "F#3",
          "ticks": 22480,
          "time": 27.877555416666667,
          "velocity": 0.7322834645669292
        },
        {
          "duration": 0.2002551354166684,
          "durationTicks": 157,
          "midi": 57,
          "name": "A3",
          "ticks": 22559,
          "time": 27.97832073958333,
          "velocity": 1
        },
        {
          "duration": 0.30102045833333335,
          "durationTicks": 236,
          "midi": 57,
          "name": "A3",
          "ticks": 22720,
          "time": 28.183677916666664,
          "velocity": 1
        },
        {
          "duration": 0.13775512500000175,
          "durationTicks": 108,
          "midi": 56,
          "name": "G#3",
          "ticks": 22959,
          "time": 28.488524906249996,
          "velocity": 0.9448818897637795
        },
        {
          "duration": 0.19897962500000332,
          "durationTicks": 156,
          "midi": 56,
          "name": "G#3",
          "ticks": 23280,
          "time": 28.897963749999995,
          "velocity": 0.8503937007874016
        },
        {
          "duration": 0.09693879166666264,
          "durationTicks": 76,
          "midi": 54,
          "name": "F#3",
          "ticks": 23440,
          "time": 29.102045416666666,
          "velocity": 0.84251968503937
        },
        {
          "duration": 0.19897962500000332,
          "durationTicks": 156,
          "midi": 56,
          "name": "G#3",
          "ticks": 23520,
          "time": 29.204086249999996,
          "velocity": 0.8503937007874016
        },
        {
          "duration": 0.09693879166666619,
          "durationTicks": 76,
          "midi": 54,
          "name": "F#3",
          "ticks": 23680,
          "time": 29.408167916666663,
          "velocity": 0.7874015748031497
        },
        {
          "duration": 0.2002551354166684,
          "durationTicks": 157,
          "midi": 56,
          "name": "G#3",
          "ticks": 23759,
          "time": 29.50893323958333,
          "velocity": 0.8740157480314961
        },
        {
          "duration": 0.17602043749999652,
          "durationTicks": 138,
          "midi": 54,
          "name": "F#3",
          "ticks": 23920,
          "time": 29.714290416666664,
          "velocity": 0.9212598425196851
        },
        {
          "duration": 0.30102045833333335,
          "durationTicks": 236,
          "midi": 56,
          "name": "G#3",
          "ticks": 24160,
          "time": 30.020412916666665,
          "velocity": 0.9606299212598425
        },
        {
          "duration": 0.09693879166666619,
          "durationTicks": 76,
          "midi": 54,
          "name": "F#3",
          "ticks": 24400,
          "time": 30.326535416666665,
          "velocity": 0.8346456692913385
        },
        {
          "duration": 0.3022959687499984,
          "durationTicks": 237,
          "midi": 57,
          "name": "A3",
          "ticks": 24479,
          "time": 30.42730073958333,
          "velocity": 1
        },
        {
          "duration": 0.3022959687499984,
          "durationTicks": 237,
          "midi": 56,
          "name": "G#3",
          "ticks": 24719,
          "time": 30.73342323958333,
          "velocity": 0.937007874015748
        },
        {
          "duration": 0.3022959687499984,
          "durationTicks": 237,
          "midi": 54,
          "name": "F#3",
          "ticks": 24959,
          "time": 31.039545739583332,
          "velocity": 0.905511811023622
        },
        {
          "duration": 0.2602041249999978,
          "durationTicks": 204,
          "midi": 57,
          "name": "A3",
          "ticks": 25200,
          "time": 31.346943749999998,
          "velocity": 0.9448818897637795
        },
        {
          "duration": 0.3966837395833309,
          "durationTicks": 311,
          "midi": 54,
          "name": "F#3",
          "ticks": 25919,
          "time": 32.264035739583335,
          "velocity": 0.889763779527559
        },
        {
          "duration": 0.3316327083333377,
          "durationTicks": 260,
          "midi": 54,
          "name": "F#3",
          "ticks": 26399,
          "time": 32.87628073958333,
          "velocity": 0.889763779527559
        },
        {
          "duration": 0.30102045833333335,
          "durationTicks": 236,
          "midi": 57,
          "name": "A3",
          "ticks": 26880,
          "time": 33.48980125,
          "velocity": 1
        },
        {
          "duration": 0.19897962500000688,
          "durationTicks": 156,
          "midi": 57,
          "name": "A3",
          "ticks": 27120,
          "time": 33.79592374999999,
          "velocity": 0.7401574803149606
        },
        {
          "duration": 0.09693879166665909,
          "durationTicks": 76,
          "midi": 57,
          "name": "A3",
          "ticks": 27280,
          "time": 34.00000541666667,
          "velocity": 0.7086614173228346
        },
        {
          "duration": 0.30102045833333335,
          "durationTicks": 236,
          "midi": 56,
          "name": "G#3",
          "ticks": 27360,
          "time": 34.102046249999994,
          "velocity": 0.9448818897637795
        },
        {
          "duration": 0.2002551354166684,
          "durationTicks": 157,
          "midi": 56,
          "name": "G#3",
          "ticks": 27599,
          "time": 34.40689323958333,
          "velocity": 0.7559055118110236
        },
        {
          "duration": 0.09693879166666619,
          "durationTicks": 76,
          "midi": 56,
          "name": "G#3",
          "ticks": 27760,
          "time": 34.61225041666666,
          "velocity": 0.8346456692913385
        },
        {
          "duration": 0.30229596874999487,
          "durationTicks": 237,
          "midi": 56,
          "name": "G#3",
          "ticks": 27839,
          "time": 34.713015739583334,
          "velocity": 0.8582677165354331
        },
        {
          "duration": 0.2002551354166684,
          "durationTicks": 157,
          "midi": 54,
          "name": "F#3",
          "ticks": 28079,
          "time": 35.01913823958333,
          "velocity": 0.8188976377952756
        },
        {
          "duration": 0.09693879166666619,
          "durationTicks": 76,
          "midi": 54,
          "name": "F#3",
          "ticks": 28240,
          "time": 35.22449541666666,
          "velocity": 0.8346456692913385
        },
        {
          "duration": 0.2002551354166684,
          "durationTicks": 157,
          "midi": 57,
          "name": "A3",
          "ticks": 28319,
          "time": 35.32526073958333,
          "velocity": 1
        },
        {
          "duration": 0.30102045833333335,
          "durationTicks": 236,
          "midi": 57,
          "name": "A3",
          "ticks": 28480,
          "time": 35.530617916666664,
          "velocity": 0.8582677165354331
        },
        {
          "duration": 0.6173470416666689,
          "durationTicks": 484,
          "midi": 54,
          "name": "F#3",
          "ticks": 28720,
          "time": 35.836740416666665,
          "velocity": 0.952755905511811
        },
        {
          "duration": 0.09693879166666619,
          "durationTicks": 76,
          "midi": 54,
          "name": "F#3",
          "ticks": 30160,
          "time": 37.67347541666666,
          "velocity": 0.6929133858267716
        },
        {
          "duration": 0.19897962499999977,
          "durationTicks": 156,
          "midi": 57,
          "name": "A3",
          "ticks": 30240,
          "time": 37.775516249999995,
          "velocity": 1
        },
        {
          "duration": 0.30102045833333335,
          "durationTicks": 236,
          "midi": 57,
          "name": "A3",
          "ticks": 30400,
          "time": 37.97959791666666,
          "velocity": 0.8188976377952756
        },
        {
          "duration": 0.23596942708333302,
          "durationTicks": 185,
          "midi": 56,
          "name": "G#3",
          "ticks": 30639,
          "time": 38.284444906249995,
          "velocity": 0.9448818897637795
        },
        {
          "duration": 0.30102045833333335,
          "durationTicks": 236,
          "midi": 54,
          "name": "F#3",
          "ticks": 30960,
          "time": 38.69388375,
          "velocity": 0.8661417322834646
        },
        {
          "duration": 0.30102045833333335,
          "durationTicks": 236,
          "midi": 56,
          "name": "G#3",
          "ticks": 31200,
          "time": 39.00000625,
          "velocity": 0.9448818897637795
        },
        {
          "duration": 0.30102045833334046,
          "durationTicks": 236,
          "midi": 54,
          "name": "F#3",
          "ticks": 31440,
          "time": 39.30612874999999,
          "velocity": 0.8661417322834646
        },
        {
          "duration": 0.19897962500000688,
          "durationTicks": 156,
          "midi": 56,
          "name": "G#3",
          "ticks": 31680,
          "time": 39.61225124999999,
          "velocity": 0.9212598425196851
        },
        {
          "duration": 0.30102045833333335,
          "durationTicks": 236,
          "midi": 54,
          "name": "F#3",
          "ticks": 31840,
          "time": 39.81633291666667,
          "velocity": 0.8661417322834646
        },
        {
          "duration": 0.40306129166666693,
          "durationTicks": 316,
          "midi": 57,
          "name": "A3",
          "ticks": 32080,
          "time": 40.12245541666666,
          "velocity": 1
        },
        {
          "duration": 0.30102045833332625,
          "durationTicks": 236,
          "midi": 56,
          "name": "G#3",
          "ticks": 32400,
          "time": 40.530618749999995,
          "velocity": 0.937007874015748
        },
        {
          "duration": 0.30102045833332625,
          "durationTicks": 236,
          "midi": 54,
          "name": "F#3",
          "ticks": 32640,
          "time": 40.836741249999996,
          "velocity": 0.8582677165354331
        },
        {
          "duration": 0.31122454166666813,
          "durationTicks": 244,
          "midi": 57,
          "name": "A3",
          "ticks": 32880,
          "time": 41.14286375,
          "velocity": 1
        },
        {
          "duration": 0.30102045833332625,
          "durationTicks": 236,
          "midi": 57,
          "name": "A3",
          "ticks": 33600,
          "time": 42.06123125,
          "velocity": 0.8582677165354331
        },
        {
          "duration": 0.31122454166667524,
          "durationTicks": 244,
          "midi": 56,
          "name": "G#3",
          "ticks": 33840,
          "time": 42.36735374999999,
          "velocity": 1
        },
        {
          "duration": 0.5969388749999993,
          "durationTicks": 468,
          "midi": 56,
          "name": "G#3",
          "ticks": 34080,
          "time": 42.67347624999999,
          "velocity": 1
        },
        {
          "duration": 0.6058674479166655,
          "durationTicks": 475,
          "midi": 54,
          "name": "F#3",
          "ticks": 34560,
          "time": 43.285721249999995,
          "velocity": 1
        }
      ]
    },
    {
      "channel": 0,
      "controlChanges": {
        "0": [
          {
            "number": 0,
            "ticks": 521,
            "time": 0.4341666666666667,
            "value": 0
          }
        ],
        "32": [
          {
            "number": 32,
            "ticks": 522,
            "time": 0.435,
            "value": 0
          }
        ]
      },
      "pitchBends": [],
      "instrument": {
        "family": "piano",
        "name": "acoustic grand piano",
        "number": 0
      },
      "name": "",
      "notes": []
    },
    {
      "channel": 5,
      "controlChanges": {
        "0": [
          {
            "number": 0,
            "ticks": 1919,
            "time": 1.6517857395833333,
            "value": 0
          },
          {
            "number": 0,
            "ticks": 1920,
            "time": 1.65306125,
            "value": 0
          }
        ],
        "6": [
          {
            "number": 6,
            "ticks": 655,
            "time": 0.5458333333333333,
            "value": 0.015748031496062992
          },
          {
            "number": 6,
            "ticks": 1919,
            "time": 1.6517857395833333,
            "value": 0.015748031496062992
          },
          {
            "number": 6,
            "ticks": 1920,
            "time": 1.65306125,
            "value": 0.015748031496062992
          }
        ],
        "7": [
          {
            "number": 7,
            "ticks": 524,
            "time": 0.43666666666666665,
            "value": 0.7874015748031497
          },
          {
            "number": 7,
            "ticks": 1919,
            "time": 1.6517857395833333,
            "value": 0.7874015748031497
          },
          {
            "number": 7,
            "ticks": 1920,
            "time": 1.65306125,
            "value": 0.7874015748031497
          }
        ],
        "10": [
          {
            "number": 10,
            "ticks": 525,
            "time": 0.4375,
            "value": 0.5039370078740157
          },
          {
            "number": 10,
            "ticks": 1919,
            "time": 1.6517857395833333,
            "value": 0.5039370078740157
          },
          {
            "number": 10,
            "ticks": 1920,
            "time": 1.65306125,
            "value": 0.5039370078740157
          }
        ],
        "11": [
          {
            "number": 11,
            "ticks": 526,
            "time": 0.4383333333333334,
            "value": 1
          },
          {
            "number": 11,
            "ticks": 1919,
            "time": 1.6517857395833333,
            "value": 1
          },
          {
            "number": 11,
            "ticks": 1920,
            "time": 1.65306125,
            "value": 1
          }
        ],
        "32": [
          {
            "number": 32,
            "ticks": 1919,
            "time": 1.6517857395833333,
            "value": 0
          },
          {
            "number": 32,
            "ticks": 1920,
            "time": 1.65306125,
            "value": 0
          }
        ],
        "91": [
          {
            "number": 91,
            "ticks": 526,
            "time": 0.4383333333333334,
            "value": 0.4330708661417323
          },
          {
            "number": 91,
            "ticks": 1919,
            "time": 1.6517857395833333,
            "value": 0.4330708661417323
          },
          {
            "number": 91,
            "ticks": 1920,
            "time": 1.65306125,
            "value": 0.4330708661417323
          }
        ],
        "93": [
          {
            "number": 93,
            "ticks": 526,
            "time": 0.4383333333333334,
            "value": 0
          },
          {
            "number": 93,
            "ticks": 1919,
            "time": 1.6517857395833333,
            "value": 0
          },
          {
            "number": 93,
            "ticks": 1920,
            "time": 1.65306125,
            "value": 0
          }
        ],
        "100": [
          {
            "number": 100,
            "ticks": 651,
            "time": 0.5425,
            "value": 0
          },
          {
            "number": 100,
            "ticks": 663,
            "time": 0.5525000000000001,
            "value": 1
          },
          {
            "number": 100,
            "ticks": 1919,
            "time": 1.6517857395833333,
            "value": 1
          },
          {
            "number": 100,
            "ticks": 1920,
            "time": 1.65306125,
            "value": 1
          }
        ],
        "101": [
          {
            "number": 101,
            "ticks": 647,
            "time": 0.5391666666666667,
            "value": 0
          },
          {
            "number": 101,
            "ticks": 659,
            "time": 0.5491666666666667,
            "value": 1
          },
          {
            "number": 101,
            "ticks": 1919,
            "time": 1.6517857395833333,
            "value": 1
          },
          {
            "number": 101,
            "ticks": 1920,
            "time": 1.65306125,
            "value": 1
          }
        ]
      },
      "pitchBends": [],
      "instrument": {
        "family": "ensemble",
        "name": "voice oohs",
        "number": 53
      },
      "name": "",
      "notes": [
        {
          "duration": 1.1938777499999986,
          "durationTicks": 936,
          "midi": 69,
          "name": "A4",
          "ticks": 19199,
          "time": 23.692605739583332,
          "velocity": 0.6535433070866141
        },
        {
          "duration": 1.2232144895833308,
          "durationTicks": 959,
          "midi": 66,
          "name": "F#4",
          "ticks": 19199,
          "time": 23.692605739583332,
          "velocity": 0.6377952755905512
        },
        {
          "duration": 1.2244899999999994,
          "durationTicks": 960,
          "midi": 69,
          "name": "A4",
          "ticks": 20159,
          "time": 24.91709573958333,
          "velocity": 0.6692913385826772
        },
        {
          "duration": 1.1224491666666658,
          "durationTicks": 880,
          "midi": 73,
          "name": "C#5",
          "ticks": 20159,
          "time": 24.91709573958333,
          "velocity": 0.6535433070866141
        },
        {
          "duration": 1.238520614583333,
          "durationTicks": 971,
          "midi": 71,
          "name": "B4",
          "ticks": 21119,
          "time": 26.14158573958333,
          "velocity": 0.6377952755905512
        },
        {
          "duration": 1.2423471458333317,
          "durationTicks": 974,
          "midi": 74,
          "name": "D5",
          "ticks": 21119,
          "time": 26.14158573958333,
          "velocity": 0.6377952755905512
        },
        {
          "duration": 1.1224491666666658,
          "durationTicks": 880,
          "midi": 69,
          "name": "A4",
          "ticks": 22079,
          "time": 27.36607573958333,
          "velocity": 0.6456692913385826
        },
        {
          "duration": 1.1492348854166679,
          "durationTicks": 901,
          "midi": 73,
          "name": "C#5",
          "ticks": 22079,
          "time": 27.36607573958333,
          "velocity": 0.6614173228346457
        },
        {
          "duration": 0.1466836979166679,
          "durationTicks": 115,
          "midi": 68,
          "name": "G#4",
          "ticks": 22959,
          "time": 28.488524906249996,
          "velocity": 0.6377952755905512
        },
        {
          "duration": 0.1492347187500016,
          "durationTicks": 117,
          "midi": 71,
          "name": "B4",
          "ticks": 22959,
          "time": 28.488524906249996,
          "velocity": 0.6456692913385826
        },
        {
          "duration": 1.1938777499999986,
          "durationTicks": 936,
          "midi": 69,
          "name": "A4",
          "ticks": 26880,
          "time": 33.48980125,
          "velocity": 0.6535433070866141
        },
        {
          "duration": 1.2219389791666586,
          "durationTicks": 958,
          "midi": 66,
          "name": "F#4",
          "ticks": 26880,
          "time": 33.48980125,
          "velocity": 0.6535433070866141
        },
        {
          "duration": 1.2244899999999959,
          "durationTicks": 960,
          "midi": 69,
          "name": "A4",
          "ticks": 27839,
          "time": 34.713015739583334,
          "velocity": 0.6692913385826772
        },
        {
          "duration": 1.1224491666666623,
          "durationTicks": 880,
          "midi": 73,
          "name": "C#5",
          "ticks": 27839,
          "time": 34.713015739583334,
          "velocity": 0.6377952755905512
        },
        {
          "duration": 1.2410716354166667,
          "durationTicks": 973,
          "midi": 74,
          "name": "D5",
          "ticks": 28799,
          "time": 35.93750573958333,
          "velocity": 0.6456692913385826
        },
        {
          "duration": 1.239796124999998,
          "durationTicks": 972,
          "midi": 71,
          "name": "B4",
          "ticks": 28799,
          "time": 35.93750573958333,
          "velocity": 0.6456692913385826
        },
        {
          "duration": 1.1224491666666623,
          "durationTicks": 880,
          "midi": 69,
          "name": "A4",
          "ticks": 29759,
          "time": 37.16199573958333,
          "velocity": 0.6456692913385826
        },
        {
          "duration": 1.1479593749999992,
          "durationTicks": 900,
          "midi": 73,
          "name": "C#5",
          "ticks": 29759,
          "time": 37.16199573958333,
          "velocity": 0.6535433070866141
        },
        {
          "duration": 0.14668369791666436,
          "durationTicks": 115,
          "midi": 71,
          "name": "B4",
          "ticks": 30639,
          "time": 38.284444906249995,
          "velocity": 0.6535433070866141
        },
        {
          "duration": 0.14668369791666436,
          "durationTicks": 115,
          "midi": 68,
          "name": "G#4",
          "ticks": 30639,
          "time": 38.284444906249995,
          "velocity": 0.6614173228346457
        }
      ]
    },
    {
      "channel": 6,
      "controlChanges": {
        "0": [
          {
            "number": 0,
            "ticks": 529,
            "time": 0.44083333333333335,
            "value": 0
          },
          {
            "number": 0,
            "ticks": 1919,
            "time": 1.6517857395833333,
            "value": 0
          },
          {
            "number": 0,
            "ticks": 1920,
            "time": 1.65306125,
            "value": 0
          }
        ],
        "6": [
          {
            "number": 6,
            "ticks": 651,
            "time": 0.5425,
            "value": 0.015748031496062992
          },
          {
            "number": 6,
            "ticks": 1919,
            "time": 1.6517857395833333,
            "value": 0.015748031496062992
          },
          {
            "number": 6,
            "ticks": 1920,
            "time": 1.65306125,
            "value": 0.015748031496062992
          }
        ],
        "7": [
          {
            "number": 7,
            "ticks": 532,
            "time": 0.44333333333333336,
            "value": 0.7874015748031497
          },
          {
            "number": 7,
            "ticks": 1919,
            "time": 1.6517857395833333,
            "value": 0.7874015748031497
          },
          {
            "number": 7,
            "ticks": 1920,
            "time": 1.65306125,
            "value": 0.7874015748031497
          }
        ],
        "10": [
          {
            "number": 10,
            "ticks": 533,
            "time": 0.44416666666666665,
            "value": 0.5039370078740157
          },
          {
            "number": 10,
            "ticks": 1919,
            "time": 1.6517857395833333,
            "value": 0.5039370078740157
          },
          {
            "number": 10,
            "ticks": 1920,
            "time": 1.65306125,
            "value": 0.5039370078740157
          }
        ],
        "11": [
          {
            "number": 11,
            "ticks": 534,
            "time": 0.44500000000000006,
            "value": 1
          },
          {
            "number": 11,
            "ticks": 1919,
            "time": 1.6517857395833333,
            "value": 1
          },
          {
            "number": 11,
            "ticks": 1920,
            "time": 1.65306125,
            "value": 1
          }
        ],
        "32": [
          {
            "number": 32,
            "ticks": 530,
            "time": 0.4416666666666667,
            "value": 0
          },
          {
            "number": 32,
            "ticks": 1919,
            "time": 1.6517857395833333,
            "value": 0
          },
          {
            "number": 32,
            "ticks": 1920,
            "time": 1.65306125,
            "value": 0
          }
        ],
        "91": [
          {
            "number": 91,
            "ticks": 535,
            "time": 0.4458333333333333,
            "value": 0.4330708661417323
          },
          {
            "number": 91,
            "ticks": 1919,
            "time": 1.6517857395833333,
            "value": 0.4330708661417323
          },
          {
            "number": 91,
            "ticks": 1920,
            "time": 1.65306125,
            "value": 0.4330708661417323
          }
        ],
        "93": [
          {
            "number": 93,
            "ticks": 536,
            "time": 0.4466666666666667,
            "value": 0
          },
          {
            "number": 93,
            "ticks": 543,
            "time": 0.45250000000000007,
            "value": 0
          },
          {
            "number": 93,
            "ticks": 1919,
            "time": 1.6517857395833333,
            "value": 0
          },
          {
            "number": 93,
            "ticks": 1920,
            "time": 1.65306125,
            "value": 0
          }
        ],
        "100": [
          {
            "number": 100,
            "ticks": 647,
            "time": 0.5391666666666667,
            "value": 0
          },
          {
            "number": 100,
            "ticks": 659,
            "time": 0.5491666666666667,
            "value": 1
          },
          {
            "number": 100,
            "ticks": 1919,
            "time": 1.6517857395833333,
            "value": 1
          },
          {
            "number": 100,
            "ticks": 1920,
            "time": 1.65306125,
            "value": 1
          }
        ],
        "101": [
          {
            "number": 101,
            "ticks": 643,
            "time": 0.5358333333333334,
            "value": 0
          },
          {
            "number": 101,
            "ticks": 655,
            "time": 0.5458333333333333,
            "value": 1
          },
          {
            "number": 101,
            "ticks": 1919,
            "time": 1.6517857395833333,
            "value": 1
          },
          {
            "number": 101,
            "ticks": 1920,
            "time": 1.65306125,
            "value": 1
          }
        ]
      },
      "pitchBends": [],
      "instrument": {
        "family": "piano",
        "name": "acoustic grand piano",
        "number": 0
      },
      "name": "",
      "notes": [
        {
          "duration": 2.34566365625,
          "durationTicks": 1839,
          "midi": 42,
          "name": "F#2",
          "ticks": 3839,
          "time": 4.100765739583333,
          "velocity": 0.8031496062992126
        },
        {
          "duration": 2.3163269166666662,
          "durationTicks": 1816,
          "midi": 57,
          "name": "A3",
          "ticks": 3839,
          "time": 4.100765739583333,
          "velocity": 0.8110236220472441
        },
        {
          "duration": 2.318877937499999,
          "durationTicks": 1818,
          "midi": 54,
          "name": "F#3",
          "ticks": 3839,
          "time": 4.100765739583333,
          "velocity": 0.8110236220472441
        },
        {
          "duration": 2.3163269166666662,
          "durationTicks": 1816,
          "midi": 61,
          "name": "C#4",
          "ticks": 3839,
          "time": 4.100765739583333,
          "velocity": 0.7952755905511811
        },
        {
          "duration": 2.3533167187499995,
          "durationTicks": 1845,
          "midi": 54,
          "name": "F#3",
          "ticks": 5760,
          "time": 6.55102125,
          "velocity": 0.8267716535433071
        },
        {
          "duration": 2.3329085520833335,
          "durationTicks": 1829,
          "midi": 57,
          "name": "A3",
          "ticks": 5760,
          "time": 6.55102125,
          "velocity": 0.8267716535433071
        },
        {
          "duration": 2.308673854166665,
          "durationTicks": 1810,
          "midi": 50,
          "name": "D3",
          "ticks": 5760,
          "time": 6.55102125,
          "velocity": 0.7952755905511811
        },
        {
          "duration": 2.339286104166666,
          "durationTicks": 1834,
          "midi": 38,
          "name": "D2",
          "ticks": 5760,
          "time": 6.55102125,
          "velocity": 0.7952755905511811
        },
        {
          "duration": 2.34566365625,
          "durationTicks": 1839,
          "midi": 56,
          "name": "G#3",
          "ticks": 7679,
          "time": 8.998725739583332,
          "velocity": 0.8188976377952756
        },
        {
          "duration": 2.348214677083334,
          "durationTicks": 1841,
          "midi": 52,
          "name": "E3",
          "ticks": 7679,
          "time": 8.998725739583332,
          "velocity": 0.8188976377952756
        },
        {
          "duration": 2.3048473229166664,
          "durationTicks": 1807,
          "midi": 59,
          "name": "B3",
          "ticks": 7679,
          "time": 8.998725739583332,
          "velocity": 0.8031496062992126
        },
        {
          "duration": 2.34566365625,
          "durationTicks": 1839,
          "midi": 40,
          "name": "E2",
          "ticks": 7679,
          "time": 8.998725739583332,
          "velocity": 0.8031496062992126
        },
        {
          "duration": 2.367347333333333,
          "durationTicks": 1856,
          "midi": 37,
          "name": "C#2",
          "ticks": 9600,
          "time": 11.44898125,
          "velocity": 0.8110236220472441
        },
        {
          "duration": 2.3724493749999986,
          "durationTicks": 1860,
          "midi": 49,
          "name": "C#3",
          "ticks": 9600,
          "time": 11.44898125,
          "velocity": 0.8110236220472441
        },
        {
          "duration": 2.3826534583333316,
          "durationTicks": 1868,
          "midi": 52,
          "name": "E3",
          "ticks": 9600,
          "time": 11.44898125,
          "velocity": 0.8267716535433071
        },
        {
          "duration": 2.378826927083333,
          "durationTicks": 1865,
          "midi": 56,
          "name": "G#3",
          "ticks": 9600,
          "time": 11.44898125,
          "velocity": 0.8267716535433071
        },
        {
          "duration": 2.317602427083335,
          "durationTicks": 1817,
          "midi": 54,
          "name": "F#3",
          "ticks": 11519,
          "time": 13.896685739583331,
          "velocity": 0.8110236220472441
        },
        {
          "duration": 2.3163269166666662,
          "durationTicks": 1816,
          "midi": 57,
          "name": "A3",
          "ticks": 11519,
          "time": 13.896685739583331,
          "velocity": 0.8110236220472441
        },
        {
          "duration": 2.315051406250001,
          "durationTicks": 1815,
          "midi": 61,
          "name": "C#4",
          "ticks": 11519,
          "time": 13.896685739583331,
          "velocity": 0.7952755905511811
        },
        {
          "duration": 2.3482146770833356,
          "durationTicks": 1841,
          "midi": 42,
          "name": "F#2",
          "ticks": 11519,
          "time": 13.896685739583331,
          "velocity": 0.8031496062992126
        },
        {
          "duration": 2.338010593749999,
          "durationTicks": 1833,
          "midi": 38,
          "name": "D2",
          "ticks": 13439,
          "time": 16.345665739583332,
          "velocity": 0.7952755905511811
        },
        {
          "duration": 2.3533167187499977,
          "durationTicks": 1845,
          "midi": 54,
          "name": "F#3",
          "ticks": 13439,
          "time": 16.345665739583332,
          "velocity": 0.8267716535433071
        },
        {
          "duration": 2.309949364583332,
          "durationTicks": 1811,
          "midi": 50,
          "name": "D3",
          "ticks": 13439,
          "time": 16.345665739583332,
          "velocity": 0.7952755905511811
        },
        {
          "duration": 2.3354595729166654,
          "durationTicks": 1831,
          "midi": 57,
          "name": "A3",
          "ticks": 13439,
          "time": 16.345665739583332,
          "velocity": 0.8267716535433071
        },
        {
          "duration": 2.348214677083334,
          "durationTicks": 1841,
          "midi": 52,
          "name": "E3",
          "ticks": 15359,
          "time": 18.79464573958333,
          "velocity": 0.8188976377952756
        },
        {
          "duration": 2.3431126354166665,
          "durationTicks": 1837,
          "midi": 40,
          "name": "E2",
          "ticks": 15360,
          "time": 18.79592125,
          "velocity": 0.8031496062992126
        },
        {
          "duration": 2.3456636562499966,
          "durationTicks": 1839,
          "midi": 56,
          "name": "G#3",
          "ticks": 15360,
          "time": 18.79592125,
          "velocity": 0.8188976377952756
        },
        {
          "duration": 2.3048473229166646,
          "durationTicks": 1807,
          "midi": 59,
          "name": "B3",
          "ticks": 15360,
          "time": 18.79592125,
          "velocity": 0.8031496062992126
        },
        {
          "duration": 2.3826534583333334,
          "durationTicks": 1868,
          "midi": 52,
          "name": "E3",
          "ticks": 17279,
          "time": 21.243625739583333,
          "velocity": 0.8267716535433071
        },
        {
          "duration": 2.3673473333333312,
          "durationTicks": 1856,
          "midi": 37,
          "name": "C#2",
          "ticks": 17279,
          "time": 21.243625739583333,
          "velocity": 0.8110236220472441
        },
        {
          "duration": 2.3737248854166637,
          "durationTicks": 1861,
          "midi": 49,
          "name": "C#3",
          "ticks": 17279,
          "time": 21.243625739583333,
          "velocity": 0.8110236220472441
        },
        {
          "duration": 2.377551416666666,
          "durationTicks": 1864,
          "midi": 56,
          "name": "G#3",
          "ticks": 17281,
          "time": 21.246176760416663,
          "velocity": 0.8267716535433071
        },
        {
          "duration": 2.3163269166666645,
          "durationTicks": 1816,
          "midi": 54,
          "name": "F#3",
          "ticks": 19199,
          "time": 23.692605739583332,
          "velocity": 0.8110236220472441
        },
        {
          "duration": 2.3163269166666645,
          "durationTicks": 1816,
          "midi": 57,
          "name": "A3",
          "ticks": 19199,
          "time": 23.692605739583332,
          "velocity": 0.8110236220472441
        },
        {
          "duration": 2.3469391666666652,
          "durationTicks": 1840,
          "midi": 42,
          "name": "F#2",
          "ticks": 19199,
          "time": 23.692605739583332,
          "velocity": 0.8031496062992126
        },
        {
          "duration": 2.3163269166666645,
          "durationTicks": 1816,
          "midi": 61,
          "name": "C#4",
          "ticks": 19199,
          "time": 23.692605739583332,
          "velocity": 0.7952755905511811
        },
        {
          "duration": 2.3086738541666634,
          "durationTicks": 1810,
          "midi": 50,
          "name": "D3",
          "ticks": 21119,
          "time": 26.14158573958333,
          "velocity": 0.7952755905511811
        },
        {
          "duration": 2.3533167187500013,
          "durationTicks": 1845,
          "midi": 54,
          "name": "F#3",
          "ticks": 21119,
          "time": 26.14158573958333,
          "velocity": 0.8267716535433071
        },
        {
          "duration": 2.3392861041666677,
          "durationTicks": 1834,
          "midi": 38,
          "name": "D2",
          "ticks": 21119,
          "time": 26.14158573958333,
          "velocity": 0.7952755905511811
        },
        {
          "duration": 2.3354595729166654,
          "durationTicks": 1831,
          "midi": 57,
          "name": "A3",
          "ticks": 21119,
          "time": 26.14158573958333,
          "velocity": 0.8267716535433071
        },
        {
          "duration": 2.3482146770833303,
          "durationTicks": 1841,
          "midi": 52,
          "name": "E3",
          "ticks": 23039,
          "time": 28.590565739583333,
          "velocity": 0.8188976377952756
        },
        {
          "duration": 2.3431126354166665,
          "durationTicks": 1837,
          "midi": 40,
          "name": "E2",
          "ticks": 23039,
          "time": 28.590565739583333,
          "velocity": 0.8031496062992126
        },
        {
          "duration": 2.3469391666666617,
          "durationTicks": 1840,
          "midi": 56,
          "name": "G#3",
          "ticks": 23039,
          "time": 28.590565739583333,
          "velocity": 0.8188976377952756
        },
        {
          "duration": 2.3061228333333297,
          "durationTicks": 1808,
          "midi": 59,
          "name": "B3",
          "ticks": 23039,
          "time": 28.590565739583333,
          "velocity": 0.8031496062992126
        },
        {
          "duration": 2.372449375000002,
          "durationTicks": 1860,
          "midi": 49,
          "name": "C#3",
          "ticks": 24959,
          "time": 31.039545739583332,
          "velocity": 0.8110236220472441
        },
        {
          "duration": 2.3775514166666625,
          "durationTicks": 1864,
          "midi": 56,
          "name": "G#3",
          "ticks": 24959,
          "time": 31.039545739583332,
          "velocity": 0.8267716535433071
        },
        {
          "duration": 2.3686228437499963,
          "durationTicks": 1857,
          "midi": 37,
          "name": "C#2",
          "ticks": 24959,
          "time": 31.039545739583332,
          "velocity": 0.8110236220472441
        },
        {
          "duration": 2.3839289687499985,
          "durationTicks": 1869,
          "midi": 52,
          "name": "E3",
          "ticks": 24959,
          "time": 31.039545739583332,
          "velocity": 0.8267716535433071
        },
        {
          "duration": 2.3456636562499966,
          "durationTicks": 1839,
          "midi": 42,
          "name": "F#2",
          "ticks": 26880,
          "time": 33.48980125,
          "velocity": 0.8031496062992126
        },
        {
          "duration": 2.316326916666661,
          "durationTicks": 1816,
          "midi": 54,
          "name": "F#3",
          "ticks": 26880,
          "time": 33.48980125,
          "velocity": 0.8110236220472441
        },
        {
          "duration": 2.3137758958333308,
          "durationTicks": 1814,
          "midi": 61,
          "name": "C#4",
          "ticks": 26880,
          "time": 33.48980125,
          "velocity": 0.7952755905511811
        },
        {
          "duration": 2.316326916666661,
          "durationTicks": 1816,
          "midi": 57,
          "name": "A3",
          "ticks": 26880,
          "time": 33.48980125,
          "velocity": 0.8110236220472441
        },
        {
          "duration": 2.3533167187500013,
          "durationTicks": 1845,
          "midi": 54,
          "name": "F#3",
          "ticks": 28799,
          "time": 35.93750573958333,
          "velocity": 0.8267716535433071
        },
        {
          "duration": 2.3392861041666677,
          "durationTicks": 1834,
          "midi": 38,
          "name": "D2",
          "ticks": 28799,
          "time": 35.93750573958333,
          "velocity": 0.7952755905511811
        },
        {
          "duration": 2.309949364583332,
          "durationTicks": 1811,
          "midi": 50,
          "name": "D3",
          "ticks": 28799,
          "time": 35.93750573958333,
          "velocity": 0.7952755905511811
        },
        {
          "duration": 2.335459572916669,
          "durationTicks": 1831,
          "midi": 57,
          "name": "A3",
          "ticks": 28799,
          "time": 35.93750573958333,
          "velocity": 0.8267716535433071
        },
        {
          "duration": 2.297194260416667,
          "durationTicks": 1801,
          "midi": 40,
          "name": "E2",
          "ticks": 30639,
          "time": 38.284444906249995,
          "velocity": 0.8031496062992126
        },
        {
          "duration": 2.297194260416667,
          "durationTicks": 1801,
          "midi": 52,
          "name": "E3",
          "ticks": 30639,
          "time": 38.284444906249995,
          "velocity": 0.8188976377952756
        },
        {
          "duration": 2.297194260416667,
          "durationTicks": 1801,
          "midi": 56,
          "name": "G#3",
          "ticks": 30639,
          "time": 38.284444906249995,
          "velocity": 0.8188976377952756
        },
        {
          "duration": 2.297194260416667,
          "durationTicks": 1801,
          "midi": 59,
          "name": "B3",
          "ticks": 30639,
          "time": 38.284444906249995,
          "velocity": 0.8031496062992126
        },
        {
          "duration": 0.16326533333333515,
          "durationTicks": 128,
          "midi": 59,
          "name": "B3",
          "ticks": 32319,
          "time": 40.42730240624999,
          "velocity": 0.7086614173228346
        },
        {
          "duration": 0.2066326875000044,
          "durationTicks": 162,
          "midi": 52,
          "name": "E3",
          "ticks": 32319,
          "time": 40.42730240624999,
          "velocity": 0.7086614173228346
        },
        {
          "duration": 0.20408166666666716,
          "durationTicks": 160,
          "midi": 56,
          "name": "G#3",
          "ticks": 32319,
          "time": 40.42730240624999,
          "velocity": 0.7086614173228346
        },
        {
          "duration": 0.20153064583333702,
          "durationTicks": 158,
          "midi": 40,
          "name": "E2",
          "ticks": 32319,
          "time": 40.42730240624999,
          "velocity": 0.7086614173228346
        },
        {
          "duration": 0.1556122708333305,
          "durationTicks": 122,
          "midi": 37,
          "name": "C#2",
          "ticks": 32559,
          "time": 40.733424906249994,
          "velocity": 0.7086614173228346
        },
        {
          "duration": 0.1556122708333305,
          "durationTicks": 122,
          "midi": 49,
          "name": "C#3",
          "ticks": 32559,
          "time": 40.733424906249994,
          "velocity": 0.7086614173228346
        },
        {
          "duration": 0.1543367604166761,
          "durationTicks": 121,
          "midi": 52,
          "name": "E3",
          "ticks": 32561,
          "time": 40.735975927083324,
          "velocity": 0.7086614173228346
        },
        {
          "duration": 0.1543367604166761,
          "durationTicks": 121,
          "midi": 56,
          "name": "G#3",
          "ticks": 32561,
          "time": 40.735975927083324,
          "velocity": 0.7086614173228346
        },
        {
          "duration": 0.15943880208332217,
          "durationTicks": 125,
          "midi": 49,
          "name": "C#3",
          "ticks": 32878,
          "time": 41.140312729166666,
          "velocity": 0.7086614173228346
        },
        {
          "duration": 0.1543367604166619,
          "durationTicks": 121,
          "midi": 37,
          "name": "C#2",
          "ticks": 32880,
          "time": 41.14286375,
          "velocity": 0.7086614173228346
        },
        {
          "duration": 0.16964288541667116,
          "durationTicks": 133,
          "midi": 52,
          "name": "E3",
          "ticks": 32880,
          "time": 41.14286375,
          "velocity": 0.7244094488188977
        },
        {
          "duration": 0.16454084374999667,
          "durationTicks": 129,
          "midi": 56,
          "name": "G#3",
          "ticks": 32880,
          "time": 41.14286375,
          "velocity": 0.7244094488188977
        },
        {
          "duration": 0.15943880208333638,
          "durationTicks": 125,
          "midi": 49,
          "name": "C#3",
          "ticks": 33119,
          "time": 41.44771073958333,
          "velocity": 0.7086614173228346
        },
        {
          "duration": 0.1543367604166619,
          "durationTicks": 121,
          "midi": 37,
          "name": "C#2",
          "ticks": 33120,
          "time": 41.44898625,
          "velocity": 0.7086614173228346
        },
        {
          "duration": 0.1658163541666653,
          "durationTicks": 130,
          "midi": 56,
          "name": "G#3",
          "ticks": 33120,
          "time": 41.44898625,
          "velocity": 0.7244094488188977
        },
        {
          "duration": 0.17091839583333268,
          "durationTicks": 134,
          "midi": 52,
          "name": "E3",
          "ticks": 33120,
          "time": 41.44898625,
          "velocity": 0.7244094488188977
        },
        {
          "duration": 0.15943880208333638,
          "durationTicks": 125,
          "midi": 49,
          "name": "C#3",
          "ticks": 33359,
          "time": 41.75383323958333,
          "velocity": 0.7086614173228346
        },
        {
          "duration": 0.16454084374999667,
          "durationTicks": 129,
          "midi": 56,
          "name": "G#3",
          "ticks": 33360,
          "time": 41.75510875,
          "velocity": 0.7244094488188977
        },
        {
          "duration": 0.1556122708333305,
          "durationTicks": 122,
          "midi": 37,
          "name": "C#2",
          "ticks": 33360,
          "time": 41.75510875,
          "velocity": 0.7086614173228346
        },
        {
          "duration": 0.17091839583333268,
          "durationTicks": 134,
          "midi": 52,
          "name": "E3",
          "ticks": 33360,
          "time": 41.75510875,
          "velocity": 0.7244094488188977
        }
      ]
    },
    {
      "channel": 0,
      "controlChanges": {
        "0": [
          {
            "number": 0,
            "ticks": 537,
            "time": 0.4475,
            "value": 0
          }
        ],
        "32": [
          {
            "number": 32,
            "ticks": 538,
            "time": 0.44833333333333336,
            "value": 0
          }
        ]
      },
      "pitchBends": [],
      "instrument": {
        "family": "piano",
        "name": "acoustic grand piano",
        "number": 0
      },
      "name": "",
      "notes": []
    },
    {
      "channel": 0,
      "controlChanges": {
        "0": [
          {
            "number": 0,
            "ticks": 1919,
            "time": 1.6517857395833333,
            "value": 0
          },
          {
            "number": 0,
            "ticks": 1920,
            "time": 1.65306125,
            "value": 0
          }
        ],
        "6": [
          {
            "number": 6,
            "ticks": 652,
            "time": 0.5433333333333333,
            "value": 0.015748031496062992
          },
          {
            "number": 6,
            "ticks": 1919,
            "time": 1.6517857395833333,
            "value": 0.015748031496062992
          },
          {
            "number": 6,
            "ticks": 1920,
            "time": 1.65306125,
            "value": 0.015748031496062992
          }
        ],
        "7": [
          {
            "number": 7,
            "ticks": 540,
            "time": 0.45,
            "value": 0.7874015748031497
          },
          {
            "number": 7,
            "ticks": 1919,
            "time": 1.6517857395833333,
            "value": 0.7874015748031497
          },
          {
            "number": 7,
            "ticks": 1920,
            "time": 1.65306125,
            "value": 0.7874015748031497
          }
        ],
        "10": [
          {
            "number": 10,
            "ticks": 541,
            "time": 0.4508333333333334,
            "value": 0.8188976377952756
          },
          {
            "number": 10,
            "ticks": 1919,
            "time": 1.6517857395833333,
            "value": 0.8188976377952756
          },
          {
            "number": 10,
            "ticks": 1920,
            "time": 1.65306125,
            "value": 0.8188976377952756
          }
        ],
        "11": [
          {
            "number": 11,
            "ticks": 542,
            "time": 0.45166666666666666,
            "value": 1
          },
          {
            "number": 11,
            "ticks": 1919,
            "time": 1.6517857395833333,
            "value": 1
          },
          {
            "number": 11,
            "ticks": 1920,
            "time": 1.65306125,
            "value": 1
          }
        ],
        "32": [
          {
            "number": 32,
            "ticks": 1919,
            "time": 1.6517857395833333,
            "value": 0
          },
          {
            "number": 32,
            "ticks": 1920,
            "time": 1.65306125,
            "value": 0
          }
        ],
        "91": [
          {
            "number": 91,
            "ticks": 543,
            "time": 0.45250000000000007,
            "value": 0.4330708661417323
          },
          {
            "number": 91,
            "ticks": 1919,
            "time": 1.6517857395833333,
            "value": 0.4330708661417323
          },
          {
            "number": 91,
            "ticks": 1920,
            "time": 1.65306125,
            "value": 0.4330708661417323
          }
        ],
        "93": [
          {
            "number": 93,
            "ticks": 543,
            "time": 0.45250000000000007,
            "value": 0.15748031496062992
          },
          {
            "number": 93,
            "ticks": 1919,
            "time": 1.6517857395833333,
            "value": 0.15748031496062992
          },
          {
            "number": 93,
            "ticks": 1920,
            "time": 1.65306125,
            "value": 0.15748031496062992
          }
        ],
        "100": [
          {
            "number": 100,
            "ticks": 649,
            "time": 0.5408333333333334,
            "value": 0
          },
          {
            "number": 100,
            "ticks": 668,
            "time": 0.5566666666666666,
            "value": 1
          },
          {
            "number": 100,
            "ticks": 1919,
            "time": 1.6517857395833333,
            "value": 1
          },
          {
            "number": 100,
            "ticks": 1920,
            "time": 1.65306125,
            "value": 1
          }
        ],
        "101": [
          {
            "number": 101,
            "ticks": 645,
            "time": 0.5375,
            "value": 0
          },
          {
            "number": 101,
            "ticks": 664,
            "time": 0.5533333333333333,
            "value": 1
          },
          {
            "number": 101,
            "ticks": 1919,
            "time": 1.6517857395833333,
            "value": 1
          },
          {
            "number": 101,
            "ticks": 1920,
            "time": 1.65306125,
            "value": 1
          }
        ]
      },
      "pitchBends": [],
      "instrument": {
        "family": "synth effects",
        "name": "fx 7 (echoes)",
        "number": 102
      },
      "name": "",
      "notes": []
    },
    {
      "channel": 0,
      "controlChanges": {
        "0": [
          {
            "number": 0,
            "ticks": 545,
            "time": 0.4541666666666667,
            "value": 0
          }
        ],
        "32": [
          {
            "number": 32,
            "ticks": 546,
            "time": 0.455,
            "value": 0
          }
        ]
      },
      "pitchBends": [],
      "instrument": {
        "family": "piano",
        "name": "acoustic grand piano",
        "number": 0
      },
      "name": "",
      "notes": []
    },
    {
      "channel": 0,
      "controlChanges": {
        "0": [
          {
            "number": 0,
            "ticks": 1919,
            "time": 1.6517857395833333,
            "value": 0
          },
          {
            "number": 0,
            "ticks": 1920,
            "time": 1.65306125,
            "value": 0
          }
        ],
        "6": [
          {
            "number": 6,
            "ticks": 665,
            "time": 0.5541666666666667,
            "value": 0.015748031496062992
          },
          {
            "number": 6,
            "ticks": 1919,
            "time": 1.6517857395833333,
            "value": 0.015748031496062992
          },
          {
            "number": 6,
            "ticks": 1920,
            "time": 1.65306125,
            "value": 0.015748031496062992
          }
        ],
        "7": [
          {
            "number": 7,
            "ticks": 548,
            "time": 0.45666666666666667,
            "value": 0.6299212598425197
          },
          {
            "number": 7,
            "ticks": 1919,
            "time": 1.6517857395833333,
            "value": 0.6299212598425197
          },
          {
            "number": 7,
            "ticks": 1920,
            "time": 1.65306125,
            "value": 0.6299212598425197
          }
        ],
        "10": [
          {
            "number": 10,
            "ticks": 549,
            "time": 0.4575,
            "value": 0.5039370078740157
          },
          {
            "number": 10,
            "ticks": 1919,
            "time": 1.6517857395833333,
            "value": 0.5039370078740157
          },
          {
            "number": 10,
            "ticks": 1920,
            "time": 1.65306125,
            "value": 0.5039370078740157
          }
        ],
        "11": [
          {
            "number": 11,
            "ticks": 550,
            "time": 0.4583333333333333,
            "value": 1
          },
          {
            "number": 11,
            "ticks": 1919,
            "time": 1.6517857395833333,
            "value": 1
          },
          {
            "number": 11,
            "ticks": 1920,
            "time": 1.65306125,
            "value": 1
          }
        ],
        "32": [
          {
            "number": 32,
            "ticks": 1919,
            "time": 1.6517857395833333,
            "value": 0
          },
          {
            "number": 32,
            "ticks": 1920,
            "time": 1.65306125,
            "value": 0
          }
        ],
        "91": [
          {
            "number": 91,
            "ticks": 551,
            "time": 0.4591666666666667,
            "value": 0.4330708661417323
          },
          {
            "number": 91,
            "ticks": 558,
            "time": 0.4650000000000001,
            "value": 0.4330708661417323
          },
          {
            "number": 91,
            "ticks": 1919,
            "time": 1.6517857395833333,
            "value": 0.4330708661417323
          },
          {
            "number": 91,
            "ticks": 1920,
            "time": 1.65306125,
            "value": 0.4330708661417323
          }
        ],
        "93": [
          {
            "number": 93,
            "ticks": 552,
            "time": 0.45999999999999996,
            "value": 0.15748031496062992
          },
          {
            "number": 93,
            "ticks": 558,
            "time": 0.4650000000000001,
            "value": 0.15748031496062992
          },
          {
            "number": 93,
            "ticks": 1919,
            "time": 1.6517857395833333,
            "value": 0.15748031496062992
          },
          {
            "number": 93,
            "ticks": 1920,
            "time": 1.65306125,
            "value": 0.15748031496062992
          }
        ],
        "100": [
          {
            "number": 100,
            "ticks": 661,
            "time": 0.5508333333333334,
            "value": 0
          },
          {
            "number": 100,
            "ticks": 673,
            "time": 0.5608333333333334,
            "value": 1
          },
          {
            "number": 100,
            "ticks": 1919,
            "time": 1.6517857395833333,
            "value": 1
          },
          {
            "number": 100,
            "ticks": 1920,
            "time": 1.65306125,
            "value": 1
          }
        ],
        "101": [
          {
            "number": 101,
            "ticks": 657,
            "time": 0.5475,
            "value": 0
          },
          {
            "number": 101,
            "ticks": 669,
            "time": 0.5575,
            "value": 1
          },
          {
            "number": 101,
            "ticks": 1919,
            "time": 1.6517857395833333,
            "value": 1
          },
          {
            "number": 101,
            "ticks": 1920,
            "time": 1.65306125,
            "value": 1
          }
        ]
      },
      "pitchBends": [],
      "instrument": {
        "family": "strings",
        "name": "pizzicato strings",
        "number": 45
      },
      "name": "",
      "notes": []
    },
    {
      "channel": 9,
      "controlChanges": {
        "0": [
          {
            "number": 0,
            "ticks": 553,
            "time": 0.4608333333333334,
            "value": 0
          }
        ],
        "32": [
          {
            "number": 32,
            "ticks": 554,
            "time": 0.46166666666666667,
            "value": 0
          }
        ]
      },
      "pitchBends": [],
      "instrument": {
        "family": "drums",
        "name": "standard kit",
        "number": 0
      },
      "name": "",
      "notes": [
        {
          "duration": 0.007653062500000196,
          "durationTicks": 6,
          "midi": 36,
          "name": "C2",
          "ticks": 3839,
          "time": 4.100765739583333,
          "velocity": 0.9448818897637795
        },
        {
          "duration": 0.006377552083333349,
          "durationTicks": 5,
          "midi": 42,
          "name": "F#2",
          "ticks": 4079,
          "time": 4.406888239583333,
          "velocity": 0.7480314960629921
        },
        {
          "duration": 0.006377552083333349,
          "durationTicks": 5,
          "midi": 36,
          "name": "C2",
          "ticks": 4320,
          "time": 4.71428625,
          "velocity": 0.9448818897637795
        },
        {
          "duration": 0.006377552083333349,
          "durationTicks": 5,
          "midi": 39,
          "name": "D#2",
          "ticks": 4320,
          "time": 4.71428625,
          "velocity": 0.9212598425196851
        },
        {
          "duration": 0.006377552083333349,
          "durationTicks": 5,
          "midi": 40,
          "name": "E2",
          "ticks": 4320,
          "time": 4.71428625,
          "velocity": 0.9212598425196851
        },
        {
          "duration": 0.007653062500000196,
          "durationTicks": 6,
          "midi": 42,
          "name": "F#2",
          "ticks": 4559,
          "time": 5.019133239583333,
          "velocity": 0.7952755905511811
        },
        {
          "duration": 0.006377552083333349,
          "durationTicks": 5,
          "midi": 36,
          "name": "C2",
          "ticks": 4800,
          "time": 5.3265312499999995,
          "velocity": 0.9448818897637795
        },
        {
          "duration": 0.007653062500000196,
          "durationTicks": 6,
          "midi": 42,
          "name": "F#2",
          "ticks": 5039,
          "time": 5.6313782395833325,
          "velocity": 0.7559055118110236
        },
        {
          "duration": 0.006377552083333349,
          "durationTicks": 5,
          "midi": 36,
          "name": "C2",
          "ticks": 5280,
          "time": 5.938776249999999,
          "velocity": 0.9448818897637795
        },
        {
          "duration": 0.006377552083333349,
          "durationTicks": 5,
          "midi": 39,
          "name": "D#2",
          "ticks": 5280,
          "time": 5.938776249999999,
          "velocity": 0.9133858267716536
        },
        {
          "duration": 0.006377552083333349,
          "durationTicks": 5,
          "midi": 40,
          "name": "E2",
          "ticks": 5280,
          "time": 5.938776249999999,
          "velocity": 0.9133858267716536
        },
        {
          "duration": 0.007653062500000196,
          "durationTicks": 6,
          "midi": 42,
          "name": "F#2",
          "ticks": 5519,
          "time": 6.243623239583333,
          "velocity": 0.7480314960629921
        },
        {
          "duration": 0.006377552083332461,
          "durationTicks": 5,
          "midi": 36,
          "name": "C2",
          "ticks": 5760,
          "time": 6.55102125,
          "velocity": 0.9448818897637795
        },
        {
          "duration": 0.006377552083332461,
          "durationTicks": 5,
          "midi": 42,
          "name": "F#2",
          "ticks": 6000,
          "time": 6.85714375,
          "velocity": 0.7165354330708661
        },
        {
          "duration": 0.006377552083333349,
          "durationTicks": 5,
          "midi": 39,
          "name": "D#2",
          "ticks": 6239,
          "time": 7.161990739583333,
          "velocity": 0.9448818897637795
        },
        {
          "duration": 0.006377552083333349,
          "durationTicks": 5,
          "midi": 40,
          "name": "E2",
          "ticks": 6239,
          "time": 7.161990739583333,
          "velocity": 0.9448818897637795
        },
        {
          "duration": 0.007653062499999308,
          "durationTicks": 6,
          "midi": 36,
          "name": "C2",
          "ticks": 6239,
          "time": 7.161990739583333,
          "velocity": 0.9448818897637795
        },
        {
          "duration": 0.006377552083333349,
          "durationTicks": 5,
          "midi": 42,
          "name": "F#2",
          "ticks": 6480,
          "time": 7.469388749999999,
          "velocity": 0.7086614173228346
        },
        {
          "duration": 0.006377552083333349,
          "durationTicks": 5,
          "midi": 36,
          "name": "C2",
          "ticks": 6720,
          "time": 7.775511249999999,
          "velocity": 0.9448818897637795
        },
        {
          "duration": 0.007653062499999308,
          "durationTicks": 6,
          "midi": 42,
          "name": "F#2",
          "ticks": 6959,
          "time": 8.080358239583333,
          "velocity": 0.7480314960629921
        },
        {
          "duration": 0.006377552083332461,
          "durationTicks": 5,
          "midi": 36,
          "name": "C2",
          "ticks": 7200,
          "time": 8.387756249999999,
          "velocity": 0.9448818897637795
        },
        {
          "duration": 0.006377552083332461,
          "durationTicks": 5,
          "midi": 39,
          "name": "D#2",
          "ticks": 7200,
          "time": 8.387756249999999,
          "velocity": 0.9212598425196851
        },
        {
          "duration": 0.006377552083332461,
          "durationTicks": 5,
          "midi": 40,
          "name": "E2",
          "ticks": 7200,
          "time": 8.387756249999999,
          "velocity": 0.9212598425196851
        },
        {
          "duration": 0.006377552083332461,
          "durationTicks": 5,
          "midi": 42,
          "name": "F#2",
          "ticks": 7439,
          "time": 8.692603239583333,
          "velocity": 0.7401574803149606
        },
        {
          "duration": 0.007653062500001084,
          "durationTicks": 6,
          "midi": 36,
          "name": "C2",
          "ticks": 7679,
          "time": 8.998725739583332,
          "velocity": 0.9448818897637795
        },
        {
          "duration": 0.006377552083332461,
          "durationTicks": 5,
          "midi": 42,
          "name": "F#2",
          "ticks": 7920,
          "time": 9.30612375,
          "velocity": 0.6614173228346457
        },
        {
          "duration": 0.006377552083334237,
          "durationTicks": 5,
          "midi": 36,
          "name": "C2",
          "ticks": 8160,
          "time": 9.612246249999998,
          "velocity": 0.9448818897637795
        },
        {
          "duration": 0.006377552083334237,
          "durationTicks": 5,
          "midi": 39,
          "name": "D#2",
          "ticks": 8161,
          "time": 9.613521760416665,
          "velocity": 0.952755905511811
        },
        {
          "duration": 0.006377552083334237,
          "durationTicks": 5,
          "midi": 40,
          "name": "E2",
          "ticks": 8161,
          "time": 9.613521760416665,
          "velocity": 0.952755905511811
        },
        {
          "duration": 0.006377552083332461,
          "durationTicks": 5,
          "midi": 42,
          "name": "F#2",
          "ticks": 8399,
          "time": 9.917093239583332,
          "velocity": 0.7165354330708661
        },
        {
          "duration": 0.007653062499999308,
          "durationTicks": 6,
          "midi": 36,
          "name": "C2",
          "ticks": 8639,
          "time": 10.223215739583333,
          "velocity": 0.9448818897637795
        },
        {
          "duration": 0.006377552083332461,
          "durationTicks": 5,
          "midi": 42,
          "name": "F#2",
          "ticks": 8880,
          "time": 10.530613749999999,
          "velocity": 0.6929133858267716
        },
        {
          "duration": 0.007653062499999308,
          "durationTicks": 6,
          "midi": 39,
          "name": "D#2",
          "ticks": 9119,
          "time": 10.835460739583333,
          "velocity": 0.9133858267716536
        },
        {
          "duration": 0.007653062499999308,
          "durationTicks": 6,
          "midi": 40,
          "name": "E2",
          "ticks": 9119,
          "time": 10.835460739583333,
          "velocity": 0.9133858267716536
        },
        {
          "duration": 0.007653062499999308,
          "durationTicks": 6,
          "midi": 36,
          "name": "C2",
          "ticks": 9119,
          "time": 10.835460739583333,
          "velocity": 0.9448818897637795
        },
        {
          "duration": 0.006377552083334237,
          "durationTicks": 5,
          "midi": 42,
          "name": "F#2",
          "ticks": 9360,
          "time": 11.142858749999998,
          "velocity": 0.7165354330708661
        },
        {
          "duration": 0.006377552083334237,
          "durationTicks": 5,
          "midi": 36,
          "name": "C2",
          "ticks": 9600,
          "time": 11.44898125,
          "velocity": 0.9448818897637795
        },
        {
          "duration": 0.006377552083334237,
          "durationTicks": 5,
          "midi": 42,
          "name": "F#2",
          "ticks": 9840,
          "time": 11.755103749999998,
          "velocity": 0.6614173228346457
        },
        {
          "duration": 0.006377552083334237,
          "durationTicks": 5,
          "midi": 36,
          "name": "C2",
          "ticks": 10080,
          "time": 12.061226249999999,
          "velocity": 0.9448818897637795
        },
        {
          "duration": 0.006377552083334237,
          "durationTicks": 5,
          "midi": 39,
          "name": "D#2",
          "ticks": 10080,
          "time": 12.061226249999999,
          "velocity": 0.9448818897637795
        },
        {
          "duration": 0.006377552083334237,
          "durationTicks": 5,
          "midi": 40,
          "name": "E2",
          "ticks": 10080,
          "time": 12.061226249999999,
          "velocity": 0.9448818897637795
        },
        {
          "duration": 0.007653062500001084,
          "durationTicks": 6,
          "midi": 42,
          "name": "F#2",
          "ticks": 10320,
          "time": 12.367348749999998,
          "velocity": 0.7322834645669292
        },
        {
          "duration": 0.006377552083334237,
          "durationTicks": 5,
          "midi": 36,
          "name": "C2",
          "ticks": 10560,
          "time": 12.673471249999999,
          "velocity": 0.9448818897637795
        },
        {
          "duration": 0.006377552083334237,
          "durationTicks": 5,
          "midi": 42,
          "name": "F#2",
          "ticks": 10799,
          "time": 12.97831823958333,
          "velocity": 0.6692913385826772
        },
        {
          "duration": 0.007653062500001084,
          "durationTicks": 6,
          "midi": 39,
          "name": "D#2",
          "ticks": 11039,
          "time": 13.284440739583331,
          "velocity": 0.937007874015748
        },
        {
          "duration": 0.007653062500001084,
          "durationTicks": 6,
          "midi": 40,
          "name": "E2",
          "ticks": 11039,
          "time": 13.284440739583331,
          "velocity": 0.937007874015748
        },
        {
          "duration": 0.007653062500001084,
          "durationTicks": 6,
          "midi": 36,
          "name": "C2",
          "ticks": 11039,
          "time": 13.284440739583331,
          "velocity": 0.9448818897637795
        },
        {
          "duration": 0.007653062499999308,
          "durationTicks": 6,
          "midi": 42,
          "name": "F#2",
          "ticks": 11280,
          "time": 13.591838749999999,
          "velocity": 0.7165354330708661
        },
        {
          "duration": 0.007653062500001084,
          "durationTicks": 6,
          "midi": 36,
          "name": "C2",
          "ticks": 11519,
          "time": 13.896685739583331,
          "velocity": 0.9448818897637795
        },
        {
          "duration": 0.006377552083334237,
          "durationTicks": 5,
          "midi": 42,
          "name": "F#2",
          "ticks": 11759,
          "time": 14.20280823958333,
          "velocity": 0.7480314960629921
        },
        {
          "duration": 0.007653062500001084,
          "durationTicks": 6,
          "midi": 36,
          "name": "C2",
          "ticks": 11999,
          "time": 14.508930739583331,
          "velocity": 0.9448818897637795
        },
        {
          "duration": 0.007653062500001084,
          "durationTicks": 6,
          "midi": 39,
          "name": "D#2",
          "ticks": 11999,
          "time": 14.508930739583331,
          "velocity": 0.9448818897637795
        },
        {
          "duration": 0.007653062500001084,
          "durationTicks": 6,
          "midi": 40,
          "name": "E2",
          "ticks": 11999,
          "time": 14.508930739583331,
          "velocity": 0.9448818897637795
        },
        {
          "duration": 0.007653062500002861,
          "durationTicks": 6,
          "midi": 42,
          "name": "F#2",
          "ticks": 12239,
          "time": 14.81505323958333,
          "velocity": 0.7952755905511811
        },
        {
          "duration": 0.007653062500001084,
          "durationTicks": 6,
          "midi": 36,
          "name": "C2",
          "ticks": 12479,
          "time": 15.12117573958333,
          "velocity": 0.9448818897637795
        },
        {
          "duration": 0.007653062500001084,
          "durationTicks": 6,
          "midi": 42,
          "name": "F#2",
          "ticks": 12719,
          "time": 15.427298239583331,
          "velocity": 0.7559055118110236
        },
        {
          "duration": 0.006377552083334237,
          "durationTicks": 5,
          "midi": 39,
          "name": "D#2",
          "ticks": 12960,
          "time": 15.734696249999999,
          "velocity": 0.9133858267716536
        },
        {
          "duration": 0.006377552083334237,
          "durationTicks": 5,
          "midi": 40,
          "name": "E2",
          "ticks": 12960,
          "time": 15.734696249999999,
          "velocity": 0.9133858267716536
        },
        {
          "duration": 0.006377552083334237,
          "durationTicks": 5,
          "midi": 36,
          "name": "C2",
          "ticks": 12960,
          "time": 15.734696249999999,
          "velocity": 0.9448818897637795
        },
        {
          "duration": 0.007653062499997532,
          "durationTicks": 6,
          "midi": 42,
          "name": "F#2",
          "ticks": 13200,
          "time": 16.04081875,
          "velocity": 0.7480314960629921
        },
        {
          "duration": 0.007653062500001084,
          "durationTicks": 6,
          "midi": 36,
          "name": "C2",
          "ticks": 13439,
          "time": 16.345665739583332,
          "velocity": 0.9448818897637795
        },
        {
          "duration": 0.007653062499997532,
          "durationTicks": 6,
          "midi": 42,
          "name": "F#2",
          "ticks": 13679,
          "time": 16.651788239583333,
          "velocity": 0.7165354330708661
        },
        {
          "duration": 0.006377552083332461,
          "durationTicks": 5,
          "midi": 39,
          "name": "D#2",
          "ticks": 13920,
          "time": 16.95918625,
          "velocity": 0.9133858267716536
        },
        {
          "duration": 0.006377552083332461,
          "durationTicks": 5,
          "midi": 40,
          "name": "E2",
          "ticks": 13920,
          "time": 16.95918625,
          "velocity": 0.9133858267716536
        },
        {
          "duration": 0.006377552083332461,
          "durationTicks": 5,
          "midi": 36,
          "name": "C2",
          "ticks": 13920,
          "time": 16.95918625,
          "velocity": 0.9448818897637795
        },
        {
          "duration": 0.006377552083332461,
          "durationTicks": 5,
          "midi": 42,
          "name": "F#2",
          "ticks": 14159,
          "time": 17.26403323958333,
          "velocity": 0.7086614173228346
        },
        {
          "duration": 0.006377552083332461,
          "durationTicks": 5,
          "midi": 36,
          "name": "C2",
          "ticks": 14400,
          "time": 17.57143125,
          "velocity": 0.9448818897637795
        },
        {
          "duration": 0.006377552083336013,
          "durationTicks": 5,
          "midi": 42,
          "name": "F#2",
          "ticks": 14640,
          "time": 17.877553749999997,
          "velocity": 0.7480314960629921
        },
        {
          "duration": 0.006377552083336013,
          "durationTicks": 5,
          "midi": 36,
          "name": "C2",
          "ticks": 14880,
          "time": 18.183676249999998,
          "velocity": 0.9448818897637795
        },
        {
          "duration": 0.006377552083336013,
          "durationTicks": 5,
          "midi": 39,
          "name": "D#2",
          "ticks": 14880,
          "time": 18.183676249999998,
          "velocity": 0.9133858267716536
        },
        {
          "duration": 0.006377552083336013,
          "durationTicks": 5,
          "midi": 40,
          "name": "E2",
          "ticks": 14880,
          "time": 18.183676249999998,
          "velocity": 0.9133858267716536
        },
        {
          "duration": 0.006377552083332461,
          "durationTicks": 5,
          "midi": 42,
          "name": "F#2",
          "ticks": 15120,
          "time": 18.48979875,
          "velocity": 0.7401574803149606
        },
        {
          "duration": 0.006377552083332461,
          "durationTicks": 5,
          "midi": 36,
          "name": "C2",
          "ticks": 15360,
          "time": 18.79592125,
          "velocity": 0.9448818897637795
        },
        {
          "duration": 0.006377552083332461,
          "durationTicks": 5,
          "midi": 42,
          "name": "F#2",
          "ticks": 15599,
          "time": 19.10076823958333,
          "velocity": 0.6614173228346457
        },
        {
          "duration": 0.006377552083336013,
          "durationTicks": 5,
          "midi": 39,
          "name": "D#2",
          "ticks": 15839,
          "time": 19.40689073958333,
          "velocity": 0.9448818897637795
        },
        {
          "duration": 0.006377552083336013,
          "durationTicks": 5,
          "midi": 40,
          "name": "E2",
          "ticks": 15839,
          "time": 19.40689073958333,
          "velocity": 0.9448818897637795
        },
        {
          "duration": 0.006377552083336013,
          "durationTicks": 5,
          "midi": 36,
          "name": "C2",
          "ticks": 15840,
          "time": 19.408166249999997,
          "velocity": 0.9448818897637795
        },
        {
          "duration": 0.006377552083332461,
          "durationTicks": 5,
          "midi": 42,
          "name": "F#2",
          "ticks": 16080,
          "time": 19.714288749999998,
          "velocity": 0.7165354330708661
        },
        {
          "duration": 0.006377552083332461,
          "durationTicks": 5,
          "midi": 36,
          "name": "C2",
          "ticks": 16320,
          "time": 20.02041125,
          "velocity": 0.9448818897637795
        },
        {
          "duration": 0.007653062499997532,
          "durationTicks": 6,
          "midi": 42,
          "name": "F#2",
          "ticks": 16560,
          "time": 20.32653375,
          "velocity": 0.6929133858267716
        },
        {
          "duration": 0.006377552083336013,
          "durationTicks": 5,
          "midi": 36,
          "name": "C2",
          "ticks": 16800,
          "time": 20.632656249999997,
          "velocity": 0.9448818897637795
        },
        {
          "duration": 0.006377552083336013,
          "durationTicks": 5,
          "midi": 39,
          "name": "D#2",
          "ticks": 16800,
          "time": 20.632656249999997,
          "velocity": 0.9448818897637795
        },
        {
          "duration": 0.006377552083336013,
          "durationTicks": 5,
          "midi": 40,
          "name": "E2",
          "ticks": 16800,
          "time": 20.632656249999997,
          "velocity": 0.9448818897637795
        },
        {
          "duration": 0.008928572916669708,
          "durationTicks": 7,
          "midi": 42,
          "name": "F#2",
          "ticks": 17039,
          "time": 20.93750323958333,
          "velocity": 0.7165354330708661
        },
        {
          "duration": 0.007653062499997532,
          "durationTicks": 6,
          "midi": 36,
          "name": "C2",
          "ticks": 17279,
          "time": 21.243625739583333,
          "velocity": 0.9448818897637795
        },
        {
          "duration": 0.007653062499997532,
          "durationTicks": 6,
          "midi": 42,
          "name": "F#2",
          "ticks": 17519,
          "time": 21.549748239583334,
          "velocity": 0.6614173228346457
        },
        {
          "duration": 0.006377552083332461,
          "durationTicks": 5,
          "midi": 36,
          "name": "C2",
          "ticks": 17760,
          "time": 21.857146249999996,
          "velocity": 0.9448818897637795
        },
        {
          "duration": 0.006377552083332461,
          "durationTicks": 5,
          "midi": 39,
          "name": "D#2",
          "ticks": 17760,
          "time": 21.857146249999996,
          "velocity": 0.905511811023622
        },
        {
          "duration": 0.006377552083332461,
          "durationTicks": 5,
          "midi": 40,
          "name": "E2",
          "ticks": 17760,
          "time": 21.857146249999996,
          "velocity": 0.905511811023622
        },
        {
          "duration": 0.007653062499997532,
          "durationTicks": 6,
          "midi": 42,
          "name": "F#2",
          "ticks": 17999,
          "time": 22.16199323958333,
          "velocity": 0.7322834645669292
        },
        {
          "duration": 0.007653062499997532,
          "durationTicks": 6,
          "midi": 36,
          "name": "C2",
          "ticks": 18239,
          "time": 22.468115739583332,
          "velocity": 0.9448818897637795
        },
        {
          "duration": 0.006377552083332461,
          "durationTicks": 5,
          "midi": 42,
          "name": "F#2",
          "ticks": 18480,
          "time": 22.77551375,
          "velocity": 0.6692913385826772
        },
        {
          "duration": 0.006377552083328908,
          "durationTicks": 5,
          "midi": 36,
          "name": "C2",
          "ticks": 18720,
          "time": 23.08163625,
          "velocity": 0.9448818897637795
        },
        {
          "duration": 0.006377552083328908,
          "durationTicks": 5,
          "midi": 39,
          "name": "D#2",
          "ticks": 18720,
          "time": 23.08163625,
          "velocity": 0.9291338582677166
        },
        {
          "duration": 0.006377552083328908,
          "durationTicks": 5,
          "midi": 40,
          "name": "E2",
          "ticks": 18720,
          "time": 23.08163625,
          "velocity": 0.9291338582677166
        },
        {
          "duration": 0.006377552083332461,
          "durationTicks": 5,
          "midi": 42,
          "name": "F#2",
          "ticks": 18959,
          "time": 23.38648323958333,
          "velocity": 0.7165354330708661
        },
        {
          "duration": 0.007653062499997532,
          "durationTicks": 6,
          "midi": 42,
          "name": "F#2",
          "ticks": 19199,
          "time": 23.692605739583332,
          "velocity": 0.36220472440944884
        },
        {
          "duration": 0.007653062499997532,
          "durationTicks": 6,
          "midi": 35,
          "name": "B1",
          "ticks": 19199,
          "time": 23.692605739583332,
          "velocity": 0.9448818897637795
        },
        {
          "duration": 0.006377552083332461,
          "durationTicks": 5,
          "midi": 42,
          "name": "F#2",
          "ticks": 19439,
          "time": 23.998728239583333,
          "velocity": 0.5118110236220472
        },
        {
          "duration": 0.007653062500001084,
          "durationTicks": 6,
          "midi": 42,
          "name": "F#2",
          "ticks": 19599,
          "time": 24.202809906249996,
          "velocity": 0.5433070866141733
        },
        {
          "duration": 0.006377552083328908,
          "durationTicks": 5,
          "midi": 42,
          "name": "F#2",
          "ticks": 19679,
          "time": 24.304850739583333,
          "velocity": 0.5275590551181102
        },
        {
          "duration": 0.006377552083332461,
          "durationTicks": 5,
          "midi": 35,
          "name": "B1",
          "ticks": 19680,
          "time": 24.30612625,
          "velocity": 0.9448818897637795
        },
        {
          "duration": 0.006377552083332461,
          "durationTicks": 5,
          "midi": 39,
          "name": "D#2",
          "ticks": 19680,
          "time": 24.30612625,
          "velocity": 0.9291338582677166
        },
        {
          "duration": 0.006377552083332461,
          "durationTicks": 5,
          "midi": 40,
          "name": "E2",
          "ticks": 19680,
          "time": 24.30612625,
          "velocity": 0.9291338582677166
        },
        {
          "duration": 0.007653062499997532,
          "durationTicks": 6,
          "midi": 42,
          "name": "F#2",
          "ticks": 19919,
          "time": 24.61097323958333,
          "velocity": 0.5433070866141733
        },
        {
          "duration": 0.006377552083336013,
          "durationTicks": 5,
          "midi": 42,
          "name": "F#2",
          "ticks": 20158,
          "time": 24.915820229166663,
          "velocity": 0.5118110236220472
        },
        {
          "duration": 0.007653062499997532,
          "durationTicks": 6,
          "midi": 35,
          "name": "B1",
          "ticks": 20159,
          "time": 24.91709573958333,
          "velocity": 0.9448818897637795
        },
        {
          "duration": 0.007653062499997532,
          "durationTicks": 6,
          "midi": 42,
          "name": "F#2",
          "ticks": 20399,
          "time": 25.223218239583332,
          "velocity": 0.3464566929133858
        },
        {
          "duration": 0.006377552083332461,
          "durationTicks": 5,
          "midi": 42,
          "name": "F#2",
          "ticks": 20560,
          "time": 25.428575416666664,
          "velocity": 0.5433070866141733
        },
        {
          "duration": 0.007653062499997532,
          "durationTicks": 6,
          "midi": 39,
          "name": "D#2",
          "ticks": 20639,
          "time": 25.529340739583333,
          "velocity": 0.9133858267716536
        },
        {
          "duration": 0.007653062499997532,
          "durationTicks": 6,
          "midi": 40,
          "name": "E2",
          "ticks": 20639,
          "time": 25.529340739583333,
          "velocity": 0.9133858267716536
        },
        {
          "duration": 0.007653062499997532,
          "durationTicks": 6,
          "midi": 35,
          "name": "B1",
          "ticks": 20639,
          "time": 25.529340739583333,
          "velocity": 0.9448818897637795
        },
        {
          "duration": 0.006377552083336013,
          "durationTicks": 5,
          "midi": 42,
          "name": "F#2",
          "ticks": 20641,
          "time": 25.531891760416663,
          "velocity": 0.5196850393700787
        },
        {
          "duration": 0.007653062500001084,
          "durationTicks": 6,
          "midi": 42,
          "name": "F#2",
          "ticks": 20880,
          "time": 25.83673875,
          "velocity": 0.5196850393700787
        },
        {
          "duration": 0.007653062499997532,
          "durationTicks": 6,
          "midi": 42,
          "name": "F#2",
          "ticks": 21119,
          "time": 26.14158573958333,
          "velocity": 0.36220472440944884
        },
        {
          "duration": 0.007653062499997532,
          "durationTicks": 6,
          "midi": 35,
          "name": "B1",
          "ticks": 21119,
          "time": 26.14158573958333,
          "velocity": 0.9448818897637795
        },
        {
          "duration": 0.007653062500001084,
          "durationTicks": 6,
          "midi": 42,
          "name": "F#2",
          "ticks": 21360,
          "time": 26.448983749999996,
          "velocity": 0.5118110236220472
        },
        {
          "duration": 0.006377552083332461,
          "durationTicks": 5,
          "midi": 42,
          "name": "F#2",
          "ticks": 21520,
          "time": 26.653065416666664,
          "velocity": 0.5433070866141733
        },
        {
          "duration": 0.006377552083332461,
          "durationTicks": 5,
          "midi": 42,
          "name": "F#2",
          "ticks": 21599,
          "time": 26.753830739583332,
          "velocity": 0.5275590551181102
        },
        {
          "duration": 0.006377552083332461,
          "durationTicks": 5,
          "midi": 35,
          "name": "B1",
          "ticks": 21600,
          "time": 26.755106249999997,
          "velocity": 0.9448818897637795
        },
        {
          "duration": 0.006377552083332461,
          "durationTicks": 5,
          "midi": 39,
          "name": "D#2",
          "ticks": 21600,
          "time": 26.755106249999997,
          "velocity": 0.9133858267716536
        },
        {
          "duration": 0.006377552083332461,
          "durationTicks": 5,
          "midi": 40,
          "name": "E2",
          "ticks": 21600,
          "time": 26.755106249999997,
          "velocity": 0.9133858267716536
        },
        {
          "duration": 0.007653062499997532,
          "durationTicks": 6,
          "midi": 42,
          "name": "F#2",
          "ticks": 21839,
          "time": 27.059953239583333,
          "velocity": 0.5433070866141733
        },
        {
          "duration": 0.007653062499997532,
          "durationTicks": 6,
          "midi": 42,
          "name": "F#2",
          "ticks": 22079,
          "time": 27.36607573958333,
          "velocity": 0.5118110236220472
        },
        {
          "duration": 0.007653062499997532,
          "durationTicks": 6,
          "midi": 35,
          "name": "B1",
          "ticks": 22079,
          "time": 27.36607573958333,
          "velocity": 0.9448818897637795
        },
        {
          "duration": 0.007653062499997532,
          "durationTicks": 6,
          "midi": 42,
          "name": "F#2",
          "ticks": 22319,
          "time": 27.67219823958333,
          "velocity": 0.3464566929133858
        },
        {
          "duration": 0.006377552083328908,
          "durationTicks": 5,
          "midi": 42,
          "name": "F#2",
          "ticks": 22480,
          "time": 27.877555416666667,
          "velocity": 0.5433070866141733
        },
        {
          "duration": 0.006377552083332461,
          "durationTicks": 5,
          "midi": 42,
          "name": "F#2",
          "ticks": 22559,
          "time": 27.97832073958333,
          "velocity": 0.5196850393700787
        },
        {
          "duration": 0.006377552083332461,
          "durationTicks": 5,
          "midi": 39,
          "name": "D#2",
          "ticks": 22559,
          "time": 27.97832073958333,
          "velocity": 0.9448818897637795
        },
        {
          "duration": 0.006377552083332461,
          "durationTicks": 5,
          "midi": 40,
          "name": "E2",
          "ticks": 22559,
          "time": 27.97832073958333,
          "velocity": 0.9448818897637795
        },
        {
          "duration": 0.006377552083332461,
          "durationTicks": 5,
          "midi": 35,
          "name": "B1",
          "ticks": 22559,
          "time": 27.97832073958333,
          "velocity": 0.9448818897637795
        },
        {
          "duration": 0.007653062500001084,
          "durationTicks": 6,
          "midi": 42,
          "name": "F#2",
          "ticks": 22800,
          "time": 28.285718749999997,
          "velocity": 0.5196850393700787
        },
        {
          "duration": 0.007653062499993979,
          "durationTicks": 6,
          "midi": 42,
          "name": "F#2",
          "ticks": 23039,
          "time": 28.590565739583333,
          "velocity": 0.36220472440944884
        },
        {
          "duration": 0.007653062499993979,
          "durationTicks": 6,
          "midi": 35,
          "name": "B1",
          "ticks": 23039,
          "time": 28.590565739583333,
          "velocity": 0.9448818897637795
        },
        {
          "duration": 0.006377552083336013,
          "durationTicks": 5,
          "midi": 42,
          "name": "F#2",
          "ticks": 23281,
          "time": 28.899239260416664,
          "velocity": 0.5118110236220472
        },
        {
          "duration": 0.006377552083332461,
          "durationTicks": 5,
          "midi": 42,
          "name": "F#2",
          "ticks": 23440,
          "time": 29.102045416666666,
          "velocity": 0.5433070866141733
        },
        {
          "duration": 0.006377552083332461,
          "durationTicks": 5,
          "midi": 39,
          "name": "D#2",
          "ticks": 23519,
          "time": 29.20281073958333,
          "velocity": 0.905511811023622
        },
        {
          "duration": 0.006377552083332461,
          "durationTicks": 5,
          "midi": 40,
          "name": "E2",
          "ticks": 23519,
          "time": 29.20281073958333,
          "velocity": 0.905511811023622
        },
        {
          "duration": 0.006377552083332461,
          "durationTicks": 5,
          "midi": 35,
          "name": "B1",
          "ticks": 23520,
          "time": 29.204086249999996,
          "velocity": 0.9448818897637795
        },
        {
          "duration": 0.006377552083332461,
          "durationTicks": 5,
          "midi": 42,
          "name": "F#2",
          "ticks": 23520,
          "time": 29.204086249999996,
          "velocity": 0.5275590551181102
        },
        {
          "duration": 0.006377552083332461,
          "durationTicks": 5,
          "midi": 42,
          "name": "F#2",
          "ticks": 23759,
          "time": 29.50893323958333,
          "velocity": 0.5433070866141733
        },
        {
          "duration": 0.006377552083332461,
          "durationTicks": 5,
          "midi": 35,
          "name": "B1",
          "ticks": 24000,
          "time": 29.816331249999998,
          "velocity": 0.9448818897637795
        },
        {
          "duration": 0.006377552083332461,
          "durationTicks": 5,
          "midi": 42,
          "name": "F#2",
          "ticks": 24000,
          "time": 29.816331249999998,
          "velocity": 0.5118110236220472
        },
        {
          "duration": 0.007653062499997532,
          "durationTicks": 6,
          "midi": 42,
          "name": "F#2",
          "ticks": 24239,
          "time": 30.12117823958333,
          "velocity": 0.3464566929133858
        },
        {
          "duration": 0.007653062499997532,
          "durationTicks": 6,
          "midi": 42,
          "name": "F#2",
          "ticks": 24400,
          "time": 30.326535416666665,
          "velocity": 0.5433070866141733
        },
        {
          "duration": 0.006377552083332461,
          "durationTicks": 5,
          "midi": 42,
          "name": "F#2",
          "ticks": 24479,
          "time": 30.42730073958333,
          "velocity": 0.5196850393700787
        },
        {
          "duration": 0.007653062499997532,
          "durationTicks": 6,
          "midi": 35,
          "name": "B1",
          "ticks": 24479,
          "time": 30.42730073958333,
          "velocity": 0.9448818897637795
        },
        {
          "duration": 0.007653062499997532,
          "durationTicks": 6,
          "midi": 39,
          "name": "D#2",
          "ticks": 24479,
          "time": 30.42730073958333,
          "velocity": 0.905511811023622
        },
        {
          "duration": 0.007653062499997532,
          "durationTicks": 6,
          "midi": 40,
          "name": "E2",
          "ticks": 24479,
          "time": 30.42730073958333,
          "velocity": 0.905511811023622
        },
        {
          "duration": 0.006377552083336013,
          "durationTicks": 5,
          "midi": 42,
          "name": "F#2",
          "ticks": 24721,
          "time": 30.73597426041666,
          "velocity": 0.5196850393700787
        },
        {
          "duration": 0.007653062499997532,
          "durationTicks": 6,
          "midi": 42,
          "name": "F#2",
          "ticks": 24959,
          "time": 31.039545739583332,
          "velocity": 0.36220472440944884
        },
        {
          "duration": 0.007653062499997532,
          "durationTicks": 6,
          "midi": 35,
          "name": "B1",
          "ticks": 24959,
          "time": 31.039545739583332,
          "velocity": 0.9448818897637795
        },
        {
          "duration": 0.006377552083328908,
          "durationTicks": 5,
          "midi": 42,
          "name": "F#2",
          "ticks": 25199,
          "time": 31.345668239583333,
          "velocity": 0.5118110236220472
        },
        {
          "duration": 0.006377552083336013,
          "durationTicks": 5,
          "midi": 42,
          "name": "F#2",
          "ticks": 25359,
          "time": 31.549749906249996,
          "velocity": 0.5433070866141733
        },
        {
          "duration": 0.006377552083332461,
          "durationTicks": 5,
          "midi": 39,
          "name": "D#2",
          "ticks": 25439,
          "time": 31.65179073958333,
          "velocity": 0.9212598425196851
        },
        {
          "duration": 0.006377552083332461,
          "durationTicks": 5,
          "midi": 40,
          "name": "E2",
          "ticks": 25439,
          "time": 31.65179073958333,
          "velocity": 0.9212598425196851
        },
        {
          "duration": 0.006377552083332461,
          "durationTicks": 5,
          "midi": 42,
          "name": "F#2",
          "ticks": 25439,
          "time": 31.65179073958333,
          "velocity": 0.5275590551181102
        },
        {
          "duration": 0.006377552083332461,
          "durationTicks": 5,
          "midi": 35,
          "name": "B1",
          "ticks": 25439,
          "time": 31.65179073958333,
          "velocity": 0.9448818897637795
        },
        {
          "duration": 0.006377552083332461,
          "durationTicks": 5,
          "midi": 42,
          "name": "F#2",
          "ticks": 25679,
          "time": 31.95791323958333,
          "velocity": 0.5433070866141733
        },
        {
          "duration": 0.006377552083328908,
          "durationTicks": 5,
          "midi": 42,
          "name": "F#2",
          "ticks": 25919,
          "time": 32.264035739583335,
          "velocity": 0.5118110236220472
        },
        {
          "duration": 0.007653062499997532,
          "durationTicks": 6,
          "midi": 35,
          "name": "B1",
          "ticks": 25919,
          "time": 32.264035739583335,
          "velocity": 0.9448818897637795
        },
        {
          "duration": 0.006377552083336013,
          "durationTicks": 5,
          "midi": 42,
          "name": "F#2",
          "ticks": 26161,
          "time": 32.57270926041666,
          "velocity": 0.3464566929133858
        },
        {
          "duration": 0.006377552083336013,
          "durationTicks": 5,
          "midi": 42,
          "name": "F#2",
          "ticks": 26321,
          "time": 32.776790927083326,
          "velocity": 0.5433070866141733
        },
        {
          "duration": 0.006377552083328908,
          "durationTicks": 5,
          "midi": 39,
          "name": "D#2",
          "ticks": 26399,
          "time": 32.87628073958333,
          "velocity": 0.9133858267716536
        },
        {
          "duration": 0.006377552083328908,
          "durationTicks": 5,
          "midi": 40,
          "name": "E2",
          "ticks": 26399,
          "time": 32.87628073958333,
          "velocity": 0.9133858267716536
        },
        {
          "duration": 0.006377552083328908,
          "durationTicks": 5,
          "midi": 42,
          "name": "F#2",
          "ticks": 26399,
          "time": 32.87628073958333,
          "velocity": 0.5196850393700787
        },
        {
          "duration": 0.006377552083328908,
          "durationTicks": 5,
          "midi": 35,
          "name": "B1",
          "ticks": 26399,
          "time": 32.87628073958333,
          "velocity": 0.9448818897637795
        },
        {
          "duration": 0.006377552083328908,
          "durationTicks": 5,
          "midi": 42,
          "name": "F#2",
          "ticks": 26640,
          "time": 33.18367875,
          "velocity": 0.5196850393700787
        },
        {
          "duration": 0.006377552083328908,
          "durationTicks": 5,
          "midi": 42,
          "name": "F#2",
          "ticks": 26880,
          "time": 33.48980125,
          "velocity": 0.36220472440944884
        },
        {
          "duration": 0.006377552083328908,
          "durationTicks": 5,
          "midi": 35,
          "name": "B1",
          "ticks": 26880,
          "time": 33.48980125,
          "velocity": 0.9448818897637795
        },
        {
          "duration": 0.007653062500004637,
          "durationTicks": 6,
          "midi": 42,
          "name": "F#2",
          "ticks": 27120,
          "time": 33.79592374999999,
          "velocity": 0.5118110236220472
        },
        {
          "duration": 0.007653062499997532,
          "durationTicks": 6,
          "midi": 42,
          "name": "F#2",
          "ticks": 27280,
          "time": 34.00000541666667,
          "velocity": 0.5433070866141733
        },
        {
          "duration": 0.006377552083336013,
          "durationTicks": 5,
          "midi": 42,
          "name": "F#2",
          "ticks": 27360,
          "time": 34.102046249999994,
          "velocity": 0.5275590551181102
        },
        {
          "duration": 0.006377552083336013,
          "durationTicks": 5,
          "midi": 35,
          "name": "B1",
          "ticks": 27360,
          "time": 34.102046249999994,
          "velocity": 0.9448818897637795
        },
        {
          "duration": 0.006377552083336013,
          "durationTicks": 5,
          "midi": 39,
          "name": "D#2",
          "ticks": 27360,
          "time": 34.102046249999994,
          "velocity": 0.9448818897637795
        },
        {
          "duration": 0.006377552083336013,
          "durationTicks": 5,
          "midi": 40,
          "name": "E2",
          "ticks": 27360,
          "time": 34.102046249999994,
          "velocity": 0.9448818897637795
        },
        {
          "duration": 0.007653062499997532,
          "durationTicks": 6,
          "midi": 42,
          "name": "F#2",
          "ticks": 27599,
          "time": 34.40689323958333,
          "velocity": 0.5433070866141733
        },
        {
          "duration": 0.007653062499997532,
          "durationTicks": 6,
          "midi": 42,
          "name": "F#2",
          "ticks": 27839,
          "time": 34.713015739583334,
          "velocity": 0.5118110236220472
        },
        {
          "duration": 0.007653062499997532,
          "durationTicks": 6,
          "midi": 35,
          "name": "B1",
          "ticks": 27839,
          "time": 34.713015739583334,
          "velocity": 0.9448818897637795
        },
        {
          "duration": 0.007653062499997532,
          "durationTicks": 6,
          "midi": 42,
          "name": "F#2",
          "ticks": 28079,
          "time": 35.01913823958333,
          "velocity": 0.3464566929133858
        },
        {
          "duration": 0.006377552083328908,
          "durationTicks": 5,
          "midi": 42,
          "name": "F#2",
          "ticks": 28241,
          "time": 35.22577092708333,
          "velocity": 0.5433070866141733
        },
        {
          "duration": 0.007653062499997532,
          "durationTicks": 6,
          "midi": 35,
          "name": "B1",
          "ticks": 28319,
          "time": 35.32526073958333,
          "velocity": 0.9448818897637795
        },
        {
          "duration": 0.007653062499997532,
          "durationTicks": 6,
          "midi": 39,
          "name": "D#2",
          "ticks": 28319,
          "time": 35.32526073958333,
          "velocity": 0.9448818897637795
        },
        {
          "duration": 0.007653062499997532,
          "durationTicks": 6,
          "midi": 40,
          "name": "E2",
          "ticks": 28319,
          "time": 35.32526073958333,
          "velocity": 0.9448818897637795
        },
        {
          "duration": 0.007653062499997532,
          "durationTicks": 6,
          "midi": 42,
          "name": "F#2",
          "ticks": 28319,
          "time": 35.32526073958333,
          "velocity": 0.5196850393700787
        },
        {
          "duration": 0.006377552083336013,
          "durationTicks": 5,
          "midi": 42,
          "name": "F#2",
          "ticks": 28561,
          "time": 35.63393426041666,
          "velocity": 0.5196850393700787
        },
        {
          "duration": 0.007653062499997532,
          "durationTicks": 6,
          "midi": 42,
          "name": "F#2",
          "ticks": 28799,
          "time": 35.93750573958333,
          "velocity": 0.36220472440944884
        },
        {
          "duration": 0.007653062499997532,
          "durationTicks": 6,
          "midi": 35,
          "name": "B1",
          "ticks": 28799,
          "time": 35.93750573958333,
          "velocity": 0.9448818897637795
        },
        {
          "duration": 0.006377552083328908,
          "durationTicks": 5,
          "midi": 42,
          "name": "F#2",
          "ticks": 29040,
          "time": 36.24490375,
          "velocity": 0.5118110236220472
        },
        {
          "duration": 0.007653062499997532,
          "durationTicks": 6,
          "midi": 42,
          "name": "F#2",
          "ticks": 29200,
          "time": 36.448985416666666,
          "velocity": 0.5433070866141733
        },
        {
          "duration": 0.006377552083336013,
          "durationTicks": 5,
          "midi": 35,
          "name": "B1",
          "ticks": 29280,
          "time": 36.55102624999999,
          "velocity": 0.9448818897637795
        },
        {
          "duration": 0.006377552083336013,
          "durationTicks": 5,
          "midi": 39,
          "name": "D#2",
          "ticks": 29280,
          "time": 36.55102624999999,
          "velocity": 0.905511811023622
        },
        {
          "duration": 0.006377552083336013,
          "durationTicks": 5,
          "midi": 40,
          "name": "E2",
          "ticks": 29280,
          "time": 36.55102624999999,
          "velocity": 0.905511811023622
        },
        {
          "duration": 0.006377552083336013,
          "durationTicks": 5,
          "midi": 42,
          "name": "F#2",
          "ticks": 29280,
          "time": 36.55102624999999,
          "velocity": 0.5275590551181102
        },
        {
          "duration": 0.006377552083328908,
          "durationTicks": 5,
          "midi": 42,
          "name": "F#2",
          "ticks": 29519,
          "time": 36.85587323958333,
          "velocity": 0.5433070866141733
        },
        {
          "duration": 0.006377552083328908,
          "durationTicks": 5,
          "midi": 42,
          "name": "F#2",
          "ticks": 29759,
          "time": 37.16199573958333,
          "velocity": 0.5118110236220472
        },
        {
          "duration": 0.007653062499997532,
          "durationTicks": 6,
          "midi": 35,
          "name": "B1",
          "ticks": 29759,
          "time": 37.16199573958333,
          "velocity": 0.9448818897637795
        },
        {
          "duration": 0.006377552083328908,
          "durationTicks": 5,
          "midi": 42,
          "name": "F#2",
          "ticks": 29999,
          "time": 37.46811823958333,
          "velocity": 0.3464566929133858
        },
        {
          "duration": 0.007653062499997532,
          "durationTicks": 6,
          "midi": 42,
          "name": "F#2",
          "ticks": 30160,
          "time": 37.67347541666666,
          "velocity": 0.5433070866141733
        },
        {
          "duration": 0.006377552083328908,
          "durationTicks": 5,
          "midi": 35,
          "name": "B1",
          "ticks": 30240,
          "time": 37.775516249999995,
          "velocity": 0.9448818897637795
        },
        {
          "duration": 0.006377552083328908,
          "durationTicks": 5,
          "midi": 42,
          "name": "F#2",
          "ticks": 30240,
          "time": 37.775516249999995,
          "velocity": 0.5196850393700787
        },
        {
          "duration": 0.006377552083328908,
          "durationTicks": 5,
          "midi": 39,
          "name": "D#2",
          "ticks": 30240,
          "time": 37.775516249999995,
          "velocity": 0.905511811023622
        },
        {
          "duration": 0.006377552083328908,
          "durationTicks": 5,
          "midi": 40,
          "name": "E2",
          "ticks": 30240,
          "time": 37.775516249999995,
          "velocity": 0.905511811023622
        },
        {
          "duration": 0.006377552083328908,
          "durationTicks": 5,
          "midi": 42,
          "name": "F#2",
          "ticks": 30480,
          "time": 38.081638749999996,
          "velocity": 0.5196850393700787
        }
      ]
    },
    {
      "channel": 0,
      "controlChanges": {
        "0": [
          {
            "number": 0,
            "ticks": 1919,
            "time": 1.6517857395833333,
            "value": 0
          },
          {
            "number": 0,
            "ticks": 1920,
            "time": 1.65306125,
            "value": 0
          }
        ],
        "7": [
          {
            "number": 7,
            "ticks": 556,
            "time": 0.4633333333333334,
            "value": 1
          },
          {
            "number": 7,
            "ticks": 1919,
            "time": 1.6517857395833333,
            "value": 1
          },
          {
            "number": 7,
            "ticks": 1920,
            "time": 1.65306125,
            "value": 1
          }
        ],
        "10": [
          {
            "number": 10,
            "ticks": 557,
            "time": 0.46416666666666667,
            "value": 0.5039370078740157
          },
          {
            "number": 10,
            "ticks": 1919,
            "time": 1.6517857395833333,
            "value": 0.5039370078740157
          },
          {
            "number": 10,
            "ticks": 1920,
            "time": 1.65306125,
            "value": 0.5039370078740157
          }
        ],
        "11": [
          {
            "number": 11,
            "ticks": 558,
            "time": 0.4650000000000001,
            "value": 1
          },
          {
            "number": 11,
            "ticks": 1919,
            "time": 1.6517857395833333,
            "value": 1
          },
          {
            "number": 11,
            "ticks": 1920,
            "time": 1.65306125,
            "value": 1
          }
        ],
        "32": [
          {
            "number": 32,
            "ticks": 1919,
            "time": 1.6517857395833333,
            "value": 0
          },
          {
            "number": 32,
            "ticks": 1920,
            "time": 1.65306125,
            "value": 0
          }
        ],
        "91": [
          {
            "number": 91,
            "ticks": 558,
            "time": 0.4650000000000001,
            "value": 0.6299212598425197
          },
          {
            "number": 91,
            "ticks": 566,
            "time": 0.4716666666666667,
            "value": 0.6299212598425197
          },
          {
            "number": 91,
            "ticks": 1919,
            "time": 1.6517857395833333,
            "value": 0.6299212598425197
          },
          {
            "number": 91,
            "ticks": 1920,
            "time": 1.65306125,
            "value": 0.6299212598425197
          }
        ],
        "93": [
          {
            "number": 93,
            "ticks": 558,
            "time": 0.4650000000000001,
            "value": 0
          },
          {
            "number": 93,
            "ticks": 566,
            "time": 0.4716666666666667,
            "value": 0
          },
          {
            "number": 93,
            "ticks": 1919,
            "time": 1.6517857395833333,
            "value": 0
          },
          {
            "number": 93,
            "ticks": 1920,
            "time": 1.65306125,
            "value": 0
          }
        ]
      },
      "pitchBends": [],
      "instrument": {
        "family": "guitar",
        "name": "acoustic guitar (steel)",
        "number": 25
      },
      "name": "",
      "notes": []
    },
    {
      "channel": 0,
      "controlChanges": {
        "0": [
          {
            "number": 0,
            "ticks": 561,
            "time": 0.4675,
            "value": 0
          }
        ],
        "32": [
          {
            "number": 32,
            "ticks": 562,
            "time": 0.4683333333333334,
            "value": 0
          }
        ]
      },
      "pitchBends": [],
      "instrument": {
        "family": "piano",
        "name": "acoustic grand piano",
        "number": 0
      },
      "name": "",
      "notes": []
    },
    {
      "channel": 10,
      "controlChanges": {
        "0": [
          {
            "number": 0,
            "ticks": 1919,
            "time": 1.6517857395833333,
            "value": 0
          },
          {
            "number": 0,
            "ticks": 1920,
            "time": 1.65306125,
            "value": 0
          }
        ],
        "6": [
          {
            "number": 6,
            "ticks": 657,
            "time": 0.5475,
            "value": 0.015748031496062992
          },
          {
            "number": 6,
            "ticks": 1919,
            "time": 1.6517857395833333,
            "value": 0.015748031496062992
          },
          {
            "number": 6,
            "ticks": 1920,
            "time": 1.65306125,
            "value": 0.015748031496062992
          }
        ],
        "7": [
          {
            "number": 7,
            "ticks": 564,
            "time": 0.47000000000000003,
            "value": 0.7874015748031497
          },
          {
            "number": 7,
            "ticks": 1919,
            "time": 1.6517857395833333,
            "value": 0.7874015748031497
          },
          {
            "number": 7,
            "ticks": 1920,
            "time": 1.65306125,
            "value": 0.7874015748031497
          }
        ],
        "10": [
          {
            "number": 10,
            "ticks": 565,
            "time": 0.4708333333333333,
            "value": 0.5039370078740157
          },
          {
            "number": 10,
            "ticks": 1919,
            "time": 1.6517857395833333,
            "value": 0.5039370078740157
          },
          {
            "number": 10,
            "ticks": 1920,
            "time": 1.65306125,
            "value": 0.5039370078740157
          }
        ],
        "11": [
          {
            "number": 11,
            "ticks": 566,
            "time": 0.4716666666666667,
            "value": 1
          },
          {
            "number": 11,
            "ticks": 1919,
            "time": 1.6517857395833333,
            "value": 1
          },
          {
            "number": 11,
            "ticks": 1920,
            "time": 1.65306125,
            "value": 1
          }
        ],
        "32": [
          {
            "number": 32,
            "ticks": 1919,
            "time": 1.6517857395833333,
            "value": 0
          },
          {
            "number": 32,
            "ticks": 1920,
            "time": 1.65306125,
            "value": 0
          }
        ],
        "91": [
          {
            "number": 91,
            "ticks": 566,
            "time": 0.4716666666666667,
            "value": 0.4330708661417323
          },
          {
            "number": 91,
            "ticks": 1919,
            "time": 1.6517857395833333,
            "value": 0.4330708661417323
          },
          {
            "number": 91,
            "ticks": 1920,
            "time": 1.65306125,
            "value": 0.4330708661417323
          }
        ],
        "93": [
          {
            "number": 93,
            "ticks": 566,
            "time": 0.4716666666666667,
            "value": 0.15748031496062992
          },
          {
            "number": 93,
            "ticks": 1919,
            "time": 1.6517857395833333,
            "value": 0.15748031496062992
          },
          {
            "number": 93,
            "ticks": 1920,
            "time": 1.65306125,
            "value": 0.15748031496062992
          }
        ],
        "100": [
          {
            "number": 100,
            "ticks": 653,
            "time": 0.5441666666666667,
            "value": 0
          },
          {
            "number": 100,
            "ticks": 665,
            "time": 0.5541666666666667,
            "value": 1
          },
          {
            "number": 100,
            "ticks": 1919,
            "time": 1.6517857395833333,
            "value": 1
          },
          {
            "number": 100,
            "ticks": 1920,
            "time": 1.65306125,
            "value": 1
          }
        ],
        "101": [
          {
            "number": 101,
            "ticks": 649,
            "time": 0.5408333333333334,
            "value": 0
          },
          {
            "number": 101,
            "ticks": 661,
            "time": 0.5508333333333334,
            "value": 1
          },
          {
            "number": 101,
            "ticks": 1919,
            "time": 1.6517857395833333,
            "value": 1
          },
          {
            "number": 101,
            "ticks": 1920,
            "time": 1.65306125,
            "value": 1
          }
        ]
      },
      "pitchBends": [],
      "instrument": {
        "family": "synth pad",
        "name": "pad 2 (warm)",
        "number": 89
      },
      "name": "",
      "notes": [
        {
          "duration": 4.928572249999999,
          "durationTicks": 3864,
          "midi": 54,
          "name": "F#3",
          "ticks": 3839,
          "time": 4.100765739583333,
          "velocity": 0.7559055118110236
        },
        {
          "duration": 4.850766114583332,
          "durationTicks": 3803,
          "midi": 57,
          "name": "A3",
          "ticks": 3839,
          "time": 4.100765739583333,
          "velocity": 0.7637795275590551
        },
        {
          "duration": 4.881378364583334,
          "durationTicks": 3827,
          "midi": 52,
          "name": "E3",
          "ticks": 7679,
          "time": 8.998725739583332,
          "velocity": 0.8267716535433071
        },
        {
          "duration": 4.956633479166667,
          "durationTicks": 3886,
          "midi": 56,
          "name": "G#3",
          "ticks": 7679,
          "time": 8.998725739583332,
          "velocity": 0.84251968503937
        },
        {
          "duration": 4.94005184375,
          "durationTicks": 3873,
          "midi": 54,
          "name": "F#3",
          "ticks": 11519,
          "time": 13.896685739583331,
          "velocity": 0.8346456692913385
        },
        {
          "duration": 4.859694687499998,
          "durationTicks": 3810,
          "midi": 57,
          "name": "A3",
          "ticks": 11519,
          "time": 13.896685739583331,
          "velocity": 0.7874015748031497
        },
        {
          "duration": 4.781888552083334,
          "durationTicks": 3749,
          "midi": 52,
          "name": "E3",
          "ticks": 15360,
          "time": 18.79592125,
          "velocity": 0.7874015748031497
        },
        {
          "duration": 4.789541614583332,
          "durationTicks": 3755,
          "midi": 56,
          "name": "G#3",
          "ticks": 15360,
          "time": 18.79592125,
          "velocity": 0.8031496062992126
        },
        {
          "duration": 4.928572249999998,
          "durationTicks": 3864,
          "midi": 54,
          "name": "F#3",
          "ticks": 19199,
          "time": 23.692605739583332,
          "velocity": 0.7559055118110236
        },
        {
          "duration": 4.850766114583333,
          "durationTicks": 3803,
          "midi": 57,
          "name": "A3",
          "ticks": 19199,
          "time": 23.692605739583332,
          "velocity": 0.7637795275590551
        },
        {
          "duration": 4.881378364583334,
          "durationTicks": 3827,
          "midi": 52,
          "name": "E3",
          "ticks": 23039,
          "time": 28.590565739583333,
          "velocity": 0.8267716535433071
        },
        {
          "duration": 4.956633479166662,
          "durationTicks": 3886,
          "midi": 56,
          "name": "G#3",
          "ticks": 23039,
          "time": 28.590565739583333,
          "velocity": 0.84251968503937
        },
        {
          "duration": 4.93877633333333,
          "durationTicks": 3872,
          "midi": 54,
          "name": "F#3",
          "ticks": 26880,
          "time": 33.48980125,
          "velocity": 0.8346456692913385
        },
        {
          "duration": 4.858419177083334,
          "durationTicks": 3809,
          "midi": 57,
          "name": "A3",
          "ticks": 26880,
          "time": 33.48980125,
          "velocity": 0.7874015748031497
        }
      ]
    },
    {
      "channel": 0,
      "controlChanges": {
        "0": [
          {
            "number": 0,
            "ticks": 569,
            "time": 0.4741666666666666,
            "value": 0
          }
        ],
        "32": [
          {
            "number": 32,
            "ticks": 570,
            "time": 0.47500000000000003,
            "value": 0
          }
        ]
      },
      "pitchBends": [],
      "instrument": {
        "family": "piano",
        "name": "acoustic grand piano",
        "number": 0
      },
      "name": "",
      "notes": []
    },
    {
      "channel": 0,
      "controlChanges": {
        "0": [
          {
            "number": 0,
            "ticks": 1919,
            "time": 1.6517857395833333,
            "value": 0
          },
          {
            "number": 0,
            "ticks": 1920,
            "time": 1.65306125,
            "value": 0
          }
        ],
        "6": [
          {
            "number": 6,
            "ticks": 665,
            "time": 0.5541666666666667,
            "value": 0.015748031496062992
          },
          {
            "number": 6,
            "ticks": 1919,
            "time": 1.6517857395833333,
            "value": 0.015748031496062992
          },
          {
            "number": 6,
            "ticks": 1920,
            "time": 1.65306125,
            "value": 0.015748031496062992
          }
        ],
        "7": [
          {
            "number": 7,
            "ticks": 572,
            "time": 0.4766666666666667,
            "value": 0.7874015748031497
          },
          {
            "number": 7,
            "ticks": 1919,
            "time": 1.6517857395833333,
            "value": 0.7874015748031497
          },
          {
            "number": 7,
            "ticks": 1920,
            "time": 1.65306125,
            "value": 0.7874015748031497
          }
        ],
        "10": [
          {
            "number": 10,
            "ticks": 573,
            "time": 0.47750000000000004,
            "value": 0.5039370078740157
          },
          {
            "number": 10,
            "ticks": 1919,
            "time": 1.6517857395833333,
            "value": 0.5039370078740157
          },
          {
            "number": 10,
            "ticks": 1920,
            "time": 1.65306125,
            "value": 0.5039370078740157
          }
        ],
        "11": [
          {
            "number": 11,
            "ticks": 574,
            "time": 0.47833333333333333,
            "value": 1
          },
          {
            "number": 11,
            "ticks": 1919,
            "time": 1.6517857395833333,
            "value": 1
          },
          {
            "number": 11,
            "ticks": 1920,
            "time": 1.65306125,
            "value": 1
          }
        ],
        "32": [
          {
            "number": 32,
            "ticks": 1919,
            "time": 1.6517857395833333,
            "value": 0
          },
          {
            "number": 32,
            "ticks": 1920,
            "time": 1.65306125,
            "value": 0
          }
        ],
        "91": [
          {
            "number": 91,
            "ticks": 575,
            "time": 0.47916666666666674,
            "value": 0.4330708661417323
          },
          {
            "number": 91,
            "ticks": 1919,
            "time": 1.6517857395833333,
            "value": 0.4330708661417323
          },
          {
            "number": 91,
            "ticks": 1920,
            "time": 1.65306125,
            "value": 0.4330708661417323
          }
        ],
        "93": [
          {
            "number": 93,
            "ticks": 576,
            "time": 0.48,
            "value": 0.15748031496062992
          },
          {
            "number": 93,
            "ticks": 583,
            "time": 0.48583333333333334,
            "value": 0.15748031496062992
          },
          {
            "number": 93,
            "ticks": 1919,
            "time": 1.6517857395833333,
            "value": 0.15748031496062992
          },
          {
            "number": 93,
            "ticks": 1920,
            "time": 1.65306125,
            "value": 0.15748031496062992
          }
        ],
        "100": [
          {
            "number": 100,
            "ticks": 661,
            "time": 0.5508333333333334,
            "value": 0
          },
          {
            "number": 100,
            "ticks": 673,
            "time": 0.5608333333333334,
            "value": 1
          },
          {
            "number": 100,
            "ticks": 1919,
            "time": 1.6517857395833333,
            "value": 1
          },
          {
            "number": 100,
            "ticks": 1920,
            "time": 1.65306125,
            "value": 1
          }
        ],
        "101": [
          {
            "number": 101,
            "ticks": 657,
            "time": 0.5475,
            "value": 0
          },
          {
            "number": 101,
            "ticks": 669,
            "time": 0.5575,
            "value": 1
          },
          {
            "number": 101,
            "ticks": 1919,
            "time": 1.6517857395833333,
            "value": 1
          },
          {
            "number": 101,
            "ticks": 1920,
            "time": 1.65306125,
            "value": 1
          }
        ]
      },
      "pitchBends": [],
      "instrument": {
        "family": "synth pad",
        "name": "pad 8 (sweep)",
        "number": 95
      },
      "name": "",
      "notes": []
    },
    {
      "channel": 0,
      "controlChanges": {
        "0": [
          {
            "number": 0,
            "ticks": 577,
            "time": 0.4808333333333334,
            "value": 0
          }
        ],
        "32": [
          {
            "number": 32,
            "ticks": 578,
            "time": 0.4816666666666667,
            "value": 0
          }
        ]
      },
      "pitchBends": [],
      "instrument": {
        "family": "piano",
        "name": "acoustic grand piano",
        "number": 0
      },
      "name": "",
      "notes": []
    },
    {
      "channel": 0,
      "controlChanges": {
        "0": [
          {
            "number": 0,
            "ticks": 577,
            "time": 0.4808333333333334,
            "value": 0
          }
        ],
        "32": [
          {
            "number": 32,
            "ticks": 578,
            "time": 0.4816666666666667,
            "value": 0
          }
        ]
      },
      "pitchBends": [],
      "instrument": {
        "family": "piano",
        "name": "acoustic grand piano",
        "number": 0
      },
      "name": "",
      "notes": []
    },
    {
      "channel": 0,
      "controlChanges": {
        "0": [
          {
            "number": 0,
            "ticks": 1919,
            "time": 1.6517857395833333,
            "value": 0
          },
          {
            "number": 0,
            "ticks": 1920,
            "time": 1.65306125,
            "value": 0
          }
        ],
        "6": [
          {
            "number": 6,
            "ticks": 658,
            "time": 0.5483333333333333,
            "value": 0.015748031496062992
          },
          {
            "number": 6,
            "ticks": 1919,
            "time": 1.6517857395833333,
            "value": 0.015748031496062992
          },
          {
            "number": 6,
            "ticks": 1920,
            "time": 1.65306125,
            "value": 0.015748031496062992
          }
        ],
        "7": [
          {
            "number": 7,
            "ticks": 580,
            "time": 0.48333333333333334,
            "value": 0.7874015748031497
          },
          {
            "number": 7,
            "ticks": 1919,
            "time": 1.6517857395833333,
            "value": 0.7874015748031497
          },
          {
            "number": 7,
            "ticks": 1920,
            "time": 1.65306125,
            "value": 0.7874015748031497
          }
        ],
        "10": [
          {
            "number": 10,
            "ticks": 581,
            "time": 0.4841666666666667,
            "value": 0.5039370078740157
          },
          {
            "number": 10,
            "ticks": 1919,
            "time": 1.6517857395833333,
            "value": 0.5039370078740157
          },
          {
            "number": 10,
            "ticks": 1920,
            "time": 1.65306125,
            "value": 0.5039370078740157
          }
        ],
        "11": [
          {
            "number": 11,
            "ticks": 582,
            "time": 0.485,
            "value": 1
          },
          {
            "number": 11,
            "ticks": 1919,
            "time": 1.6517857395833333,
            "value": 1
          },
          {
            "number": 11,
            "ticks": 1920,
            "time": 1.65306125,
            "value": 1
          }
        ],
        "32": [
          {
            "number": 32,
            "ticks": 1919,
            "time": 1.6517857395833333,
            "value": 0
          },
          {
            "number": 32,
            "ticks": 1920,
            "time": 1.65306125,
            "value": 0
          }
        ],
        "91": [
          {
            "number": 91,
            "ticks": 583,
            "time": 0.48583333333333334,
            "value": 0.4330708661417323
          },
          {
            "number": 91,
            "ticks": 1919,
            "time": 1.6517857395833333,
            "value": 0.4330708661417323
          },
          {
            "number": 91,
            "ticks": 1920,
            "time": 1.65306125,
            "value": 0.4330708661417323
          }
        ],
        "93": [
          {
            "number": 93,
            "ticks": 583,
            "time": 0.48583333333333334,
            "value": 0
          },
          {
            "number": 93,
            "ticks": 1919,
            "time": 1.6517857395833333,
            "value": 0
          },
          {
            "number": 93,
            "ticks": 1920,
            "time": 1.65306125,
            "value": 0
          }
        ],
        "100": [
          {
            "number": 100,
            "ticks": 653,
            "time": 0.5441666666666667,
            "value": 0
          },
          {
            "number": 100,
            "ticks": 666,
            "time": 0.555,
            "value": 1
          },
          {
            "number": 100,
            "ticks": 1919,
            "time": 1.6517857395833333,
            "value": 1
          },
          {
            "number": 100,
            "ticks": 1920,
            "time": 1.65306125,
            "value": 1
          }
        ],
        "101": [
          {
            "number": 101,
            "ticks": 649,
            "time": 0.5408333333333334,
            "value": 0
          },
          {
            "number": 101,
            "ticks": 662,
            "time": 0.5516666666666666,
            "value": 1
          },
          {
            "number": 101,
            "ticks": 1919,
            "time": 1.6517857395833333,
            "value": 1
          },
          {
            "number": 101,
            "ticks": 1920,
            "time": 1.65306125,
            "value": 1
          }
        ]
      },
      "pitchBends": [],
      "instrument": {
        "family": "synth pad",
        "name": "pad 6 (metallic)",
        "number": 93
      },
      "name": "",
      "notes": []
    },
    {
      "channel": 13,
      "controlChanges": {
        "0": [
          {
            "number": 0,
            "ticks": 1919,
            "time": 1.6517857395833333,
            "value": 0
          },
          {
            "number": 0,
            "ticks": 1920,
            "time": 1.65306125,
            "value": 0
          }
        ],
        "6": [
          {
            "number": 6,
            "ticks": 658,
            "time": 0.5483333333333333,
            "value": 0.015748031496062992
          },
          {
            "number": 6,
            "ticks": 1919,
            "time": 1.6517857395833333,
            "value": 0.015748031496062992
          },
          {
            "number": 6,
            "ticks": 1920,
            "time": 1.65306125,
            "value": 0.015748031496062992
          }
        ],
        "7": [
          {
            "number": 7,
            "ticks": 580,
            "time": 0.48333333333333334,
            "value": 0.7874015748031497
          },
          {
            "number": 7,
            "ticks": 1919,
            "time": 1.6517857395833333,
            "value": 0.7874015748031497
          },
          {
            "number": 7,
            "ticks": 1920,
            "time": 1.65306125,
            "value": 0.7874015748031497
          }
        ],
        "10": [
          {
            "number": 10,
            "ticks": 581,
            "time": 0.4841666666666667,
            "value": 0.5039370078740157
          },
          {
            "number": 10,
            "ticks": 1919,
            "time": 1.6517857395833333,
            "value": 0.5039370078740157
          },
          {
            "number": 10,
            "ticks": 1920,
            "time": 1.65306125,
            "value": 0.5039370078740157
          }
        ],
        "11": [
          {
            "number": 11,
            "ticks": 582,
            "time": 0.485,
            "value": 1
          },
          {
            "number": 11,
            "ticks": 1919,
            "time": 1.6517857395833333,
            "value": 1
          },
          {
            "number": 11,
            "ticks": 1920,
            "time": 1.65306125,
            "value": 1
          }
        ],
        "32": [
          {
            "number": 32,
            "ticks": 1919,
            "time": 1.6517857395833333,
            "value": 0
          },
          {
            "number": 32,
            "ticks": 1920,
            "time": 1.65306125,
            "value": 0
          }
        ],
        "91": [
          {
            "number": 91,
            "ticks": 583,
            "time": 0.48583333333333334,
            "value": 0.4330708661417323
          },
          {
            "number": 91,
            "ticks": 1919,
            "time": 1.6517857395833333,
            "value": 0.4330708661417323
          },
          {
            "number": 91,
            "ticks": 1920,
            "time": 1.65306125,
            "value": 0.4330708661417323
          }
        ],
        "93": [
          {
            "number": 93,
            "ticks": 583,
            "time": 0.48583333333333334,
            "value": 0
          },
          {
            "number": 93,
            "ticks": 1919,
            "time": 1.6517857395833333,
            "value": 0
          },
          {
            "number": 93,
            "ticks": 1920,
            "time": 1.65306125,
            "value": 0
          }
        ],
        "100": [
          {
            "number": 100,
            "ticks": 653,
            "time": 0.5441666666666667,
            "value": 0
          },
          {
            "number": 100,
            "ticks": 666,
            "time": 0.555,
            "value": 1
          },
          {
            "number": 100,
            "ticks": 1919,
            "time": 1.6517857395833333,
            "value": 1
          },
          {
            "number": 100,
            "ticks": 1920,
            "time": 1.65306125,
            "value": 1
          }
        ],
        "101": [
          {
            "number": 101,
            "ticks": 649,
            "time": 0.5408333333333334,
            "value": 0
          },
          {
            "number": 101,
            "ticks": 662,
            "time": 0.5516666666666666,
            "value": 1
          },
          {
            "number": 101,
            "ticks": 1919,
            "time": 1.6517857395833333,
            "value": 1
          },
          {
            "number": 101,
            "ticks": 1920,
            "time": 1.65306125,
            "value": 1
          }
        ]
      },
      "pitchBends": [],
      "instrument": {
        "family": "ensemble",
        "name": "synthstrings 1",
        "number": 50
      },
      "name": "",
      "notes": [
        {
          "duration": 2.4196432604166658,
          "durationTicks": 1897,
          "midi": 42,
          "name": "F#2",
          "ticks": 3839,
          "time": 4.100765739583333,
          "velocity": 0.7952755905511811
        },
        {
          "duration": 2.4298473437499997,
          "durationTicks": 1905,
          "midi": 54,
          "name": "F#3",
          "ticks": 3839,
          "time": 4.100765739583333,
          "velocity": 0.8110236220472441
        },
        {
          "duration": 2.496173885416667,
          "durationTicks": 1957,
          "midi": 38,
          "name": "D2",
          "ticks": 5759,
          "time": 6.549745739583333,
          "velocity": 0.8188976377952756
        },
        {
          "duration": 2.535714708333332,
          "durationTicks": 1988,
          "midi": 50,
          "name": "D3",
          "ticks": 5759,
          "time": 6.549745739583333,
          "velocity": 0.8267716535433071
        },
        {
          "duration": 2.427296322916666,
          "durationTicks": 1903,
          "midi": 40,
          "name": "E2",
          "ticks": 7679,
          "time": 8.998725739583332,
          "velocity": 0.8031496062992126
        },
        {
          "duration": 2.485969802083334,
          "durationTicks": 1949,
          "midi": 52,
          "name": "E3",
          "ticks": 7679,
          "time": 8.998725739583332,
          "velocity": 0.8031496062992126
        },
        {
          "duration": 2.3954085625,
          "durationTicks": 1878,
          "midi": 37,
          "name": "C#2",
          "ticks": 9600,
          "time": 11.44898125,
          "velocity": 0.8031496062992126
        },
        {
          "duration": 2.408163666666667,
          "durationTicks": 1888,
          "midi": 49,
          "name": "C#3",
          "ticks": 9600,
          "time": 11.44898125,
          "velocity": 0.8110236220472441
        },
        {
          "duration": 2.427296322916666,
          "durationTicks": 1903,
          "midi": 54,
          "name": "F#3",
          "ticks": 11519,
          "time": 13.896685739583331,
          "velocity": 0.8188976377952756
        },
        {
          "duration": 2.419643260416665,
          "durationTicks": 1897,
          "midi": 42,
          "name": "F#2",
          "ticks": 11519,
          "time": 13.896685739583331,
          "velocity": 0.8110236220472441
        },
        {
          "duration": 2.536990218749999,
          "durationTicks": 1989,
          "midi": 50,
          "name": "D3",
          "ticks": 13439,
          "time": 16.345665739583332,
          "velocity": 0.7952755905511811
        },
        {
          "duration": 2.497449395833332,
          "durationTicks": 1958,
          "midi": 38,
          "name": "D2",
          "ticks": 13439,
          "time": 16.345665739583332,
          "velocity": 0.7952755905511811
        },
        {
          "duration": 2.426020812499999,
          "durationTicks": 1902,
          "midi": 40,
          "name": "E2",
          "ticks": 15360,
          "time": 18.79592125,
          "velocity": 0.8188976377952756
        },
        {
          "duration": 2.4846942916666634,
          "durationTicks": 1948,
          "midi": 52,
          "name": "E3",
          "ticks": 15360,
          "time": 18.79592125,
          "velocity": 0.8110236220472441
        },
        {
          "duration": 2.396684072916667,
          "durationTicks": 1879,
          "midi": 37,
          "name": "C#2",
          "ticks": 17279,
          "time": 21.243625739583333,
          "velocity": 0.8188976377952756
        },
        {
          "duration": 2.4081636666666704,
          "durationTicks": 1888,
          "midi": 49,
          "name": "C#3",
          "ticks": 17281,
          "time": 21.246176760416663,
          "velocity": 0.8110236220472441
        },
        {
          "duration": 2.4196432604166667,
          "durationTicks": 1897,
          "midi": 42,
          "name": "F#2",
          "ticks": 19199,
          "time": 23.692605739583332,
          "velocity": 0.8031496062992126
        },
        {
          "duration": 2.4285718333333293,
          "durationTicks": 1904,
          "midi": 54,
          "name": "F#3",
          "ticks": 19199,
          "time": 23.692605739583332,
          "velocity": 0.7952755905511811
        },
        {
          "duration": 2.535714708333334,
          "durationTicks": 1988,
          "midi": 50,
          "name": "D3",
          "ticks": 21119,
          "time": 26.14158573958333,
          "velocity": 0.8031496062992126
        },
        {
          "duration": 2.497449395833332,
          "durationTicks": 1958,
          "midi": 38,
          "name": "D2",
          "ticks": 21119,
          "time": 26.14158573958333,
          "velocity": 0.8031496062992126
        },
        {
          "duration": 2.4846942916666634,
          "durationTicks": 1948,
          "midi": 52,
          "name": "E3",
          "ticks": 23039,
          "time": 28.590565739583333,
          "velocity": 0.8267716535433071
        },
        {
          "duration": 2.427296322916664,
          "durationTicks": 1903,
          "midi": 40,
          "name": "E2",
          "ticks": 23039,
          "time": 28.590565739583333,
          "velocity": 0.8188976377952756
        },
        {
          "duration": 2.408163666666667,
          "durationTicks": 1888,
          "midi": 49,
          "name": "C#3",
          "ticks": 24959,
          "time": 31.039545739583332,
          "velocity": 0.8188976377952756
        },
        {
          "duration": 2.3966840729166634,
          "durationTicks": 1879,
          "midi": 37,
          "name": "C#2",
          "ticks": 24961,
          "time": 31.042096760416662,
          "velocity": 0.8267716535433071
        },
        {
          "duration": 2.419643260416663,
          "durationTicks": 1897,
          "midi": 42,
          "name": "F#2",
          "ticks": 26880,
          "time": 33.48980125,
          "velocity": 0.8188976377952756
        },
        {
          "duration": 2.4272963229166606,
          "durationTicks": 1903,
          "midi": 54,
          "name": "F#3",
          "ticks": 26880,
          "time": 33.48980125,
          "velocity": 0.7952755905511811
        },
        {
          "duration": 2.536990218749999,
          "durationTicks": 1989,
          "midi": 50,
          "name": "D3",
          "ticks": 28799,
          "time": 35.93750573958333,
          "velocity": 0.8031496062992126
        },
        {
          "duration": 2.4974493958333355,
          "durationTicks": 1958,
          "midi": 38,
          "name": "D2",
          "ticks": 28799,
          "time": 35.93750573958333,
          "velocity": 0.8267716535433071
        }
      ]
    },
    {
      "channel": 0,
      "controlChanges": {
        "0": [
          {
            "number": 0,
            "ticks": 585,
            "time": 0.48750000000000004,
            "value": 0
          }
        ],
        "32": [
          {
            "number": 32,
            "ticks": 586,
            "time": 0.4883333333333334,
            "value": 0
          }
        ]
      },
      "pitchBends": [],
      "instrument": {
        "family": "piano",
        "name": "acoustic grand piano",
        "number": 0
      },
      "name": "",
      "notes": []
    },
    {
      "channel": 14,
      "controlChanges": {
        "0": [
          {
            "number": 0,
            "ticks": 1919,
            "time": 1.6517857395833333,
            "value": 0
          },
          {
            "number": 0,
            "ticks": 1920,
            "time": 1.65306125,
            "value": 0
          }
        ],
        "6": [
          {
            "number": 6,
            "ticks": 657,
            "time": 0.5475,
            "value": 0.015748031496062992
          },
          {
            "number": 6,
            "ticks": 1919,
            "time": 1.6517857395833333,
            "value": 0.015748031496062992
          },
          {
            "number": 6,
            "ticks": 1920,
            "time": 1.65306125,
            "value": 0.015748031496062992
          }
        ],
        "7": [
          {
            "number": 7,
            "ticks": 588,
            "time": 0.49000000000000005,
            "value": 0.7874015748031497
          },
          {
            "number": 7,
            "ticks": 1919,
            "time": 1.6517857395833333,
            "value": 0.7874015748031497
          },
          {
            "number": 7,
            "ticks": 1920,
            "time": 1.65306125,
            "value": 0.7874015748031497
          }
        ],
        "10": [
          {
            "number": 10,
            "ticks": 589,
            "time": 0.49083333333333334,
            "value": 0.5039370078740157
          },
          {
            "number": 10,
            "ticks": 1919,
            "time": 1.6517857395833333,
            "value": 0.5039370078740157
          },
          {
            "number": 10,
            "ticks": 1920,
            "time": 1.65306125,
            "value": 0.5039370078740157
          }
        ],
        "11": [
          {
            "number": 11,
            "ticks": 590,
            "time": 0.4916666666666667,
            "value": 1
          },
          {
            "number": 11,
            "ticks": 597,
            "time": 0.4975,
            "value": 1
          },
          {
            "number": 11,
            "ticks": 1919,
            "time": 1.6517857395833333,
            "value": 1
          },
          {
            "number": 11,
            "ticks": 1920,
            "time": 1.65306125,
            "value": 1
          }
        ],
        "32": [
          {
            "number": 32,
            "ticks": 1919,
            "time": 1.6517857395833333,
            "value": 0
          },
          {
            "number": 32,
            "ticks": 1920,
            "time": 1.65306125,
            "value": 0
          }
        ],
        "91": [
          {
            "number": 91,
            "ticks": 591,
            "time": 0.4925,
            "value": 0.4330708661417323
          },
          {
            "number": 91,
            "ticks": 1919,
            "time": 1.6517857395833333,
            "value": 0.4330708661417323
          },
          {
            "number": 91,
            "ticks": 1920,
            "time": 1.65306125,
            "value": 0.4330708661417323
          }
        ],
        "93": [
          {
            "number": 93,
            "ticks": 592,
            "time": 0.4933333333333334,
            "value": 0
          },
          {
            "number": 93,
            "ticks": 1919,
            "time": 1.6517857395833333,
            "value": 0
          },
          {
            "number": 93,
            "ticks": 1920,
            "time": 1.65306125,
            "value": 0
          }
        ],
        "100": [
          {
            "number": 100,
            "ticks": 653,
            "time": 0.5441666666666667,
            "value": 0
          },
          {
            "number": 100,
            "ticks": 665,
            "time": 0.5541666666666667,
            "value": 1
          },
          {
            "number": 100,
            "ticks": 1919,
            "time": 1.6517857395833333,
            "value": 1
          },
          {
            "number": 100,
            "ticks": 1920,
            "time": 1.65306125,
            "value": 1
          }
        ],
        "101": [
          {
            "number": 101,
            "ticks": 649,
            "time": 0.5408333333333334,
            "value": 0
          },
          {
            "number": 101,
            "ticks": 661,
            "time": 0.5508333333333334,
            "value": 1
          },
          {
            "number": 101,
            "ticks": 1919,
            "time": 1.6517857395833333,
            "value": 1
          },
          {
            "number": 101,
            "ticks": 1920,
            "time": 1.65306125,
            "value": 1
          }
        ]
      },
      "pitchBends": [],
      "instrument": {
        "family": "percussive",
        "name": "reverse cymbal",
        "number": 119
      },
      "name": "",
      "notes": [
        {
          "duration": 1.1811226458333328,
          "durationTicks": 926,
          "midi": 61,
          "name": "C#4",
          "ticks": 2880,
          "time": 2.87755125,
          "velocity": 0.7086614173228346
        },
        {
          "duration": 1.1823981562499988,
          "durationTicks": 927,
          "midi": 61,
          "name": "C#4",
          "ticks": 18239,
          "time": 22.468115739583332,
          "velocity": 0.7086614173228346
        }
      ]
    },
    {
      "channel": 0,
      "controlChanges": {
        "0": [
          {
            "number": 0,
            "ticks": 593,
            "time": 0.49416666666666664,
            "value": 0
          }
        ],
        "32": [
          {
            "number": 32,
            "ticks": 594,
            "time": 0.49500000000000005,
            "value": 0
          }
        ]
      },
      "pitchBends": [],
      "instrument": {
        "family": "piano",
        "name": "acoustic grand piano",
        "number": 0
      },
      "name": "",
      "notes": []
    },
    {
      "channel": 15,
      "controlChanges": {
        "0": [
          {
            "number": 0,
            "ticks": 1919,
            "time": 1.6517857395833333,
            "value": 0
          },
          {
            "number": 0,
            "ticks": 1920,
            "time": 1.65306125,
            "value": 0
          }
        ],
        "6": [
          {
            "number": 6,
            "ticks": 661,
            "time": 0.5508333333333334,
            "value": 0.015748031496062992
          },
          {
            "number": 6,
            "ticks": 1919,
            "time": 1.6517857395833333,
            "value": 0.015748031496062992
          },
          {
            "number": 6,
            "ticks": 1920,
            "time": 1.65306125,
            "value": 0.015748031496062992
          }
        ],
        "7": [
          {
            "number": 7,
            "ticks": 596,
            "time": 0.4966666666666667,
            "value": 0
          },
          {
            "number": 7,
            "ticks": 1919,
            "time": 1.6517857395833333,
            "value": 0
          },
          {
            "number": 7,
            "ticks": 1920,
            "time": 1.65306125,
            "value": 0
          }
        ],
        "10": [
          {
            "number": 10,
            "ticks": 597,
            "time": 0.4975,
            "value": 0.5039370078740157
          },
          {
            "number": 10,
            "ticks": 1919,
            "time": 1.6517857395833333,
            "value": 0.5039370078740157
          },
          {
            "number": 10,
            "ticks": 1920,
            "time": 1.65306125,
            "value": 0.5039370078740157
          }
        ],
        "11": [
          {
            "number": 11,
            "ticks": 597,
            "time": 0.4975,
            "value": 0
          },
          {
            "number": 11,
            "ticks": 1919,
            "time": 1.6517857395833333,
            "value": 0
          },
          {
            "number": 11,
            "ticks": 1920,
            "time": 1.65306125,
            "value": 0
          }
        ],
        "32": [
          {
            "number": 32,
            "ticks": 1919,
            "time": 1.6517857395833333,
            "value": 0
          },
          {
            "number": 32,
            "ticks": 1920,
            "time": 1.65306125,
            "value": 0
          }
        ],
        "91": [
          {
            "number": 91,
            "ticks": 599,
            "time": 0.49916666666666665,
            "value": 0.4330708661417323
          },
          {
            "number": 91,
            "ticks": 1919,
            "time": 1.6517857395833333,
            "value": 0.4330708661417323
          },
          {
            "number": 91,
            "ticks": 1920,
            "time": 1.65306125,
            "value": 0.4330708661417323
          }
        ],
        "93": [
          {
            "number": 93,
            "ticks": 600,
            "time": 0.5,
            "value": 0
          },
          {
            "number": 93,
            "ticks": 1919,
            "time": 1.6517857395833333,
            "value": 0
          },
          {
            "number": 93,
            "ticks": 1920,
            "time": 1.65306125,
            "value": 0
          }
        ],
        "100": [
          {
            "number": 100,
            "ticks": 657,
            "time": 0.5475,
            "value": 0
          },
          {
            "number": 100,
            "ticks": 669,
            "time": 0.5575,
            "value": 1
          },
          {
            "number": 100,
            "ticks": 1919,
            "time": 1.6517857395833333,
            "value": 1
          },
          {
            "number": 100,
            "ticks": 1920,
            "time": 1.65306125,
            "value": 1
          }
        ],
        "101": [
          {
            "number": 101,
            "ticks": 653,
            "time": 0.5441666666666667,
            "value": 0
          },
          {
            "number": 101,
            "ticks": 665,
            "time": 0.5541666666666667,
            "value": 1
          },
          {
            "number": 101,
            "ticks": 1919,
            "time": 1.6517857395833333,
            "value": 1
          },
          {
            "number": 101,
            "ticks": 1920,
            "time": 1.65306125,
            "value": 1
          }
        ]
      },
      "pitchBends": [],
      "instrument": {
        "family": "piano",
        "name": "bright acoustic piano",
        "number": 1
      },
      "name": "",
      "notes": [
        {
          "duration": 2.4438779583333328,
          "durationTicks": 1916,
          "midi": 49,
          "name": "C#3",
          "ticks": 1920,
          "time": 1.65306125,
          "velocity": 0.007874015748031496
        },
        {
          "duration": 2.4438779583333328,
          "durationTicks": 1916,
          "midi": 61,
          "name": "C#4",
          "ticks": 1920,
          "time": 1.65306125,
          "velocity": 0.007874015748031496
        },
        {
          "duration": 2.4438779583333328,
          "durationTicks": 1916,
          "midi": 64,
          "name": "E4",
          "ticks": 1920,
          "time": 1.65306125,
          "velocity": 0.007874015748031496
        },
        {
          "duration": 2.4438779583333328,
          "durationTicks": 1916,
          "midi": 68,
          "name": "G#4",
          "ticks": 1920,
          "time": 1.65306125,
          "velocity": 0.007874015748031496
        },
        {
          "duration": 2.44515346875,
          "durationTicks": 1917,
          "midi": 54,
          "name": "F#3",
          "ticks": 3839,
          "time": 4.100765739583333,
          "velocity": 0.007874015748031496
        },
        {
          "duration": 2.44515346875,
          "durationTicks": 1917,
          "midi": 66,
          "name": "F#4",
          "ticks": 3839,
          "time": 4.100765739583333,
          "velocity": 0.007874015748031496
        },
        {
          "duration": 2.44515346875,
          "durationTicks": 1917,
          "midi": 69,
          "name": "A4",
          "ticks": 3839,
          "time": 4.100765739583333,
          "velocity": 0.007874015748031496
        },
        {
          "duration": 2.44515346875,
          "durationTicks": 1917,
          "midi": 73,
          "name": "C#5",
          "ticks": 3839,
          "time": 4.100765739583333,
          "velocity": 0.007874015748031496
        },
        {
          "duration": 2.443877958333333,
          "durationTicks": 1916,
          "midi": 50,
          "name": "D3",
          "ticks": 5760,
          "time": 6.55102125,
          "velocity": 0.007874015748031496
        },
        {
          "duration": 2.443877958333333,
          "durationTicks": 1916,
          "midi": 62,
          "name": "D4",
          "ticks": 5760,
          "time": 6.55102125,
          "velocity": 0.007874015748031496
        },
        {
          "duration": 2.443877958333333,
          "durationTicks": 1916,
          "midi": 66,
          "name": "F#4",
          "ticks": 5760,
          "time": 6.55102125,
          "velocity": 0.007874015748031496
        },
        {
          "duration": 2.443877958333333,
          "durationTicks": 1916,
          "midi": 69,
          "name": "A4",
          "ticks": 5760,
          "time": 6.55102125,
          "velocity": 0.007874015748031496
        },
        {
          "duration": 2.44515346875,
          "durationTicks": 1917,
          "midi": 52,
          "name": "E3",
          "ticks": 7679,
          "time": 8.998725739583332,
          "velocity": 0.007874015748031496
        },
        {
          "duration": 2.44515346875,
          "durationTicks": 1917,
          "midi": 64,
          "name": "E4",
          "ticks": 7679,
          "time": 8.998725739583332,
          "velocity": 0.007874015748031496
        },
        {
          "duration": 2.44515346875,
          "durationTicks": 1917,
          "midi": 68,
          "name": "G#4",
          "ticks": 7679,
          "time": 8.998725739583332,
          "velocity": 0.007874015748031496
        },
        {
          "duration": 2.44515346875,
          "durationTicks": 1917,
          "midi": 71,
          "name": "B4",
          "ticks": 7679,
          "time": 8.998725739583332,
          "velocity": 0.007874015748031496
        },
        {
          "duration": 2.443877958333333,
          "durationTicks": 1916,
          "midi": 49,
          "name": "C#3",
          "ticks": 9600,
          "time": 11.44898125,
          "velocity": 0.007874015748031496
        },
        {
          "duration": 2.443877958333333,
          "durationTicks": 1916,
          "midi": 61,
          "name": "C#4",
          "ticks": 9600,
          "time": 11.44898125,
          "velocity": 0.007874015748031496
        },
        {
          "duration": 2.443877958333333,
          "durationTicks": 1916,
          "midi": 64,
          "name": "E4",
          "ticks": 9600,
          "time": 11.44898125,
          "velocity": 0.007874015748031496
        },
        {
          "duration": 2.443877958333333,
          "durationTicks": 1916,
          "midi": 68,
          "name": "G#4",
          "ticks": 9600,
          "time": 11.44898125,
          "velocity": 0.007874015748031496
        },
        {
          "duration": 2.445153468750002,
          "durationTicks": 1917,
          "midi": 54,
          "name": "F#3",
          "ticks": 11519,
          "time": 13.896685739583331,
          "velocity": 0.007874015748031496
        },
        {
          "duration": 2.445153468750002,
          "durationTicks": 1917,
          "midi": 66,
          "name": "F#4",
          "ticks": 11519,
          "time": 13.896685739583331,
          "velocity": 0.007874015748031496
        },
        {
          "duration": 2.445153468750002,
          "durationTicks": 1917,
          "midi": 69,
          "name": "A4",
          "ticks": 11519,
          "time": 13.896685739583331,
          "velocity": 0.007874015748031496
        },
        {
          "duration": 2.445153468750002,
          "durationTicks": 1917,
          "midi": 73,
          "name": "C#5",
          "ticks": 11519,
          "time": 13.896685739583331,
          "velocity": 0.007874015748031496
        },
        {
          "duration": 2.44515346875,
          "durationTicks": 1917,
          "midi": 50,
          "name": "D3",
          "ticks": 13439,
          "time": 16.345665739583332,
          "velocity": 0.007874015748031496
        },
        {
          "duration": 2.44515346875,
          "durationTicks": 1917,
          "midi": 62,
          "name": "D4",
          "ticks": 13439,
          "time": 16.345665739583332,
          "velocity": 0.007874015748031496
        },
        {
          "duration": 2.44515346875,
          "durationTicks": 1917,
          "midi": 66,
          "name": "F#4",
          "ticks": 13439,
          "time": 16.345665739583332,
          "velocity": 0.007874015748031496
        },
        {
          "duration": 2.44515346875,
          "durationTicks": 1917,
          "midi": 69,
          "name": "A4",
          "ticks": 13439,
          "time": 16.345665739583332,
          "velocity": 0.007874015748031496
        },
        {
          "duration": 2.4438779583333314,
          "durationTicks": 1916,
          "midi": 52,
          "name": "E3",
          "ticks": 15360,
          "time": 18.79592125,
          "velocity": 0.007874015748031496
        },
        {
          "duration": 2.4438779583333314,
          "durationTicks": 1916,
          "midi": 64,
          "name": "E4",
          "ticks": 15360,
          "time": 18.79592125,
          "velocity": 0.007874015748031496
        },
        {
          "duration": 2.4438779583333314,
          "durationTicks": 1916,
          "midi": 68,
          "name": "G#4",
          "ticks": 15360,
          "time": 18.79592125,
          "velocity": 0.007874015748031496
        },
        {
          "duration": 2.4438779583333314,
          "durationTicks": 1916,
          "midi": 71,
          "name": "B4",
          "ticks": 15360,
          "time": 18.79592125,
          "velocity": 0.007874015748031496
        },
        {
          "duration": 2.4451534687499965,
          "durationTicks": 1917,
          "midi": 49,
          "name": "C#3",
          "ticks": 17279,
          "time": 21.243625739583333,
          "velocity": 0.007874015748031496
        },
        {
          "duration": 2.4451534687499965,
          "durationTicks": 1917,
          "midi": 61,
          "name": "C#4",
          "ticks": 17279,
          "time": 21.243625739583333,
          "velocity": 0.007874015748031496
        },
        {
          "duration": 2.4451534687499965,
          "durationTicks": 1917,
          "midi": 64,
          "name": "E4",
          "ticks": 17279,
          "time": 21.243625739583333,
          "velocity": 0.007874015748031496
        },
        {
          "duration": 2.4451534687499965,
          "durationTicks": 1917,
          "midi": 68,
          "name": "G#4",
          "ticks": 17279,
          "time": 21.243625739583333,
          "velocity": 0.007874015748031496
        },
        {
          "duration": 2.44515346875,
          "durationTicks": 1917,
          "midi": 54,
          "name": "F#3",
          "ticks": 19199,
          "time": 23.692605739583332,
          "velocity": 0.007874015748031496
        },
        {
          "duration": 2.44515346875,
          "durationTicks": 1917,
          "midi": 66,
          "name": "F#4",
          "ticks": 19199,
          "time": 23.692605739583332,
          "velocity": 0.007874015748031496
        },
        {
          "duration": 2.44515346875,
          "durationTicks": 1917,
          "midi": 69,
          "name": "A4",
          "ticks": 19199,
          "time": 23.692605739583332,
          "velocity": 0.007874015748031496
        },
        {
          "duration": 2.44515346875,
          "durationTicks": 1917,
          "midi": 73,
          "name": "C#5",
          "ticks": 19199,
          "time": 23.692605739583332,
          "velocity": 0.007874015748031496
        },
        {
          "duration": 2.44515346875,
          "durationTicks": 1917,
          "midi": 50,
          "name": "D3",
          "ticks": 21119,
          "time": 26.14158573958333,
          "velocity": 0.007874015748031496
        },
        {
          "duration": 2.44515346875,
          "durationTicks": 1917,
          "midi": 62,
          "name": "D4",
          "ticks": 21119,
          "time": 26.14158573958333,
          "velocity": 0.007874015748031496
        },
        {
          "duration": 2.44515346875,
          "durationTicks": 1917,
          "midi": 66,
          "name": "F#4",
          "ticks": 21119,
          "time": 26.14158573958333,
          "velocity": 0.007874015748031496
        },
        {
          "duration": 2.44515346875,
          "durationTicks": 1917,
          "midi": 69,
          "name": "A4",
          "ticks": 21119,
          "time": 26.14158573958333,
          "velocity": 0.007874015748031496
        },
        {
          "duration": 2.4451534687499965,
          "durationTicks": 1917,
          "midi": 52,
          "name": "E3",
          "ticks": 23039,
          "time": 28.590565739583333,
          "velocity": 0.007874015748031496
        },
        {
          "duration": 2.4451534687499965,
          "durationTicks": 1917,
          "midi": 64,
          "name": "E4",
          "ticks": 23039,
          "time": 28.590565739583333,
          "velocity": 0.007874015748031496
        },
        {
          "duration": 2.4451534687499965,
          "durationTicks": 1917,
          "midi": 68,
          "name": "G#4",
          "ticks": 23039,
          "time": 28.590565739583333,
          "velocity": 0.007874015748031496
        },
        {
          "duration": 2.4451534687499965,
          "durationTicks": 1917,
          "midi": 71,
          "name": "B4",
          "ticks": 23039,
          "time": 28.590565739583333,
          "velocity": 0.007874015748031496
        },
        {
          "duration": 2.445153468749993,
          "durationTicks": 1917,
          "midi": 49,
          "name": "C#3",
          "ticks": 24959,
          "time": 31.039545739583332,
          "velocity": 0.007874015748031496
        },
        {
          "duration": 2.445153468749993,
          "durationTicks": 1917,
          "midi": 61,
          "name": "C#4",
          "ticks": 24959,
          "time": 31.039545739583332,
          "velocity": 0.007874015748031496
        },
        {
          "duration": 2.445153468749993,
          "durationTicks": 1917,
          "midi": 64,
          "name": "E4",
          "ticks": 24959,
          "time": 31.039545739583332,
          "velocity": 0.007874015748031496
        },
        {
          "duration": 2.445153468749993,
          "durationTicks": 1917,
          "midi": 68,
          "name": "G#4",
          "ticks": 24959,
          "time": 31.039545739583332,
          "velocity": 0.007874015748031496
        },
        {
          "duration": 2.4438779583333314,
          "durationTicks": 1916,
          "midi": 54,
          "name": "F#3",
          "ticks": 26880,
          "time": 33.48980125,
          "velocity": 0.007874015748031496
        },
        {
          "duration": 2.4438779583333314,
          "durationTicks": 1916,
          "midi": 66,
          "name": "F#4",
          "ticks": 26880,
          "time": 33.48980125,
          "velocity": 0.007874015748031496
        },
        {
          "duration": 2.4438779583333314,
          "durationTicks": 1916,
          "midi": 69,
          "name": "A4",
          "ticks": 26880,
          "time": 33.48980125,
          "velocity": 0.007874015748031496
        },
        {
          "duration": 2.4438779583333314,
          "durationTicks": 1916,
          "midi": 73,
          "name": "C#5",
          "ticks": 26880,
          "time": 33.48980125,
          "velocity": 0.007874015748031496
        },
        {
          "duration": 2.44515346875,
          "durationTicks": 1917,
          "midi": 50,
          "name": "D3",
          "ticks": 28799,
          "time": 35.93750573958333,
          "velocity": 0.007874015748031496
        },
        {
          "duration": 2.44515346875,
          "durationTicks": 1917,
          "midi": 62,
          "name": "D4",
          "ticks": 28799,
          "time": 35.93750573958333,
          "velocity": 0.007874015748031496
        },
        {
          "duration": 2.44515346875,
          "durationTicks": 1917,
          "midi": 66,
          "name": "F#4",
          "ticks": 28799,
          "time": 35.93750573958333,
          "velocity": 0.007874015748031496
        },
        {
          "duration": 2.44515346875,
          "durationTicks": 1917,
          "midi": 69,
          "name": "A4",
          "ticks": 28799,
          "time": 35.93750573958333,
          "velocity": 0.007874015748031496
        },
        {
          "duration": 2.4438779583333243,
          "durationTicks": 1916,
          "midi": 52,
          "name": "E3",
          "ticks": 30720,
          "time": 38.38776125,
          "velocity": 0.007874015748031496
        },
        {
          "duration": 2.4438779583333243,
          "durationTicks": 1916,
          "midi": 64,
          "name": "E4",
          "ticks": 30720,
          "time": 38.38776125,
          "velocity": 0.007874015748031496
        },
        {
          "duration": 2.4438779583333243,
          "durationTicks": 1916,
          "midi": 68,
          "name": "G#4",
          "ticks": 30720,
          "time": 38.38776125,
          "velocity": 0.007874015748031496
        },
        {
          "duration": 2.4438779583333243,
          "durationTicks": 1916,
          "midi": 71,
          "name": "B4",
          "ticks": 30720,
          "time": 38.38776125,
          "velocity": 0.007874015748031496
        },
        {
          "duration": 2.4438779583333314,
          "durationTicks": 1916,
          "midi": 49,
          "name": "C#3",
          "ticks": 32640,
          "time": 40.836741249999996,
          "velocity": 0.007874015748031496
        },
        {
          "duration": 2.4438779583333314,
          "durationTicks": 1916,
          "midi": 61,
          "name": "C#4",
          "ticks": 32640,
          "time": 40.836741249999996,
          "velocity": 0.007874015748031496
        },
        {
          "duration": 2.4438779583333314,
          "durationTicks": 1916,
          "midi": 64,
          "name": "E4",
          "ticks": 32640,
          "time": 40.836741249999996,
          "velocity": 0.007874015748031496
        },
        {
          "duration": 2.4438779583333314,
          "durationTicks": 1916,
          "midi": 68,
          "name": "G#4",
          "ticks": 32640,
          "time": 40.836741249999996,
          "velocity": 0.007874015748031496
        }
      ]
    }
  ]
}